SplineFontDB: 3.0
FontName: GenJyuuGothicL-Monospace-Bold
FullName: Gen Jyuu Gothic L Monospace Bold
FamilyName: Gen Jyuu Gothic L Monospace Bold
Weight: Bold
Copyright: [Source Han Sans]\nCopyright (c) 2014, 2015 Adobe Systems Incorporated (http://www.adobe.com/), with Reserved Font Name 'Source'.\n\n[M+ OUTLINE FONTS]\nCopyright(c) 2015 M+ FONTS PROJECT
Version: 1.002.20150607
ItalicAngle: 0
UnderlinePosition: -153
UnderlineWidth: 51
Ascent: 881
Descent: 143
InvalidEm: 0
sfntRevision: 0x00010083
LayerCount: 2
Layer: 0 1 "+gMyXYgAA" 1
Layer: 1 1 "+Uk2XYgAA" 0
HasVMetrics: 1
XUID: [1021 40 1406584144 6912460]
StyleMap: 0x0020
FSType: 8
OS2Version: 1
OS2_WeightWidthSlopeOnly: 0
OS2_UseTypoMetrics: 0
CreationTime: 1420876227
ModificationTime: 1622115916
PfmFamily: 17
TTFWeight: 700
TTFWidth: 5
LineGap: 92
VLineGap: 92
Panose: 2 11 6 9 2 2 3 2 2 7
OS2TypoAscent: 881
OS2TypoAOffset: 0
OS2TypoDescent: -143
OS2TypoDOffset: 0
OS2TypoLinegap: 92
OS2WinAscent: 1101
OS2WinAOffset: 0
OS2WinDescent: 328
OS2WinDOffset: 0
HheadAscent: 1101
HheadAOffset: 0
HheadDescent: -328
HheadDOffset: 0
OS2SubXSize: 666
OS2SubYSize: 716
OS2SubXOff: 0
OS2SubYOff: 143
OS2SupXSize: 666
OS2SupYSize: 716
OS2SupXOff: 0
OS2SupYOff: 490
OS2StrikeYSize: 50
OS2StrikeYPos: 264
OS2FamilyClass: 2057
OS2Vendor: 'MM  '
OS2CodePages: 601201bf.dff70000
OS2UnicodeRanges: e1000aff.6a47fdfb.02000012.00000000
Lookup: 1 0 0 "'vert' Vertical Alternates (obs) lookup 0" { "'vert' Vertical Alternates (obs) lookup 0 subtable"  } ['vert' ('DFLT' <'dflt' > 'cyrl' <'dflt' > 'grek' <'dflt' > 'hani' <'dflt' > 'kana' <'JAN ' 'dflt' > 'latn' <'dflt' > ) ]
Lookup: 1 0 0 "'jp90' JIS90 Forms lookup 1" { "'jp90' JIS90 Forms lookup 1 subtable"  } ['jp90' ('DFLT' <'dflt' > 'cyrl' <'dflt' > 'grek' <'dflt' > 'hani' <'dflt' > 'kana' <'JAN ' 'dflt' > 'latn' <'dflt' > ) ]

StartChar: cid01464
Encoding: 12364 12364 0
Width: 1024
GlyphClass: 3
Flags: W
LayerCount: 2
Fore
SplineSet
726.999023438 718.67578125 m 0,0,1
 702.530465837 769.029972582 702.530465837 769.029972582 676.813476562 796.69140625 c 0,2,3
 661.139985355 814.326490548 661.139985355 814.326490548 671.489257812 843.798828125 c 0,4,5
 680.544219696 866.212441001 680.544219696 866.212441001 703.163085938 878.369140625 c 0,6,7
 724.498926027 890.293102781 724.498926027 890.293102781 746.1640625 890.923828125 c 0,8,9
 746.939575457 890.946682141 746.939575457 890.946682141 747.727539062 890.92578125 c 0,10,11
 776.855497004 890.132772301 776.855497004 890.132772301 791.630859375 869.608398438 c 0,12,13
 836.912276129 804.908858577 836.912276129 804.908858577 847.791992188 784.5625 c 0,14,15
 859.3957854 764.251089461 859.3957854 764.251089461 847.51171875 739.17578125 c 0,16,17
 837.590882379 717.459304785 837.590882379 717.459304785 815.00390625 704.848632812 c 0,18,19
 791.126519308 690.687048087 791.126519308 690.687048087 767.162109375 693.248046875 c 0,20,21
 766.447629515 693.325707729 766.447629515 693.325707729 765.751953125 693.436523438 c 0,22,23
 737.911125142 697.873231585 737.911125142 697.873231585 726.999023438 718.67578125 c 0,0,1
860.124023438 808.274414062 m 0,24,25
 849.967730801 826.163978926 849.967730801 826.163978926 858.283203125 848.615234375 c 0,26,27
 865.863250804 869.081967337 865.863250804 869.081967337 885.19921875 881.456054688 c 0,28,29
 911.563555854 897.680138852 911.563555854 897.680138852 936.189453125 897.110351562 c 0,30,31
 965.654754413 895.940218734 965.654754413 895.940218734 979.130859375 875.3515625 c 0,32,33
 1013.60869461 825.332159403 1013.60869461 825.332159403 1034.23730469 791.428710938 c 0,34,35
 1048.43887823 768.118673512 1048.43887823 768.118673512 1031.43359375 741.404296875 c 0,36,37
 1019.42916308 721.951515685 1019.42916308 721.951515685 1000.14453125 710.646484375 c 0,38,39
 979.424151597 698.5 979.424151597 698.5 958 698.5 c 0,40,41
 932.622895803 698.5 932.622895803 698.5 915.374023438 723.12109375 c 0,42,43
 882.097185585 769.120178563 882.097185585 769.120178563 860.124023438 808.274414062 c 0,24,25
314.02734375 767.08984375 m 0,44,45
 315.599969238 790.671643495 315.599969238 790.671643495 333.243164062 805.864257812 c 0,46,47
 349.748330729 821.5 349.748330729 821.5 372 821.5 c 2,48,-1
 383.126953125 819.95703125 l 1,49,-1
 403.053710938 818.423828125 l 2,50,51
 429.087110446 816.56397922 429.087110446 816.56397922 444.315429688 795.961914062 c 0,52,53
 458.487372222 776.788198266 458.487372222 776.788198266 453.577148438 753.876953125 c 0,54,55
 450.651105931 739.248229673 450.651105931 739.248229673 448.671875 728.366210938 c 0,56,57
 448.550729852 727.703018909 448.550729852 727.703018909 448.390625 727.060546875 c 0,58,59
 445.576093505 715.809198817 445.576093505 715.809198817 437.201171875 667.529296875 c 0,60,61
 431.897821372 636.957730644 431.897821372 636.957730644 427.5 613.799804688 c 1,62,63
 484.823610911 618.5 484.823610911 618.5 511 618.5 c 0,64,65
 598.150382129 618.5 598.150382129 618.5 649.426757812 573.6328125 c 0,66,67
 701 528.505204415 701 528.505204415 701 423 c 0,68,69
 701 319.566490428 701 319.566490428 686.297851562 216.14453125 c 0,70,71
 671.325248442 110.81996158 671.325248442 110.81996158 639.838867188 47.8486328125 c 0,72,73
 613.589891062 -5.79031075413 613.589891062 -5.79031075413 571.02734375 -27.9716796875 c 0,74,75
 529.716013069 -49.5 529.716013069 -49.5 469 -49.5 c 0,76,77
 429.706540002 -49.5 429.706540002 -49.5 379.173828125 -41.078125 c 0,78,79
 354.590889277 -36.4680061823 354.590889277 -36.4680061823 338.053710938 -19.1796875 c 0,80,81
 322.483814746 -2.9016144619 322.483814746 -2.9016144619 319.20703125 20.048828125 c 2,82,-1
 316.29296875 36.56640625 l 2,83,84
 312.327996393 60.3514652332 312.327996393 60.3514652332 331.419921875 76.4296875 c 0,85,86
 351.166025986 93.0596197687 351.166025986 93.0596197687 376.631835938 86.6943359375 c 0,87,88
 426.342669193 74.5 426.342669193 74.5 461 74.5 c 0,89,90
 485.256392704 74.5 485.256392704 74.5 500.423828125 82.4462890625 c 0,91,92
 514.492144632 89.8143673881 514.492144632 89.8143673881 526.12109375 113.072265625 c 0,93,94
 547.659198724 158.019683009 547.659198724 158.019683009 559.708984375 241.401367188 c 0,95,96
 572 326.461115163 572 326.461115163 572 414 c 0,97,98
 572 468.144654422 572 468.144654422 553.549804688 483.461914062 c 0,99,100
 534.228840558 499.5 534.228840558 499.5 489 499.5 c 0,101,102
 463.146048924 499.5 463.146048924 499.5 401.255859375 493.888671875 c 1,103,104
 321.34353508 186.17977461 321.34353508 186.17977461 208.329101562 -8.125 c 0,105,106
 197.11192671 -28.9575711558 197.11192671 -28.9575711558 172.682617188 -37.0986328125 c 0,107,108
 147.783358023 -45.3983858674 147.783358023 -45.3983858674 124.424804688 -35.388671875 c 2,109,-1
 107.885742188 -28.578125 l 2,110,111
 83.6542427646 -19.2575984087 83.6542427646 -19.2575984087 77.203125 4.701171875 c 0,112,113
 71.3586805496 26.4082211355 71.3586805496 26.4082211355 83.4326171875 45.3798828125 c 0,114,115
 144.230876933 136.578737379 144.230876933 136.578737379 192.87890625 262.870117188 c 0,116,117
 236.12613043 375.137190876 236.12613043 375.137190876 265.301757812 480.70703125 c 1,118,119
 212.571335376 475.61523689 212.571335376 475.61523689 173.96875 471.7578125 c 0,120,121
 166.66940374 470.491654587 166.66940374 470.491654587 148.438476562 468.213867188 c 0,122,123
 128.656022548 465.741807733 128.656022548 465.741807733 117.407226562 464.696289062 c 0,124,125
 92.0821313131 461.737207017 92.0821313131 461.737207017 72.6337890625 476.111328125 c 128,-1,126
 53.3136842407 490.39104157 53.3136842407 490.39104157 51.0390625 515.52734375 c 2,127,-1
 49.080078125 533.158203125 l 2,128,129
 47.4220881781 556.364109096 47.4220881781 556.364109096 63.1142578125 573.708007812 c 0,130,131
 80.1179124554 592.5 80.1179124554 592.5 106 592.5 c 2,132,-1
 115 592.5 l 1,133,-1
 160.512695312 592.5 l 2,134,135
 187.915460241 593.515993965 187.915460241 593.515993965 292.747070312 602.1640625 c 1,136,137
 311.257424042 699.675667836 311.257424042 699.675667836 314.02734375 767.08984375 c 0,44,45
709.2109375 602.969726562 m 0,138,139
 701 616.105417654 701 616.105417654 701 631 c 0,140,141
 701 636.5 701 636.5 702.564453125 642.7578125 c 0,142,143
 707.850979345 665.665007705 707.850979345 665.665007705 729.858398438 676.66796875 c 2,144,-1
 739.858398438 681.668945312 l 2,145,146
 740.345377604 681.912434896 740.345377604 681.912434896 740.930664062 682.174804688 c 0,147,148
 755.16584253 688.5 755.16584253 688.5 770 688.5 c 0,149,150
 778.747327024 688.5 778.747327024 688.5 786.423828125 686.963867188 c 0,151,152
 787.272834737 686.794374034 787.272834737 686.794374034 788.1015625 686.573242188 c 0,153,154
 812.2011106 680.146403965 812.2011106 680.146403965 826.329101562 659.73828125 c 0,155,156
 865.169163461 601.478188403 865.169163461 601.478188403 908.752929688 515.323242188 c 0,157,158
 952.196044049 429.446839179 952.196044049 429.446839179 980.446289062 357.8125 c 0,159,160
 985 347.192039555 985 347.192039555 985 336 c 0,161,162
 985 325.495920338 985 325.495920338 980.670898438 314.719726562 c 0,163,164
 972.324589466 291.45824069 972.324589466 291.45824069 949.8828125 281.18359375 c 2,165,-1
 935.745117188 273.643554688 l 2,166,167
 934.770797753 273.123406202 934.770797753 273.123406202 933.747070312 272.685546875 c 0,168,169
 921.646941708 267.5 921.646941708 267.5 909 267.5 c 0,170,171
 897.502424325 267.5 897.502424325 267.5 884.955078125 273.25 c 0,172,173
 864.528941262 282.439423853 864.528941262 282.439423853 856.234375 304.0078125 c 0,174,175
 830.513935539 379.188849996 830.513935539 379.188849996 790.067382812 463.040039062 c 0,176,177
 749.890541723 546.333419041 749.890541723 546.333419041 710.013671875 601.7734375 c 0,178,179
 709.600033581 602.348018693 709.600033581 602.348018693 709.2109375 602.969726562 c 0,138,139
EndSplineSet
Ligature2: "'ccmp' Glyph Composition/Decomposition lookup 5 subtable" cid01463 cid01539
EndChar

StartChar: cid01466
Encoding: 12366 12366 1
Width: 1024
GlyphClass: 3
Flags: W
LayerCount: 2
Fore
SplineSet
734.939453125 701.799804688 m 0,0,1
 693.768920074 784.616482919 693.768920074 784.616482919 682.51953125 795.950195312 c 0,2,3
 682.068298476 796.406032503 682.068298476 796.406032503 681.641601562 796.884765625 c 0,4,5
 666.140721552 814.325838734 666.140721552 814.325838734 676.489257812 843.798828125 c 0,6,7
 685.544219696 866.212441001 685.544219696 866.212441001 708.163085938 878.369140625 c 0,8,9
 729.498926027 890.293102781 729.498926027 890.293102781 751.1640625 890.923828125 c 0,10,11
 751.939575457 890.946682141 751.939575457 890.946682141 752.727539062 890.92578125 c 0,12,13
 781.855383105 890.132958322 781.855383105 890.132958322 796.641601562 869.59375 c 0,14,15
 799.729681613 865.165915973 799.729681613 865.165915973 855.62890625 767.848632812 c 0,16,17
 867.395329661 747.252397606 867.395329661 747.252397606 855.51171875 722.17578125 c 0,18,19
 845.59183835 700.461397383 845.59183835 700.461397383 823.00390625 687.848632812 c 0,20,21
 799.125968365 673.686721325 799.125968365 673.686721325 775.162109375 676.249023438 c 0,22,23
 774.314030209 676.338534476 774.314030209 676.338534476 773.454101562 676.485351562 c 0,24,25
 747.910410947 680.845426498 747.910410947 680.845426498 735.967773438 699.9609375 c 0,26,27
 735.409212346 700.856165551 735.409212346 700.856165551 734.939453125 701.799804688 c 0,0,1
863.137695312 811.25 m 0,28,29
 852.968050149 829.165013982 852.968050149 829.165013982 861.283203125 851.615234375 c 0,30,31
 868.862763361 872.080651202 868.862763361 872.080651202 888.19921875 884.45703125 c 0,32,33
 914.56274214 900.679874516 914.56274214 900.679874516 939.15625 900.111328125 c 0,34,35
 970.744376366 898.931275504 970.744376366 898.931275504 983.270507812 876.459960938 c 0,36,37
 1001.33606124 841.137867849 1001.33606124 841.137867849 1040.23730469 777.428710938 c 0,38,39
 1054.43862294 754.119092531 1054.43862294 754.119092531 1037.43359375 727.403320312 c 0,40,41
 1025.42871803 707.95125479 1025.42871803 707.95125479 1006.14453125 696.646484375 c 0,42,43
 985.424151597 684.5 985.424151597 684.5 964 684.5 c 0,44,45
 935.04389575 684.5 935.04389575 684.5 919.98046875 711.50390625 c 0,46,47
 883.518385516 775.150868985 883.518385516 775.150868985 863.137695312 811.25 c 0,28,29
138.63671875 239.05078125 m 0,48,49
 144.752211056 261.984628688 144.752211056 261.984628688 164.756835938 275.833984375 c 128,-1,50
 184.740253918 289.668077107 184.740253918 289.668077107 209.721679688 287.5 c 2,51,-1
 215 287.5 l 2,52,53
 215.987936581 287.5 215.987936581 287.5 216.978515625 287.4296875 c 0,54,55
 228.286632479 286.621407587 228.286632479 286.621407587 237.768554688 281.970703125 c 0,56,57
 250.26549612 275.841629938 250.26549612 275.841629938 258.060546875 263.889648438 c 0,58,59
 270.918238663 244.173605565 270.918238663 244.173605565 264.108398438 222.043945312 c 0,60,61
 252 181.993636834 252 181.993636834 252 159 c 0,62,63
 252 106.564715884 252 106.564715884 294.381691188 80.5323579421 c 128,-1,64
 336.763382376 54.5 336.763382376 54.5 434 54.5 c 0,65,66
 548.731312194 54.5 548.731312194 54.5 643.786132812 70.1796875 c 0,67,68
 656.496875253 71.995294549 656.496875253 71.995294549 667.810546875 68.9072265625 c 0,69,70
 680.063198967 65.5627634813 680.063198967 65.5627634813 689.677734375 56.91015625 c 0,71,72
 707 41.3196622562 707 41.3196622562 707 19 c 2,73,-1
 707 8 l 2,74,75
 707 7.361328125 707 7.361328125 706.9609375 6.736328125 c 0,76,77
 705.519967858 -16.308398146 705.519967858 -16.308398146 690.6875 -33.3671875 c 0,78,79
 674.536280113 -51.9409337753 674.536280113 -51.9409337753 649.716796875 -55.25 c 0,80,81
 545.90457968 -69.5 545.90457968 -69.5 436 -69.5 c 0,82,83
 291.040857836 -69.5 291.040857836 -69.5 210.048828125 -17.859375 c 0,84,85
 125 36.3657191143 125 36.3657191143 125 141 c 0,86,87
 125 183.455727324 125 183.455727324 138.63671875 239.05078125 c 0,48,49
777.668945312 555.21484375 m 0,88,89
 801.665473 562.598390731 801.665473 562.598390731 824.0078125 550.981445312 c 128,-1,90
 846.386704894 539.343948859 846.386704894 539.343948859 851.547851562 515.260742188 c 0,91,92
 852 513.147671375 852 513.147671375 852 511 c 2,93,-1
 852 509.83984375 l 2,94,95
 855.408016968 488.212209334 855.408016968 488.212209334 844.6875 469.630859375 c 0,96,97
 832.888879355 449.182205292 832.888879355 449.182205292 810.221679688 441.0859375 c 0,98,99
 809.556684757 440.849111475 809.556684757 440.849111475 808.905273438 440.654296875 c 0,100,101
 758.18319252 425.437093448 758.18319252 425.437093448 696.884765625 412.850585938 c 1,102,103
 737.695986967 326.435670005 737.695986967 326.435670005 760.797851562 280.233398438 c 0,104,105
 769 263.827550182 769 263.827550182 769 248 c 0,106,107
 769 224.848250449 769 224.848250449 753.350585938 204.931640625 c 0,108,109
 729.80495893 175.5 729.80495893 175.5 692 175.5 c 2,110,-1
 683 175.5 l 2,111,112
 680.965365023 175.5 680.965365023 175.5 678.956054688 175.795898438 c 0,113,114
 618.080336841 184.777561726 618.080336841 184.777561726 543.061523438 194.779296875 c 0,115,116
 519.77528703 198.361794784 519.77528703 198.361794784 505.293945312 216.250976562 c 0,117,118
 491.142387529 233.732580372 491.142387529 233.732580372 493.633789062 255.32421875 c 0,119,120
 496.173132231 277.326126218 496.173132231 277.326126218 514.346679688 291.172851562 c 0,121,122
 532.777249455 305.213634323 532.777249455 305.213634323 556.654296875 303.377929688 c 0,123,124
 585.526442101 300.046262131 585.526442101 300.046262131 611.375 297.2890625 c 1,125,126
 596.329475798 330.637706164 596.329475798 330.637706164 569.409179688 391.02734375 c 1,127,128
 460.650109548 378.5 460.650109548 378.5 326 378.5 c 0,129,130
 249.825243533 378.5 249.825243533 378.5 166.477539062 382.493164062 c 0,131,132
 140.247490271 383.118720667 140.247490271 383.118720667 122.41796875 400.948242188 c 0,133,134
 106.087449656 417.277293106 106.087449656 417.277293106 105.036132812 439.809570312 c 2,135,-1
 104.395507812 443.014648438 l 2,136,137
 104 444.987623948 104 444.987623948 104 447 c 0,138,139
 104 469.967535754 104 469.967535754 120.8515625 485.973632812 c 0,140,141
 139.067164096 503.278533246 139.067164096 503.278533246 165.008789062 501.427734375 c 0,142,143
 259.028876817 494.5 259.028876817 494.5 344 494.5 c 0,144,145
 435.68911552 494.5 435.68911552 494.5 518.684570312 503.116210938 c 1,146,-1
 494.712890625 558.814453125 l 1,147,-1
 478.728515625 595.350585938 l 1,148,149
 406.486561113 589.5 406.486561113 589.5 332 589.5 c 0,150,151
 252.940590644 589.5 252.940590644 589.5 172.897460938 595.580078125 c 0,152,153
 172.229406612 595.63064187 172.229406612 595.63064187 171.561523438 595.713867188 c 0,154,155
 146.197181175 598.88440997 146.197181175 598.88440997 129.537109375 616.337890625 c 0,156,157
 113.549340639 633.086062296 113.549340639 633.086062296 112.044921875 655.65234375 c 0,158,159
 112 656.330818966 112 656.330818966 112 657 c 2,160,-1
 112 660.259765625 l 2,161,162
 110.939318637 683.908271933 110.939318637 683.908271933 127.8515625 699.974609375 c 0,163,164
 146.131974636 717.342146089 146.131974636 717.342146089 171.373046875 715.399414062 c 0,165,166
 265.313244344 706.5 265.313244344 706.5 350 706.5 c 0,167,168
 391.075514863 706.5 391.075514863 706.5 430.150390625 708.571289062 c 1,169,170
 429.943572998 709.093341534 429.943572998 709.093341534 429.483398438 710.296875 c 0,171,172
 418.360883356 734.372807106 418.360883356 734.372807106 410.635742188 749.897460938 c 0,173,174
 398.585212151 770.191140409 398.585212151 770.191140409 408.388671875 791.580078125 c 0,175,176
 418.741831572 814.167642391 418.741831572 814.167642391 444.784179688 819.021484375 c 2,177,-1
 466.2265625 823.89453125 l 2,178,179
 492.161225243 829.081463799 492.161225243 829.081463799 514.110351562 815.573242188 c 0,180,181
 534.179883193 803.223555383 534.179883193 803.223555383 541.904296875 781.596679688 c 0,182,183
 551.593456126 751.720231777 551.593456126 751.720231777 562.635742188 722.390625 c 1,184,185
 625.12924512 731.171027395 625.12924512 731.171027395 680.115234375 748.353515625 c 0,186,187
 705.68825989 755.661405332 705.68825989 755.661405332 727.596679688 742.880859375 c 0,188,189
 748.53172976 730.669844288 748.53172976 730.669844288 753.547851562 707.260742188 c 0,190,191
 754 705.149193761 754 705.149193761 754 703 c 2,192,-1
 754 700.936523438 l 2,193,194
 757.443559052 680.275169125 757.443559052 680.275169125 746.6875 661.631835938 c 0,195,196
 734.28912393 640.14370932 734.28912393 640.14370932 709.2734375 633.47265625 c 0,197,198
 662.315490704 620.291324547 662.315490704 620.291324547 607.673828125 610.895507812 c 1,199,-1
 614.114257812 595.598632812 l 2,200,201
 617.616323129 588.432434771 617.616323129 588.432434771 624.26171875 573.243164062 c 0,202,203
 631.194657982 557.396654943 631.194657982 557.396654943 638.638671875 541.01953125 c 0,204,205
 642.997277344 531.429461942 642.997277344 531.429461942 647.524414062 521.25390625 c 1,206,207
 716.582730299 535.144432211 716.582730299 535.144432211 777.668945312 555.21484375 c 0,88,89
EndSplineSet
Ligature2: "'ccmp' Glyph Composition/Decomposition lookup 5 subtable" cid01465 cid01539
EndChar

StartChar: cid01468
Encoding: 12368 12368 2
Width: 1024
GlyphClass: 3
Flags: W
LayerCount: 2
Fore
SplineSet
670.40625 459.994140625 m 0,0,1
 629.235716949 542.810818857 629.235716949 542.810818857 617.986328125 554.14453125 c 0,2,3
 617.535095351 554.60036844 617.535095351 554.60036844 617.108398438 555.079101562 c 0,4,5
 601.607762488 572.519900062 601.607762488 572.519900062 611.956054688 601.994140625 c 0,6,7
 621.011294481 624.407006799 621.011294481 624.407006799 643.62890625 636.564453125 c 0,8,9
 664.96593665 648.48709531 664.96593665 648.48709531 686.629882812 649.119140625 c 0,10,11
 687.40579294 649.142006346 687.40579294 649.142006346 688.196289062 649.12109375 c 0,12,13
 717.32269084 648.326584636 717.32269084 648.326584636 732.108398438 627.788085938 c 0,14,15
 735.196478488 623.360251911 735.196478488 623.360251911 791.095703125 526.04296875 c 0,16,17
 802.862126536 505.446733543 802.862126536 505.446733543 790.978515625 480.370117188 c 0,18,19
 781.058635225 458.65573332 781.058635225 458.65573332 758.470703125 446.04296875 c 0,20,21
 734.59276524 431.881057263 734.59276524 431.881057263 710.62890625 434.443359375 c 0,22,23
 709.780827084 434.532870414 709.780827084 434.532870414 708.920898438 434.6796875 c 0,24,25
 683.377890771 439.039645862 683.377890771 439.039645862 671.434570312 458.15625 c 0,26,27
 670.873604085 459.055332858 670.873604085 459.055332858 670.40625 459.994140625 c 0,0,1
806.08984375 568.629882812 m 0,28,29
 794.968252098 586.295538951 794.968252098 586.295538951 803.864257812 610.15234375 c 0,30,31
 811.265065953 630.389838693 811.265065953 630.389838693 830.689453125 642.6640625 c 0,32,33
 856.355544021 658.585324896 856.355544021 658.585324896 881.634765625 658.309570312 c 0,34,35
 912.192558101 656.770454398 912.192558101 656.770454398 925.088867188 635.778320312 c 0,36,37
 946.126019743 601.483825261 946.126019743 601.483825261 983.111328125 534.926757812 c 0,38,39
 996.437038541 511.2808135 996.437038541 511.2808135 980.01171875 485.791992188 c 0,40,41
 967.833002242 466.217394389 967.833002242 466.217394389 948.614257812 454.842773438 c 0,42,43
 927.184829457 442.394176508 927.184829457 442.394176508 906.454101562 442.69140625 c 0,44,45
 876.660614575 442.291901688 876.660614575 442.291901688 862.409179688 469.822265625 c 0,46,47
 827.662482817 533.851157146 827.662482817 533.851157146 806.08984375 568.629882812 c 0,28,29
661.373046875 -68.5 m 0,48,49
 629.219794502 -64.8726653765 629.219794502 -64.8726653765 613.752929688 -49.45703125 c 0,50,51
 607.313563535 -43.9177532941 607.313563535 -43.9177532941 591.671875 -27.8017578125 c 0,52,53
 575.291398687 -10.9253881732 575.291398687 -10.9253881732 566.669921875 -1.271484375 c 0,54,55
 495.359203032 74.8596438577 495.359203032 74.8596438577 249.051757812 278.458984375 c 0,56,57
 196.590172405 322.178501885 196.590172405 322.178501885 181.595703125 359.086914062 c 0,58,59
 174 376.809181773 174 376.809181773 174 394 c 0,60,61
 174 417.369702064 174 417.369702064 185.790039062 438.33203125 c 0,62,63
 204.747485535 470.668173495 204.747485535 470.668173495 254.600585938 514.15625 c 0,64,65
 255.177469284 514.659135221 255.177469284 514.659135221 255.8125 515.146484375 c 0,66,67
 272.499944619 527.906842485 272.499944619 527.906842485 345.21875 587.176757812 c 128,-1,68
 417.977028543 646.480199402 417.977028543 646.480199402 470.744140625 691.78125 c 0,69,70
 522.766776344 736.44234299 522.766776344 736.44234299 551.892578125 767.509765625 c 0,71,72
 552.373613115 768.022657237 552.373613115 768.022657237 552.8515625 768.474609375 c 0,73,74
 571.940164416 786.608708109 571.940164416 786.608708109 588.004882812 805.506835938 c 0,75,76
 602.951490691 823.776161308 602.951490691 823.776161308 627.08203125 827.221679688 c 0,77,78
 629.03180267 827.5 629.03180267 827.5 631 827.5 c 2,79,-1
 635 827.5 l 2,80,81
 657.26454765 827.5 657.26454765 827.5 673.686523438 812.90234375 c 2,82,-1
 696.741210938 791.853515625 l 2,83,84
 714 776.31927662 714 776.31927662 714 753 c 0,85,86
 714 729.046910995 714 729.046910995 694.418945312 713.025390625 c 0,87,88
 686.474304178 707.067248536 686.474304178 707.067248536 672.421875 695.438476562 c 0,89,90
 658.787042107 684.153253045 658.787042107 684.153253045 654.581054688 679.947265625 c 0,91,92
 653.999674479 679.365885417 653.999674479 679.365885417 653.385742188 678.83203125 c 0,93,94
 622.096134527 651.579886357 622.096134527 651.579886357 569.326171875 608.359375 c 0,95,96
 516.776367188 565.319335938 516.776367188 565.319335938 450.247070312 511.294921875 c 0,97,98
 384.199802383 457.662521022 384.199802383 457.662521022 363.034179688 440.52734375 c 0,99,100
 326.538544813 408.59351174 326.538544813 408.59351174 325.004882812 396.0390625 c 0,101,102
 325.358415642 393.987197933 325.358415642 393.987197933 329.131954944 388.421835989 c 128,-1,103
 332.905494246 382.856474045 332.905494246 382.856474045 342.771365369 372.267617136 c 128,-1,104
 352.637236491 361.678760226 352.637236491 361.678760226 365.8125 350.654296875 c 0,105,106
 590.419767819 171.169706761 590.419767819 171.169706761 721.385742188 46.248046875 c 0,107,108
 738 29.6323302639 738 29.6323302639 738 7 c 0,109,110
 738 -17.2523349698 738 -17.2523349698 719.72265625 -33.8701171875 c 2,111,-1
 699.72265625 -51.8701171875 l 2,112,113
 681.42795202 -68.5 681.42795202 -68.5 661.373046875 -68.5 c 0,48,49
EndSplineSet
Ligature2: "'ccmp' Glyph Composition/Decomposition lookup 5 subtable" cid01467 cid01539
EndChar

StartChar: cid01470
Encoding: 12370 12370 3
Width: 1024
GlyphClass: 3
Flags: W
LayerCount: 2
Fore
SplineSet
815.770507812 827.771484375 m 0,0,1
 829.633716711 811.598261168 829.633716711 811.598261168 819.875 782.32421875 c 0,2,3
 813.244437037 763.756962413 813.244437037 763.756962413 797.91796875 747.791015625 c 0,4,5
 780.431364253 729.576624037 780.431364253 729.576624037 758.821289062 726.217773438 c 0,6,7
 722.427629041 720.522781843 722.427629041 720.522781843 708.329101562 741.033203125 c 0,8,9
 701.030115245 751.336095692 701.030115245 751.336095692 651.41796875 800.948242188 c 0,10,11
 635.205337257 817.159726371 635.205337257 817.159726371 643.9921875 845.279296875 c 0,12,13
 648.574881072 859.02639058 648.574881072 859.02639058 671.955078125 883.577148438 c 0,14,15
 696.651742637 909.91722718 696.651742637 909.91722718 721.1875 905.01171875 c 0,16,17
 736.285383842 902.266481353 736.285383842 902.266481353 746.037109375 895.393554688 c 0,18,19
 770.760849953 879.941216826 770.760849953 879.941216826 815.770507812 827.771484375 c 0,0,1
871.224609375 801.54296875 m 0,20,21
 854.493678669 813.495487506 854.493678669 813.495487506 856.046875 829.9609375 c 0,22,23
 857.541061073 838.927094456 857.541061073 838.927094456 860.157226562 846.774414062 c 0,24,25
 869.461583558 872.029979204 869.461583558 872.029979204 887.572265625 885.961914062 c 0,26,27
 893.457058753 890.668473075 893.457058753 890.668473075 901.572265625 895.40234375 c 0,28,29
 912.525634 902.847806854 912.525634 902.847806854 926.452148438 905.943359375 c 0,30,31
 954.997454177 911.294840327 954.997454177 911.294840327 973.34765625 897.022460938 c 0,32,33
 974.931703799 895.790084176 974.931703799 895.790084176 976.26171875 894.342773438 c 2,34,-1
 1032.9296875 832.704101562 l 2,35,36
 1041.60834482 824.026981645 1041.60834482 824.026981645 1043.72363281 811.336914062 c 0,37,38
 1044 809.678710938 1044 809.678710938 1044 808 c 0,39,40
 1044 795.768403298 1044 795.768403298 1040.22851562 785.32421875 c 0,41,42
 1030.4662819 755.444653148 1030.4662819 755.444653148 1016.17480469 745.619140625 c 0,43,44
 1009.34090909 740.920691378 1009.34090909 740.920691378 1003.5625 736.359375 c 0,45,46
 996.201012466 730.873352205 996.201012466 730.873352205 974.118164062 726.974609375 c 0,47,48
 960.106106534 724.172556647 960.106106534 724.172556647 947.7421875 727.935546875 c 128,-1,49
 935.294123482 731.724136066 935.294123482 731.724136066 922.888671875 746.063476562 c 0,50,51
 880.829083255 794.33961334 880.829083255 794.33961334 871.224609375 801.54296875 c 0,20,21
131.040039062 728.268554688 m 0,52,53
 132.630798047 752.137752612 132.630798047 752.137752612 150.690429688 767.734375 c 0,54,55
 169.913281925 784.335999168 169.913281925 784.335999168 196.096679688 781.340820312 c 2,56,-1
 220.170898438 779.415039062 l 2,57,58
 245.567053585 777.461041988 245.567053585 777.461041988 260.189453125 756.439453125 c 0,59,60
 273.551084751 737.231831838 273.551084751 737.231831838 267.202148438 714.30859375 c 0,61,62
 262.536552192 695.541115312 262.536552192 695.541115312 260.723632812 684.662109375 c 0,63,64
 260.628293505 684.088583853 260.628293505 684.088583853 260.491210938 683.482421875 c 0,65,66
 215 483.720987594 215 483.720987594 215 332 c 0,67,68
 215 300.244218659 215 300.244218659 217.041015625 270.436523438 c 1,69,70
 223.841390578 290.186960953 223.841390578 290.186960953 227.131835938 299.692382812 c 0,71,72
 227.429011322 300.551063264 227.429011322 300.551063264 227.788085938 301.356445312 c 0,73,74
 235.722872048 319.21011088 235.722872048 319.21011088 255.029296875 326.323242188 c 0,75,76
 276.304312509 334.160261668 276.304312509 334.160261668 296.131835938 323.145507812 c 0,77,78
 297.029778455 322.64750215 297.029778455 322.64750215 297.879882812 322.080078125 c 0,79,80
 313.282953931 311.81325742 313.282953931 311.81325742 319.759765625 293.998046875 c 0,81,82
 325.983162237 276.88521526 325.983162237 276.88521526 321.279296875 259.63671875 c 0,83,84
 321.113674928 259.029954232 321.113674928 259.029954232 320.9140625 258.44140625 c 0,85,86
 278.360647488 132.758496338 278.360647488 132.758496338 264.541015625 61.68359375 c 0,87,88
 259 38.5989447337 259 38.5989447337 259 26 c 0,89,90
 259 -1.25732421875 259 -1.25732421875 246.509765625 -16.8701171875 c 0,91,92
 231.558542605 -36.8045394438 231.558542605 -36.8045394438 205.6640625 -40.2568359375 c 0,93,94
 180.566305069 -43.6044936364 180.566305069 -43.6044936364 159.305664062 -29.703125 c 0,95,96
 138.843734549 -16.3244553454 138.843734549 -16.3244553454 132.712890625 6.6650390625 c 0,97,98
 89 165.251750632 89 165.251750632 89 299 c 0,99,100
 89 346.538574219 89 346.538574219 91.529296875 393.587890625 c 128,-1,101
 94.0591685024 440.65608641 94.0591685024 440.65608641 99.626953125 490.26171875 c 0,102,103
 105.144993665 539.428310693 105.144993665 539.428310693 108.66796875 566.607421875 c 128,-1,104
 112.199942518 593.846785213 112.199942518 593.846785213 119.724609375 644.010742188 c 0,105,106
 127.039493067 692.770350449 127.039493067 692.770350449 128.272460938 699.346679688 c 0,107,108
 130.112699098 712.51091967 130.112699098 712.51091967 131.040039062 728.268554688 c 0,52,53
639.237304688 668.896484375 m 2,109,110
 635.935051692 692.012255342 635.935051692 692.012255342 650.293945312 709.749023438 c 0,111,112
 658.316759187 719.659090596 658.316759187 719.659090596 669.706054688 724.731445312 c 0,113,114
 680.412192381 729.5 680.412192381 729.5 693 729.5 c 2,115,-1
 718 729.5 l 2,116,117
 743.88280933 729.5 743.88280933 729.5 760.885742188 710.70703125 c 0,118,119
 776.060219812 693.935851369 776.060219812 693.935851369 775 671.28125 c 2,120,-1
 775 648 l 1,121,-1
 775 642.897460938 l 2,122,123
 776.629188058 623.898150847 776.629188058 623.898150847 776.931640625 583.622070312 c 1,124,125
 854.765419364 591.364311325 854.765419364 591.364311325 887.864257812 598.8125 c 0,126,127
 913.404649508 604.705854152 913.404649508 604.705854152 934.28515625 588.571289062 c 0,128,129
 954 573.337227355 954 573.337227355 954 549 c 2,130,-1
 954 535 l 2,131,132
 954 512.500558685 954 512.500558685 939.146484375 494.674804688 c 0,133,134
 919.001486183 469.494057519 919.001486183 469.494057519 892.165039062 471.55859375 c 0,135,136
 832.860544761 474.853369448 832.860544761 474.853369448 778 463.561523438 c 1,137,-1
 778 453 l 2,138,139
 778 404.82159953 778 404.82159953 777.49609375 379.595703125 c 128,-1,140
 776.992574037 354.416798518 776.992574037 354.416798518 775.486328125 313.259765625 c 0,141,142
 773.944848162 271.131903035 773.944848162 271.131903035 770.278320312 246.510742188 c 0,143,144
 766.753642954 222.840685527 766.753642954 222.840685527 760.708007812 187.569335938 c 0,145,146
 754.289612248 150.134688045 754.289612248 150.134688045 743.801757812 125.849609375 c 0,147,148
 734.104999545 103.391510167 734.104999545 103.391510167 719.865234375 74.4013671875 c 0,149,150
 704.698863339 43.5291919461 704.698863339 43.5291919461 684.966796875 19.9609375 c 0,151,152
 666.075785985 -2.60485445359 666.075785985 -2.60485445359 640.473632812 -26.6396484375 c 0,153,154
 606.303534641 -58.1815055756 606.303534641 -58.1815055756 582.272460938 -73.4736328125 c 0,155,156
 562.730953241 -85.5 562.730953241 -85.5 541 -85.5 c 2,157,-1
 538 -85.5 l 2,158,159
 537.132061298 -85.5 537.132061298 -85.5 536.268554688 -85.4462890625 c 0,160,161
 512.304161023 -83.9476920577 512.304161023 -83.9476920577 493.391601562 -68.81640625 c 2,162,-1
 473.391601562 -52.81640625 l 2,163,164
 453.58828073 -36.9754026158 453.58828073 -36.9754026158 456.670898438 -14.3720703125 c 0,165,166
 459.530129176 8.50824443956 459.530129176 8.50824443956 480.926757812 20.1787109375 c 0,167,168
 512.488876697 37.8170240067 512.488876697 37.8170240067 543.553710938 65.115234375 c 0,169,170
 573.145531371 91.0089864963 573.145531371 91.0089864963 592.934570312 121.381835938 c 0,171,172
 613.165313541 152.434451145 613.165313541 152.434451145 624.3515625 181.796875 c 0,173,174
 635.453720823 210.941560609 635.453720823 210.941560609 641.150390625 257.46484375 c 0,175,176
 647.045273022 305.609303031 647.045273022 305.609303031 648.514648438 344.759765625 c 0,177,178
 650 384.395199424 650 384.395199424 650 453 c 2,179,-1
 650 453.963867188 l 1,180,181
 591.523253154 452.5 591.523253154 452.5 559 452.5 c 0,182,183
 505.244720085 452.5 505.244720085 452.5 429.337890625 456.549804688 c 0,184,185
 403.802040896 458.250147825 403.802040896 458.250147825 386.537109375 476.337890625 c 0,186,187
 370 493.66212578 370 493.66212578 370 517 c 2,188,-1
 370 528 l 2,189,190
 370 551.6424935 370 551.6424935 388.258789062 567.293945312 c 0,191,192
 406.845216863 583.224503121 406.845216863 583.224503121 432.405273438 581.399414062 c 0,193,194
 509.153787867 573.528176167 509.153787867 573.528176167 557.420898438 574.494140625 c 0,195,196
 618.847756605 575.773655994 618.847756605 575.773655994 647.893554688 576.248046875 c 1,197,198
 644.357332243 635.833971003 644.357332243 635.833971003 643.353515625 644.231445312 c 2,199,-1
 643.276367188 644.662109375 l 1,200,-1
 639.237304688 668.896484375 l 2,109,110
EndSplineSet
Ligature2: "'ccmp' Glyph Composition/Decomposition lookup 5 subtable" cid01469 cid01539
EndChar

StartChar: cid01472
Encoding: 12372 12372 4
Width: 1024
GlyphClass: 3
Flags: W
LayerCount: 2
Fore
SplineSet
725.958984375 719.751953125 m 0,0,1
 702.386386287 769.269234644 702.386386287 769.269234644 676.6875 797.833007812 c 0,2,3
 661.139727647 815.326396348 661.139727647 815.326396348 671.489257812 844.799804688 c 0,4,5
 680.544456063 867.212568038 680.544456063 867.212568038 703.163085938 879.369140625 c 0,6,7
 724.500590922 891.293135012 724.500590922 891.293135012 746.166015625 891.923828125 c 0,8,9
 746.948643363 891.945439147 746.948643363 891.945439147 747.7265625 891.924804688 c 0,10,11
 775.779515942 891.164068298 775.779515942 891.164068298 791.119140625 871.325195312 c 0,12,13
 812.592769315 845.408649929 812.592769315 845.408649929 846.641601562 785.826171875 c 0,14,15
 858.395196262 765.252711732 858.395196262 765.252711732 846.51171875 740.17578125 c 0,16,17
 836.59183835 718.461397383 836.59183835 718.461397383 814.00390625 705.848632812 c 0,18,19
 790.125968365 691.686721325 790.125968365 691.686721325 766.162109375 694.249023438 c 0,20,21
 765.458557151 694.323967044 765.458557151 694.323967044 764.751953125 694.436523438 c 0,22,23
 736.912390883 698.873029877 736.912390883 698.873029877 725.958984375 719.751953125 c 0,0,1
865.168945312 812.194335938 m 0,24,25
 854.967613401 830.16417984 854.967613401 830.16417984 863.283203125 852.615234375 c 0,26,27
 870.863250804 873.081967337 870.863250804 873.081967337 890.19921875 885.456054688 c 0,28,29
 916.562162982 901.680267299 916.562162982 901.680267299 941.227539062 901.109375 c 0,30,31
 968.688170117 899.944416644 968.688170117 899.944416644 983.600585938 880.107421875 c 0,32,33
 1005.51258116 849.491089153 1005.51258116 849.491089153 1038.25390625 795.40234375 c 0,34,35
 1052.43883541 772.118910806 1052.43883541 772.118910806 1035.43359375 745.403320312 c 0,36,37
 1023.42871803 725.95125479 1023.42871803 725.95125479 1004.14453125 714.646484375 c 0,38,39
 983.424151597 702.5 983.424151597 702.5 962 702.5 c 0,40,41
 935.873159302 702.5 935.873159302 702.5 919.5703125 726.86328125 c 0,42,43
 888.250494753 771.865405856 888.250494753 771.865405856 865.168945312 812.194335938 c 0,24,25
257.944335938 597.575195312 m 0,44,45
 232.800655901 599.252345585 232.800655901 599.252345585 215.537109375 617.337890625 c 0,46,47
 199 634.66212578 199 634.66212578 199 658 c 2,48,-1
 199 671 l 2,49,50
 199 694.285310843 199 694.285310843 216.775390625 710.368164062 c 0,51,52
 235.439452562 727.254771527 235.439452562 727.254771527 261.3984375 725.399414062 c 0,53,54
 358.40832471 715.5 358.40832471 715.5 493 715.5 c 0,55,56
 600.813604202 715.5 600.813604202 715.5 728.641601562 726.400390625 c 0,57,58
 729.816992188 726.5 729.816992188 726.5 731 726.5 c 2,59,-1
 734 726.5 l 2,60,61
 756.265447841 726.5 756.265447841 726.5 772.66796875 711.918945312 c 0,62,63
 791 695.253874904 791 695.253874904 791 672 c 2,64,-1
 791 659 l 2,65,66
 791 635.662571595 791 635.662571595 774.462890625 618.336914062 c 0,67,68
 757.197897522 600.252101291 757.197897522 600.252101291 731.905273438 598.565429688 c 0,69,70
 589.997408902 588.5 589.997408902 588.5 493 588.5 c 0,71,72
 368.865012472 588.5 368.865012472 588.5 257.944335938 597.575195312 c 0,44,45
150.427734375 275.146484375 m 0,73,74
 155.093725065 298.474891771 155.093725065 298.474891771 176.033203125 312.040039062 c 0,75,76
 193.943741855 324.5 193.943741855 324.5 214 324.5 c 2,77,-1
 219 324.5 l 2,78,79
 221.292917352 324.5 221.292917352 324.5 223.552734375 324.124023438 c 2,80,-1
 234.446289062 322.307617188 l 2,81,82
 245.043451236 321.250363069 245.043451236 321.250363069 253.768554688 316.971679688 c 0,83,84
 266.266208067 310.84225733 266.266208067 310.84225733 274.060546875 298.889648438 c 0,85,86
 286.436266097 279.913444497 286.436266097 279.913444497 281.435546875 258.243164062 c 0,87,88
 271 216.49810926 271 216.49810926 271 182 c 0,89,90
 271 135.245828282 271 135.245828282 320.575195312 106.39453125 c 0,91,92
 375.377460854 74.5 375.377460854 74.5 485 74.5 c 0,93,94
 667.778072871 74.5 667.778072871 74.5 791.721679688 103.779296875 c 0,95,96
 816.948794582 109.600240777 816.948794582 109.600240777 837.712890625 94.5009765625 c 0,97,98
 858 79.7457376145 858 79.7457376145 858 56 c 2,99,-1
 858 40 l 2,100,101
 858 17.0418420904 858 17.0418420904 844.134765625 -1.203125 c 0,102,103
 829.05944802 -21.0372373742 829.05944802 -21.0372373742 804.6640625 -25.916015625 c 0,104,105
 673.992334879 -54.5 673.992334879 -54.5 487 -54.5 c 0,106,107
 324.493364702 -54.5 324.493364702 -54.5 233.2265625 -0.27734375 c 0,108,109
 137 56.8935148303 137 56.8935148303 137 164 c 0,110,111
 137 213.175611972 137 213.175611972 150.427734375 275.146484375 c 0,73,74
EndSplineSet
Ligature2: "'ccmp' Glyph Composition/Decomposition lookup 5 subtable" cid01471 cid01539
EndChar

StartChar: cid01474
Encoding: 12374 12374 5
Width: 1024
GlyphClass: 3
Flags: W
LayerCount: 2
Fore
SplineSet
736.009765625 712.655273438 m 0,0,1
 705.515302306 775.075725694 705.515302306 775.075725694 683.768554688 798.741210938 c 0,2,3
 668.140320583 816.327662434 668.140320583 816.327662434 678.489257812 845.799804688 c 0,4,5
 687.545921913 868.212645373 687.545921913 868.212645373 710.163085938 880.369140625 c 0,6,7
 731.500267518 892.294561484 731.500267518 892.294561484 753.166015625 892.923828125 c 0,8,9
 753.957489014 892.947244497 753.957489014 892.947244497 754.7265625 892.924804688 c 0,10,11
 783.853550461 892.134817709 783.853550461 892.134817709 798.608398438 871.639648438 c 0,12,13
 825.724422782 833.18240905 825.724422782 833.18240905 856.651367188 778.80859375 c 0,14,15
 868.395311179 758.253351622 868.395311179 758.253351622 856.51171875 733.17578125 c 0,16,17
 846.588810412 711.457823004 846.588810412 711.457823004 824.002929688 698.848632812 c 0,18,19
 800.125920653 684.686580767 800.125920653 684.686580767 776.162109375 687.249023438 c 0,20,21
 775.458557151 687.323967044 775.458557151 687.323967044 774.751953125 687.436523438 c 0,22,23
 746.911973339 691.873377106 746.911973339 691.873377106 736.009765625 712.655273438 c 0,0,1
864.010742188 812.474609375 m 0,24,25
 853.968039772 830.162900496 853.968039772 830.162900496 862.283203125 852.615234375 c 0,26,27
 869.863250804 873.081967337 869.863250804 873.081967337 889.19921875 885.456054688 c 0,28,29
 915.561180558 901.679910616 915.561180558 901.679910616 940.15625 901.111328125 c 0,30,31
 970.451859215 899.980437383 970.451859215 899.980437383 983.625 878.598632812 c 0,32,33
 1013.49032049 830.303609285 1013.49032049 830.303609285 1040.17675781 787.528320312 c 0,34,35
 1054.43929117 764.117794547 1054.43929117 764.117794547 1037.43359375 737.404296875 c 0,36,37
 1025.42916308 717.951515685 1025.42916308 717.951515685 1006.14453125 706.646484375 c 0,38,39
 985.424151597 694.5 985.424151597 694.5 964 694.5 c 0,40,41
 937.871964759 694.5 937.871964759 694.5 921.358398438 719.180664062 c 0,42,43
 877.894666668 786.452974555 877.894666668 786.452974555 864.010742188 812.474609375 c 0,24,25
700.16015625 83.2978515625 m 0,44,45
 729.541617152 89.1580882997 729.541617152 89.1580882997 749.21875 73.228515625 c 0,46,47
 768 58.0242962384 768 58.0242962384 768 34 c 2,48,-1
 768 20 l 2,49,50
 768 -2.49932400859 768 -2.49932400859 753 -20.4990234375 c 0,51,52
 737.267156186 -39.3796244072 737.267156186 -39.3796244072 710.912109375 -43.2333984375 c 0,53,54
 603.799235823 -61.5 603.799235823 -61.5 476 -61.5 c 0,55,56
 327.428366989 -61.5 327.428366989 -61.5 244.16015625 -3.2666015625 c 0,57,58
 158 56.9886659918 158 56.9886659918 158 164 c 0,59,60
 158 216.288262158 158 216.288262158 177.516601562 289.599609375 c 0,61,62
 182.745048767 312.979216089 182.745048767 312.979216089 202.756835938 326.833984375 c 0,63,64
 223.455387822 341.161995482 223.455387822 341.161995482 248.921875 338.357421875 c 2,65,-1
 261.129882812 337.41796875 l 2,66,67
 287.182539058 335.413802268 287.182539058 335.413802268 300.694335938 314.182617188 c 0,68,69
 312.876141626 295.038927445 312.876141626 295.038927445 306.120117188 273.081054688 c 0,70,71
 290 219.033455412 290 219.033455412 290 184 c 0,72,73
 290 123.310637916 290 123.310637916 333.864033167 93.9053189578 c 128,-1,74
 377.728066333 64.5 377.728066333 64.5 477 64.5 c 0,75,76
 603.767424209 64.5 603.767424209 64.5 700.16015625 83.2978515625 c 0,44,45
809.30859375 708.409179688 m 0,77,78
 835.157441197 715.793461454 835.157441197 715.793461454 857.259765625 701.981445312 c 0,79,80
 877.621367052 689.254529079 877.621367052 689.254529079 882.614257812 665.948242188 c 2,81,-1
 884.671875 654.6328125 l 2,82,83
 885 652.828888081 885 652.828888081 885 651 c 2,84,-1
 885 644 l 2,85,86
 885 627.529420518 885 627.529420518 875.676757812 612.768554688 c 0,87,88
 862.227942613 591.992539485 862.227942613 591.992539485 837.03125 585.90625 c 0,89,90
 768.997492999 568.924720472 768.997492999 568.924720472 709.608398438 557.619140625 c 1,91,92
 769.052345145 426.96392148 769.052345145 426.96392148 818.896484375 330.044921875 c 0,93,94
 827.58351014 311.222573816 827.58351014 311.222573816 824.833007812 289.904296875 c 0,95,96
 821.913589401 267.280340724 821.913589401 267.280340724 805.806640625 251.171875 c 0,97,98
 780.537800943 224.5 780.537800943 224.5 743 224.5 c 0,99,100
 735.027025872 224.5 735.027025872 224.5 725.795898438 225.819335938 c 0,101,102
 659.598667975 236.686726845 659.598667975 236.686726845 585.092773438 245.53125 c 0,103,104
 559.962586293 248.211191493 559.962586293 248.211191493 544.869140625 266.658203125 c 128,-1,105
 529.925699054 284.92341153 529.925699054 284.92341153 533.204101562 307.869140625 c 0,106,107
 536.429063062 330.442303325 536.429063062 330.442303325 554.71484375 344.571289062 c 0,108,109
 573.608962009 359.170230392 573.608962009 359.170230392 597.9765625 357.4296875 c 0,110,111
 598.61405263 357.384815622 598.61405263 357.384815622 599.241210938 357.310546875 c 0,112,113
 616.052491312 355.332141699 616.052491312 355.332141699 653.442382812 351.34375 c 0,114,115
 661.267708723 350.509354338 661.267708723 350.509354338 666.349609375 349.98046875 c 1,116,117
 654.563978576 374.956771298 654.563978576 374.956771298 634.47265625 417.740234375 c 0,118,119
 597.539576031 496.385039516 597.539576031 496.385039516 578.984375 537.918945312 c 1,120,121
 485.073760905 527.5 485.073760905 527.5 381 527.5 c 0,122,123
 292.980781136 527.5 292.980781136 527.5 197.056640625 534.567382812 c 0,124,125
 171.801300705 536.251669935 171.801300705 536.251669935 154.537109375 554.337890625 c 0,126,127
 138.484634758 571.154021113 138.484634758 571.154021113 138.005859375 595.015625 c 2,128,-1
 137.083007812 605.165039062 l 2,129,130
 137 606.081199363 137 606.081199363 137 607 c 0,131,132
 137 628.966407473 137 628.966407473 153.8515625 644.973632812 c 0,133,134
 172.068035137 662.280545096 172.068035137 662.280545096 197.978515625 660.4296875 c 0,135,136
 198.531675285 660.390067249 198.531675285 660.390067249 199.09375 660.327148438 c 0,137,138
 295.554199021 649.5 295.554199021 649.5 390 649.5 c 0,139,140
 458.831218136 649.5 458.831218136 649.5 527.326171875 654.854492188 c 1,141,-1
 505.865234375 702.47265625 l 2,142,143
 489.213069609 738.715689656 489.213069609 738.715689656 481.329101562 755.482421875 c 0,144,145
 470.962011153 776.010696808 470.962011153 776.010696808 480.388671875 796.580078125 c 0,146,147
 491.075971807 819.894502085 491.075971807 819.894502085 516.248046875 824.090820312 c 2,148,-1
 537.147460938 827.890625 l 2,149,150
 544.503122623 829.5 544.503122623 829.5 551 829.5 c 0,151,152
 567.477923781 829.5 567.477923781 829.5 583.141601562 821.668945312 c 0,153,154
 584.160487744 821.159502222 584.160487744 821.159502222 585.110351562 820.573242188 c 0,155,156
 604.528141335 808.624624179 604.528141335 808.624624179 613.325195312 788.09765625 c 0,157,158
 613.530413196 787.619317507 613.530413196 787.619317507 613.716796875 787.115234375 c 0,159,160
 631.653413788 738.689020748 631.653413788 738.689020748 658.6875 671.97265625 c 1,161,162
 736.871072433 686.946210409 736.871072433 686.946210409 809.30859375 708.409179688 c 0,77,78
EndSplineSet
Ligature2: "'ccmp' Glyph Composition/Decomposition lookup 5 subtable" cid01473 cid01539
EndChar

StartChar: cid01476
Encoding: 12376 12376 6
Width: 1024
GlyphClass: 3
Flags: W
LayerCount: 2
Fore
SplineSet
564.40625 534.993164062 m 0,0,1
 523.234744332 617.811798764 523.234744332 617.811798764 511.986328125 629.14453125 c 0,2,3
 511.517248019 629.618397887 511.517248019 629.618397887 511.108398438 630.079101562 c 0,4,5
 495.607518427 647.520174672 495.607518427 647.520174672 505.956054688 676.993164062 c 0,6,7
 515.011117579 699.407026961 515.011117579 699.407026961 537.62890625 711.564453125 c 0,8,9
 558.966293264 723.487105714 558.966293264 723.487105714 580.629882812 724.119140625 c 0,10,11
 581.424824792 724.142567206 581.424824792 724.142567206 582.196289062 724.120117188 c 0,12,13
 611.321119402 723.327330572 611.321119402 723.327330572 626.108398438 702.788085938 c 0,14,15
 629.194190745 698.362777527 629.194190745 698.362777527 685.095703125 601.04296875 c 0,16,17
 696.862593085 580.445916884 696.862593085 580.445916884 684.978515625 555.370117188 c 0,18,19
 675.057679254 533.653640723 675.057679254 533.653640723 652.470703125 521.04296875 c 0,20,21
 628.593316183 506.881384025 628.593316183 506.881384025 604.62890625 509.442382812 c 0,22,23
 603.772300305 509.534326205 603.772300305 509.534326205 602.920898438 509.6796875 c 0,24,25
 577.378357968 514.037921499 577.378357968 514.037921499 565.434570312 533.155273438 c 0,26,27
 564.878707578 534.046176725 564.878707578 534.046176725 564.40625 534.993164062 c 0,0,1
713.08984375 643.629882812 m 0,28,29
 701.968322527 661.296703215 701.968322527 661.296703215 710.865234375 685.155273438 c 0,30,31
 718.262998294 705.386531016 718.262998294 705.386531016 737.689453125 717.665039062 c 0,32,33
 763.358071738 733.585297323 763.358071738 733.585297323 788.634765625 733.309570312 c 0,34,35
 819.193025582 731.768716888 819.193025582 731.768716888 832.088867188 710.77734375 c 0,36,37
 853.123210551 676.488880554 853.123210551 676.488880554 890.111328125 609.926757812 c 0,38,39
 903.437038541 586.2808135 903.437038541 586.2808135 887.01171875 560.791992188 c 0,40,41
 874.833445339 541.21810657 874.833445339 541.21810657 855.614257812 529.841796875 c 0,42,43
 834.183745059 517.394192056 834.183745059 517.394192056 813.454101562 517.69140625 c 0,44,45
 783.660614575 517.291901688 783.660614575 517.291901688 769.409179688 544.822265625 c 0,46,47
 734.645913202 608.880240365 734.645913202 608.880240365 713.08984375 643.629882812 c 0,28,29
213.184570312 751.267578125 m 0,48,49
 209.884683395 774.36837609 209.884683395 774.36837609 225.205078125 792.243164062 c 0,50,51
 241.711393866 811.5 241.711393866 811.5 268 811.5 c 2,52,-1
 300 811.5 l 2,53,54
 326.232586241 811.5 326.232586241 811.5 343.23828125 791.80859375 c 0,55,56
 358.595014632 774.02726509 358.595014632 774.02726509 355.809570312 750.083007812 c 0,57,58
 352.91766441 720.955898006 352.91766441 720.955898006 350.978515625 686.055664062 c 0,59,60
 338 342.61830967 338 342.61830967 338 180 c 0,61,62
 338 112.271739331 338 112.271739331 374.875976562 83.5009765625 c 0,63,64
 413.328932076 53.5 413.328932076 53.5 480 53.5 c 0,65,66
 588.493111985 53.5 588.493111985 53.5 664.729492188 98.779296875 c 0,67,68
 743.049437602 145.296410215 743.049437602 145.296410215 802.166992188 224.438476562 c 0,69,70
 817.484615221 245.5 817.484615221 245.5 844.5 245.5 c 0,71,72
 856.288179732 245.5 856.288179732 245.5 866.3828125 241.25 c 0,73,74
 878.176019244 236.285551756 878.176019244 236.285551756 886.288085938 226.147460938 c 2,75,-1
 898.423828125 210.978515625 l 2,76,77
 913 192.02861481 913 192.02861481 913 169 c 0,78,79
 913 147.117161931 913 147.117161931 899.48828125 129.100585938 c 0,80,81
 734.757814254 -75.5 734.757814254 -75.5 477 -75.5 c 0,82,83
 345.00813506 -75.5 345.00813506 -75.5 275.50406753 -11.6443044969 c 128,-1,84
 206 52.2113910062 206 52.2113910062 206 173 c 0,85,86
 206 254.275367231 206 254.275367231 211.5078125 447.078125 c 0,87,88
 217 639.28273046 217 639.28273046 217 687 c 0,89,90
 217 721.700932993 217 721.700932993 213.184570312 751.267578125 c 0,48,49
EndSplineSet
Ligature2: "'ccmp' Glyph Composition/Decomposition lookup 5 subtable" cid01475 cid01539
EndChar

StartChar: cid01478
Encoding: 12378 12378 7
Width: 1024
GlyphClass: 3
Flags: W
LayerCount: 2
Fore
SplineSet
721.939453125 701.799804688 m 0,0,1
 680.768920074 784.616482919 680.768920074 784.616482919 669.51953125 795.950195312 c 0,2,3
 669.068298476 796.406032503 669.068298476 796.406032503 668.641601562 796.884765625 c 0,4,5
 653.140721552 814.325838734 653.140721552 814.325838734 663.489257812 843.798828125 c 0,6,7
 672.544219696 866.212441001 672.544219696 866.212441001 695.163085938 878.369140625 c 0,8,9
 716.498926027 890.293102781 716.498926027 890.293102781 738.1640625 890.923828125 c 0,10,11
 738.939575457 890.946682141 738.939575457 890.946682141 739.727539062 890.92578125 c 0,12,13
 768.855383105 890.132958322 768.855383105 890.132958322 783.641601562 869.59375 c 0,14,15
 786.729681613 865.165915973 786.729681613 865.165915973 842.62890625 767.848632812 c 0,16,17
 854.395329661 747.252397606 854.395329661 747.252397606 842.51171875 722.17578125 c 0,18,19
 832.59183835 700.461397383 832.59183835 700.461397383 810.00390625 687.848632812 c 0,20,21
 786.125968365 673.686721325 786.125968365 673.686721325 762.162109375 676.249023438 c 0,22,23
 761.314030209 676.338534476 761.314030209 676.338534476 760.454101562 676.485351562 c 0,24,25
 734.910410947 680.845426498 734.910410947 680.845426498 722.967773438 699.9609375 c 0,26,27
 722.409212346 700.856165551 722.409212346 700.856165551 721.939453125 701.799804688 c 0,0,1
860.137695312 811.25 m 0,28,29
 849.968050149 829.165013982 849.968050149 829.165013982 858.283203125 851.615234375 c 0,30,31
 865.862763361 872.080651202 865.862763361 872.080651202 885.19921875 884.45703125 c 0,32,33
 911.56274214 900.679874516 911.56274214 900.679874516 936.15625 900.111328125 c 0,34,35
 967.744376366 898.931275504 967.744376366 898.931275504 980.270507812 876.459960938 c 0,36,37
 998.336061241 841.137867849 998.336061241 841.137867849 1037.23730469 777.428710938 c 0,38,39
 1051.43862294 754.119092531 1051.43862294 754.119092531 1034.43359375 727.403320312 c 0,40,41
 1022.42871803 707.95125479 1022.42871803 707.95125479 1003.14453125 696.646484375 c 0,42,43
 982.424151597 684.5 982.424151597 684.5 961 684.5 c 0,44,45
 932.04389575 684.5 932.04389575 684.5 916.98046875 711.50390625 c 0,46,47
 880.518385516 775.150868985 880.518385516 775.150868985 860.137695312 811.25 c 0,28,29
462 250.5 m 0,48,49
 494.143559999 250.5 494.143559999 250.5 511.779296875 275.89453125 c 0,50,51
 528 299.415987937 528 299.415987937 528 342 c 0,52,53
 528 353.447270484 528 353.447270484 526.236328125 364.9140625 c 0,54,55
 526 366.444858871 526 366.444858871 526 368 c 0,56,57
 525.753964517 368.705890373 525.753964517 368.705890373 525.572265625 369.147460938 c 0,58,59
 519.015570783 384.992969229 519.015570783 384.992969229 510.159842678 394.532584755 c 128,-1,60
 501.304114573 404.072200281 501.304114573 404.072200281 489.697579197 408.286100141 c 128,-1,61
 478.091043821 412.5 478.091043821 412.5 462 412.5 c 0,62,63
 430.886923305 412.5 430.886923305 412.5 407.802734375 390.172851562 c 0,64,65
 384 367.151391825 384 367.151391825 384 329 c 0,66,67
 384 292.199579499 384 292.199579499 406.838867188 271.262695312 c 128,-1,68
 429.489983127 250.5 429.489983127 250.5 462 250.5 c 0,48,49
631.182617188 690.4609375 m 1,69,-1
 876.0546875 689.5 l 2,70,71
 902.49855821 689.5 902.49855821 689.5 919.981445312 671.142578125 c 0,72,73
 936 654.322069437 936 654.322069437 936 631 c 2,74,-1
 936 625 l 2,75,76
 936 602.051125909 936 602.051125909 918.669921875 585.544921875 c 0,77,78
 900.769660454 568.5 900.769660454 568.5 875 568.5 c 0,79,80
 874.420247396 568.5 874.420247396 568.5 873.819335938 568.525390625 c 0,81,82
 784.077651061 572.343560821 784.077651061 572.343560821 631.473632812 572.495117188 c 1,83,84
 633 509.610791794 633 509.610791794 633 433 c 0,85,86
 633 416 633 416 649 371 c 128,-1,87
 665 326 665 326 665 299 c 0,88,89
 665 244.271443936 665 244.271443936 651.274414062 194.119140625 c 0,90,91
 637.491248465 143.755724562 637.491248465 143.755724562 606.91015625 93.6650390625 c 0,92,93
 575.569217893 42.3293681314 575.569217893 42.3293681314 517.299804688 -0.4375 c 0,94,95
 459.836029935 -42.6122533006 459.836029935 -42.6122533006 381.325195312 -70.8759765625 c 0,96,97
 365.859933832 -76.5 365.859933832 -76.5 352 -76.5 c 0,98,99
 318.866210938 -76.5 318.866210938 -76.5 294.41796875 -52.0517578125 c 2,100,-1
 275.41796875 -33.0517578125 l 2,101,102
 257.015869141 -14.6496582031 257.015869141 -14.6496582031 264.467773438 7.7060546875 c 0,103,104
 271.535464041 30.9289746804 271.535464041 30.9289746804 295.64453125 37.50390625 c 0,105,106
 454.373525281 82.167994052 454.373525281 82.167994052 495.813476562 139.670898438 c 1,107,108
 473.686901635 134.5 473.686901635 134.5 450 134.5 c 0,109,110
 371.408624039 134.5 371.408624039 134.5 314.541992188 187.346679688 c 0,111,112
 258 239.890126931 258 239.890126931 258 328 c 0,113,114
 258 410.819534997 258 410.819534997 317.658203125 468.7890625 c 0,115,116
 378.079458737 527.5 378.079458737 527.5 462 527.5 c 0,117,118
 479.338588379 527.5 479.338588379 527.5 503.725585938 522.888671875 c 1,119,-1
 503.193359375 571.297851562 l 1,120,121
 282.912107063 568.911765458 282.912107063 568.911765458 112.994140625 556.571289062 c 0,122,123
 87.7889944535 554.771766424 87.7889944535 554.771766424 68.6318359375 571.315429688 c 0,124,125
 49 588.495242118 49 588.495242118 49 612 c 2,126,-1
 49 621 l 2,127,128
 49 644.325001627 49 644.325001627 65.0185546875 661.142578125 c 0,129,130
 82.5005297482 679.5 82.5005297482 679.5 108.5 679.5 c 0,131,132
 122.664488604 679.5 122.664488604 679.5 281.8046875 683.491210938 c 0,133,134
 447.809675187 687.650402181 447.809675187 687.650402181 501.688476562 688.987304688 c 1,135,136
 501.599515582 691.869358041 501.599515582 691.869358041 501.512695312 694.27734375 c 0,137,138
 501 708.637245024 501 708.637245024 501 718 c 0,139,140
 501 725.3203125 501 725.3203125 500.276367188 729.662109375 c 0,141,142
 500 731.3203125 500 731.3203125 500 733 c 0,143,144
 500 744.743994141 500 744.743994141 498.15625 759.485351562 c 0,145,146
 498.088168607 760.034752572 498.088168607 760.034752572 498.051757812 760.556640625 c 0,147,148
 496.446141037 783.024416239 496.446141037 783.024416239 511.205078125 800.2421875 c 0,149,150
 527.71086185 819.5 527.71086185 819.5 554 819.5 c 2,151,-1
 577 819.5 l 2,152,153
 602.88280933 819.5 602.88280933 819.5 619.885742188 800.70703125 c 0,154,155
 635.53890773 783.407532215 635.53890773 783.407532215 633.9296875 759.264648438 c 0,156,157
 632 740.938045282 632 740.938045282 632 733 c 0,158,159
 632 726.725438318 632 726.725438318 631.494140625 705.517578125 c 0,160,161
 631.305235091 697.563044316 631.305235091 697.563044316 631.182617188 690.4609375 c 1,69,-1
EndSplineSet
Ligature2: "'ccmp' Glyph Composition/Decomposition lookup 5 subtable" cid01477 cid01539
EndChar

StartChar: cid01480
Encoding: 12380 12380 8
Width: 1024
GlyphClass: 3
Flags: W
LayerCount: 2
Fore
SplineSet
778.770507812 819.770507812 m 0,0,1
 792.632919372 803.597000304 792.632919372 803.597000304 782.875 774.323242188 c 0,2,3
 776.242622056 755.753424017 776.242622056 755.753424017 760.916992188 739.790039062 c 0,4,5
 743.432506307 721.577990976 743.432506307 721.577990976 721.810546875 718.215820312 c 0,6,7
 685.428599562 712.523865836 685.428599562 712.523865836 671.329101562 733.032226562 c 0,8,9
 664.03114984 743.334084535 664.03114984 743.334084535 614.416992188 792.948242188 c 0,10,11
 598.205665811 809.161863323 598.205665811 809.161863323 606.9921875 837.278320312 c 0,12,13
 611.573905274 851.025447662 611.573905274 851.025447662 634.955078125 875.577148438 c 0,14,15
 659.651742637 901.91722718 659.651742637 901.91722718 684.1875 897.01171875 c 0,16,17
 699.285383842 894.266481353 699.285383842 894.266481353 709.037109375 887.393554688 c 0,18,19
 733.76186776 871.940580697 733.76186776 871.940580697 778.770507812 819.770507812 c 0,0,1
834.224609375 793.54296875 m 0,20,21
 817.493707905 805.49546662 817.493707905 805.49546662 819.046875 821.961914062 c 0,22,23
 820.540690104 830.924804687 820.540690104 830.924804687 823.157226562 838.774414062 c 0,24,25
 832.462943733 864.03102554 832.462943733 864.03102554 850.572265625 877.961914062 c 0,26,27
 856.461515402 882.673632998 856.461515402 882.673632998 864.572265625 887.40234375 c 0,28,29
 875.526872737 894.848648875 875.526872737 894.848648875 889.452148438 897.942382812 c 0,30,31
 917.996650988 903.296441593 917.996650988 903.296441593 936.34765625 889.0234375 c 0,32,33
 937.930212078 887.790693723 937.930212078 887.790693723 939.26171875 886.34375 c 2,34,-1
 995.9296875 824.704101562 l 2,35,36
 1004.60834482 816.026981645 1004.60834482 816.026981645 1006.72363281 803.336914062 c 0,37,38
 1007 801.678710937 1007 801.678710937 1007 800 c 0,39,40
 1007 787.769376414 1007 787.769376414 1003.22753906 777.322265625 c 0,41,42
 993.467790201 747.446055748 993.467790201 747.446055748 979.176757812 737.620117188 c 0,43,44
 972.350740118 732.927521633 972.350740118 732.927521633 966.559570312 728.357421875 c 0,45,46
 959.199607029 722.872396093 959.199607029 722.872396093 937.118164062 718.974609375 c 0,47,48
 923.106939635 716.172005871 923.106939635 716.172005871 910.741210938 719.935546875 c 128,-1,49
 898.294516175 723.724390933 898.294516175 723.724390933 885.890625 738.061523438 c 0,50,51
 843.823757194 786.346696415 843.823757194 786.346696415 834.224609375 793.54296875 c 0,20,21
628.033203125 675.818359375 m 0,52,53
 626.421794324 698.36225342 626.421794324 698.36225342 642.114257812 715.70703125 c 0,54,55
 659.115738297 734.5 659.115738297 734.5 685 734.5 c 2,56,-1
 701 734.5 l 2,57,58
 726.884261703 734.5 726.884261703 734.5 743.885742188 715.70703125 c 0,59,60
 759.577692693 698.363851037 759.577692693 698.363851037 757.961914062 675.74609375 c 0,61,62
 756.99160227 657.307132714 756.99160227 657.307132714 756 637.491210938 c 0,63,64
 755.987264307 622.177248097 755.987264307 622.177248097 755.497070312 599.166015625 c 2,65,-1
 755.27734375 580.434570312 l 1,66,67
 782.444774851 582.077562727 782.444774851 582.077562727 838.87109375 586.418945312 c 0,68,69
 865.215401396 588.44372146 865.215401396 588.44372146 883.305664062 589.448242188 c 0,70,71
 910.006464653 591.228710225 910.006464653 591.228710225 928.670898438 573.454101562 c 0,72,73
 946 556.948971414 946 556.948971414 946 534 c 2,74,-1
 946 524 l 2,75,76
 946 500.051342796 946 500.051342796 928.670898438 483.545898438 c 128,-1,77
 911.394347043 467.092755477 911.394347043 467.092755477 886.388671875 466.512695312 c 0,78,79
 882.63939869 466.477695267 882.63939869 466.477695267 866.291992188 466.010742188 c 0,80,81
 848.393282293 465.5 848.393282293 465.5 841.408203125 465.5 c 0,82,83
 779.670129431 463.685035987 779.670129431 463.685035987 752.55078125 462.571289062 c 1,84,85
 748.327001478 320.601012378 748.327001478 320.601012378 737.588867188 265.931640625 c 0,86,87
 728.777863589 224.398251837 728.777863589 224.398251837 703.272460938 206.686523438 c 0,88,89
 678.522653897 189.5 678.522653897 189.5 635 189.5 c 0,90,91
 602.174318364 189.5 602.174318364 189.5 532.336914062 198.743164062 c 0,92,93
 507.167573038 202.097613291 507.167573038 202.097613291 490.934570312 221.579101562 c 0,94,95
 477 238.608214052 477 238.608214052 477 262 c 2,96,-1
 477 264 l 2,97,98
 477 287.336247276 477 287.336247276 496.71484375 302.571289062 c 128,-1,99
 516.491657817 317.854366284 516.491657817 317.854366284 542.014648438 314.208007812 c 0,100,101
 580.062320133 308.5 580.062320133 308.5 604 308.5 c 0,102,103
 611.313565341 308.5 611.313565341 308.5 616.1484375 309.3203125 c 0,104,105
 616.815052773 311.78528859 616.815052773 311.78528859 617.178710938 314.692382812 c 0,106,107
 626.611065396 380.721762716 626.611065396 380.721762716 627.834960938 452.66796875 c 1,108,109
 410.454105444 434.759760356 410.454105444 434.759760356 354.859375 428.213867188 c 1,110,111
 354 336.216562047 354 336.216562047 354 281 c 0,112,113
 354 218.526367188 354 218.526367188 354.971679688 200.064453125 c 0,114,115
 355 199.548725329 355 199.548725329 355 199 c 0,116,117
 355 177.538945313 355 177.538945313 355.471679688 168.564453125 c 128,-1,118
 355.951853082 159.445688566 355.951853082 159.445688566 357.416992188 143.334960938 c 0,119,120
 358.682486569 129.411850107 358.682486569 129.411850107 360.30078125 124.884765625 c 0,121,122
 362.696064122 118.179480052 362.696064122 118.179480052 367.080078125 106.973632812 c 0,123,124
 368.668675236 102.914381504 368.668675236 102.914381504 370.166992188 101.040039062 c 0,125,126
 376.762069487 96.470221721 376.762069487 96.470221721 386.34765625 89.7607421875 c 0,127,128
 391.826913133 85.9265890658 391.826913133 85.9265890658 399.223632812 84.5029296875 c 0,129,130
 412.434842197 81.963381521 412.434842197 81.963381521 429.57421875 78.4326171875 c 0,131,132
 444.473324665 75.3666165264 444.473324665 75.3666165264 463.3203125 74.4677734375 c 0,133,134
 483.682028861 73.5 483.682028861 73.5 510 73.5 c 0,135,136
 648.032238687 73.5 648.032238687 73.5 772.08203125 91.22265625 c 0,137,138
 784.496978549 92.9953189486 784.496978549 92.9953189486 795.811523438 89.9072265625 c 0,139,140
 808.062516878 86.5623272711 808.062516878 86.5623272711 817.72265625 77.869140625 c 0,141,142
 836.497698448 60.8006347364 836.497698448 60.8006347364 834.955078125 37.65234375 c 2,143,-1
 833.958007812 22.6943359375 l 2,144,145
 832.505351163 -0.549758058387 832.505351163 -0.549758058387 817.850585938 -16.74609375 c 0,146,147
 801.099958809 -35.0921617766 801.099958809 -35.0921617766 774.697265625 -37.470703125 c 0,148,149
 636.949740087 -51.5 636.949740087 -51.5 514 -51.5 c 0,150,151
 453.49592877 -51.5 453.49592877 -51.5 410.509765625 -46.8388671875 c 0,152,153
 365.117954865 -41.9175497053 365.117954865 -41.9175497053 332.556640625 -28.4423828125 c 128,-1,154
 299.804292012 -14.8908370343 299.804292012 -14.8908370343 279.802734375 2.1689453125 c 0,155,156
 258.261894376 20.5422992478 258.261894376 20.5422992478 246.283203125 52.884765625 c 0,157,158
 235.459690826 82.1088364286 235.459690826 82.1088364286 231.662109375 111.939453125 c 0,159,160
 228.028811213 140.492531106 228.028811213 140.492531106 227.005859375 186.528320312 c 0,161,162
 226.05449485 227.434089963 226.05449485 227.434089963 226.002929688 414.206054688 c 1,163,-1
 146.3671875 405.702148438 l 2,164,165
 117.010395003 401.65875942 117.010395003 401.65875942 78.72265625 396.75 c 0,166,167
 53.400232813 393.131429476 53.400232813 393.131429476 32.9921875 409.1015625 c 0,168,169
 12.7637379707 425.284961152 12.7637379707 425.284961152 11.0595703125 447.446289062 c 2,170,-1
 10.0517578125 460.548828125 l 2,171,172
 8.46183178381 484.407117133 8.46183178381 484.407117133 24.1142578125 501.708007812 c 0,173,174
 40.4904132951 519.805468294 40.4904132951 519.805468294 66.18359375 520.500976562 c 0,175,176
 98.5493878794 522.4736129 98.5493878794 522.4736129 134.813476562 525.4140625 c 0,177,178
 147.562745301 526.393632058 147.562745301 526.393632058 183.857421875 529.874023438 c 0,179,180
 211.033122737 532.473273785 211.033122737 532.473273785 226.116210938 533.872070312 c 1,181,-1
 227 654.075195312 l 2,182,183
 227 663.499553634 227 663.499553634 225.036132812 702.772460938 c 0,184,185
 223.446482171 725.022815229 223.446482171 725.022815229 238.205078125 742.243164062 c 0,186,187
 254.711393866 761.5 254.711393866 761.5 281 761.5 c 2,188,-1
 299 761.5 l 2,189,190
 325.882778139 761.5 325.882778139 761.5 343.180664062 742.381835938 c 0,191,192
 348.007867642 736.619884844 348.007867642 736.619884844 349.361693241 734.953838584 c 128,-1,193
 350.715518839 733.287792325 350.715518839 733.287792325 354.298338009 727.743966103 c 128,-1,194
 357.88115718 722.200139881 357.88115718 722.200139881 358.649630741 718.635838584 c 128,-1,195
 359.418104301 715.071537288 359.418104301 715.071537288 359.525494259 709.314012978 c 128,-1,196
 359.632884218 703.556488669 359.632884218 703.556488669 357.584960938 697.662109375 c 0,197,198
 357.229072374 686.903984011 357.229072374 686.903984011 356.999023438 656.845703125 c 2,199,-1
 356.158203125 546.614257812 l 1,200,201
 573.511531702 567.05895427 573.511531702 567.05895427 629 571.91015625 c 1,202,-1
 629 636 l 2,203,204
 629 654.537284282 629 654.537284282 628.033203125 675.818359375 c 0,52,53
EndSplineSet
Ligature2: "'ccmp' Glyph Composition/Decomposition lookup 5 subtable" cid01479 cid01539
EndChar

StartChar: cid01482
Encoding: 12382 12382 9
Width: 1024
GlyphClass: 3
Flags: W
LayerCount: 2
Fore
SplineSet
724.564453125 505.071289062 m 0,0,1
 695.555304533 564.016852231 695.555304533 564.016852231 675.53515625 585.661132812 c 0,2,3
 658.592560759 605.177649302 658.592560759 605.177649302 670.60546875 633.34765625 c 0,4,5
 679.632350023 655.291286943 679.632350023 655.291286943 702.000976562 667.220703125 c 0,6,7
 723.587555022 679.363657114 723.587555022 679.363657114 745.725585938 679.787109375 c 0,8,9
 747.882575851 679.758329194 747.882575851 679.758329194 755.20397833 680.273429721 c 128,-1,10
 762.525380809 680.788530247 762.525380809 680.788530247 766.561173648 680.506218107 c 128,-1,11
 770.596966487 680.223905966 770.596966487 680.223905966 777.028105527 677.338218539 c 128,-1,12
 783.459244567 674.452531112 783.459244567 674.452531112 788.805664062 668.524414062 c 0,13,14
 790.04824834 667.145635202 790.04824834 667.145635202 791.03125 665.6171875 c 0,15,16
 836.015841975 595.680640612 836.015841975 595.680640612 845.665039062 578.3359375 c 0,17,18
 858.242531651 555.014695247 858.242531651 555.014695247 845.666992188 525.764648438 c 0,19,20
 836.589209937 504.491519005 836.589209937 504.491519005 813.09375 490.83984375 c 0,21,22
 786.861381655 475.240502351 786.861381655 475.240502351 763.380859375 479.318359375 c 0,23,24
 733.988654287 484.036451234 733.988654287 484.036451234 724.564453125 505.071289062 c 0,0,1
857.737304688 600.521484375 m 0,25,26
 848.097434094 618.319729661 848.097434094 618.319729661 856.114257812 640.461914062 c 0,27,28
 863.950160169 661.161630786 863.950160169 661.161630786 883.041015625 673.309570312 c 0,29,30
 909.656607594 689.75508272 909.656607594 689.75508272 933.993164062 688.958984375 c 0,31,32
 965.756274742 688.070412214 965.756274742 688.070412214 977.905273438 665.981445312 c 0,33,34
 983.10844338 656.521633714 983.10844338 656.521633714 1030.89648438 580.55859375 c 0,35,36
 1045.57545471 557.260405335 1045.57545471 557.260405335 1028.32617188 530.345703125 c 0,37,38
 1016.47846564 510.997341953 1016.47846564 510.997341953 996.9765625 499.495117188 c 0,39,40
 976.519222312 487.578763149 976.519222312 487.578763149 954.817382812 487.346679688 c 0,41,42
 927.155293 487.674819933 927.155293 487.674819933 911.928710938 512.438476562 c 0,43,44
 867.861463728 581.512942741 867.861463728 581.512942741 857.737304688 600.521484375 c 0,25,26
281.000976562 659.572265625 m 0,45,46
 255.789705859 657.771566262 255.789705859 657.771566262 236.69140625 674.265625 c 0,47,48
 218.674673115 689.822514527 218.674673115 689.822514527 217.055664062 712.500976562 c 2,49,-1
 216.059570312 725.4453125 l 2,50,51
 216 726.216671675 216 726.216671675 216 727 c 0,52,53
 216 749.633789062 216 749.633789062 232.41796875 766.051757812 c 0,54,55
 250.674447586 784.308236648 250.674447586 784.308236648 277.24609375 782.41015625 c 0,56,57
 287.255037633 781.5 287.255037633 781.5 298 781.5 c 0,58,59
 307.841321918 781.5 307.841321918 781.5 318.694335938 782.404296875 c 0,60,61
 319.85203503 782.5 319.85203503 782.5 321 782.5 c 0,62,63
 360.398266802 782.5 360.398266802 782.5 475.298828125 787.473632812 c 0,64,65
 589.665876632 792.424870561 589.665876632 792.424870561 628.899414062 797.328125 c 0,66,67
 638.138252833 798.252675941 638.138252833 798.252675941 648.248046875 800.090820312 c 0,68,69
 656.708488196 801.5 656.708488196 801.5 666 801.5 c 0,70,71
 704.922675486 801.5 704.922675486 801.5 730.719726562 772.8359375 c 2,72,-1
 736.065429688 766.421875 l 2,73,74
 751.114162646 748.028979162 751.114162646 748.028979162 747.780273438 725.526367188 c 128,-1,75
 744.463528612 703.136780997 744.463528612 703.136780997 725.447265625 689.306640625 c 0,76,77
 710.438073968 678.988154602 710.438073968 678.988154602 702.233398438 671.694335938 c 0,78,79
 532.412106689 531.688351454 532.412106689 531.688351454 456.538085938 469.693359375 c 1,80,81
 669.365937565 489.919897116 669.365937565 489.919897116 826.772460938 492.5 c 0,82,83
 852.133151429 492.5 852.133151429 492.5 870.083007812 474.551757812 c 0,84,85
 886.39142344 458.241830187 886.39142344 458.241830187 887.948242188 436.443359375 c 0,86,87
 888 435.72940602 888 435.72940602 888 435 c 2,88,-1
 888 429 l 2,89,90
 888 405.051342796 888 405.051342796 870.670898438 388.545898438 c 0,91,92
 852.647675186 371.380559166 852.647675186 371.380559166 826.423828125 372.528320312 c 0,93,94
 783.248715433 373.5 783.248715433 373.5 746 373.5 c 0,95,96
 663.007118371 373.5 663.007118371 373.5 609.802734375 365.76171875 c 0,97,98
 542.244595952 356.871295558 542.244595952 356.871295558 489.217773438 306.091796875 c 0,99,100
 437 256.086339534 437 256.086339534 437 197 c 0,101,102
 437 142.787405971 437 142.787405971 473.128198758 111.836275427 c 128,-1,103
 509.256397517 80.8851448826 509.256397517 80.8851448826 589.663085938 70.2568359375 c 0,104,105
 632.841553294 64.5 632.841553294 64.5 677 64.5 c 2,106,-1
 696 64.5 l 2,107,108
 720.922493261 64.5 720.922493261 64.5 737.426757812 46.162109375 c 0,109,110
 753.305955771 28.5187187614 753.305955771 28.5187187614 748.646484375 5.1494140625 c 2,111,-1
 746.694335938 -7.537109375 l 2,112,113
 742.182058116 -30.0970554794 742.182058116 -30.0970554794 724.426757812 -45.6318359375 c 0,114,115
 705.150628056 -62.5 705.150628056 -62.5 679 -62.5 c 2,116,-1
 672 -62.5 l 2,117,118
 500.055005731 -62.5 500.055005731 -62.5 405.452148438 -2.298828125 c 0,119,120
 306 62.5134414018 306 62.5134414018 306 184 c 0,121,122
 306 248.335599893 306 248.335599893 344.672851562 305.240234375 c 0,123,124
 359.3399993 326.822995333 359.3399993 326.822995333 376.3203125 345.106445312 c 1,125,126
 253.099418322 332.767837386 253.099418322 332.767837386 124.078125 312.801757812 c 0,127,128
 98.3980014355 309.131271186 98.3980014355 309.131271186 78.095703125 325.021484375 c 0,129,130
 59.3615418072 339.682302925 59.3615418072 339.682302925 57.1015625 362.849609375 c 2,131,-1
 56.2041015625 369.129882812 l 2,132,133
 56.0967347459 369.887585775 56.0967347459 369.887585775 56.044921875 370.65234375 c 0,134,135
 54.5212485499 393.516706078 54.5212485499 393.516706078 68.560546875 411.456054688 c 0,136,137
 83.8302494959 430.966353231 83.8302494959 430.966353231 111.677734375 433.506835938 c 0,138,139
 130.406033624 435.393901901 130.406033624 435.393901901 152.989257812 438.27734375 c 0,140,141
 176.458984375 441.272949219 176.458984375 441.272949219 203.436523438 444.770507812 c 0,142,143
 227.602642684 447.902358792 227.602642684 447.902358792 241.15625 449.109375 c 1,144,145
 351.714430814 525.530385524 351.714430814 525.530385524 520.921875 675.174804688 c 1,146,147
 495.248920866 673.630909704 495.248920866 673.630909704 461.716796875 671.553710938 c 0,148,149
 348.981531705 664.569398216 348.981531705 664.569398216 324.212890625 662.588867188 c 0,150,151
 323.448877548 662.526467713 323.448877548 662.526467713 322.651367188 662.5078125 c 0,152,153
 316.984759335 662.204692956 316.984759335 662.204692956 281.000976562 659.572265625 c 0,45,46
EndSplineSet
Ligature2: "'ccmp' Glyph Composition/Decomposition lookup 5 subtable" cid01481 cid01539
EndChar

StartChar: cid01484
Encoding: 12384 12384 10
Width: 1024
GlyphClass: 3
Flags: W
LayerCount: 2
Fore
SplineSet
720.939453125 657.798828125 m 0,0,1
 679.766264584 740.622280672 679.766264584 740.622280672 668.51953125 751.950195312 c 0,2,3
 668.068298476 752.406032503 668.068298476 752.406032503 667.641601562 752.884765625 c 0,4,5
 652.140965613 770.325564125 652.140965613 770.325564125 662.489257812 799.799804688 c 0,6,7
 671.544456063 822.212568038 671.544456063 822.212568038 694.163085938 834.369140625 c 0,8,9
 715.500590922 846.293135012 715.500590922 846.293135012 737.166015625 846.923828125 c 0,10,11
 737.948643363 846.945439147 737.948643363 846.945439147 738.7265625 846.924804688 c 0,12,13
 767.85447583 846.133659588 767.85447583 846.133659588 782.641601562 825.59375 c 0,14,15
 785.729681613 821.165915973 785.729681613 821.165915973 841.62890625 723.848632812 c 0,16,17
 853.394649609 703.253587986 853.394649609 703.253587986 841.51171875 678.174804688 c 0,18,19
 831.590243165 656.4613771 831.590243165 656.4613771 809.00390625 643.848632812 c 0,20,21
 785.125968365 629.686721325 785.125968365 629.686721325 761.162109375 632.249023438 c 0,22,23
 760.290099552 632.342620199 760.290099552 632.342620199 759.454101562 632.485351562 c 0,24,25
 733.911644599 636.845496663 733.911644599 636.845496663 721.96875 655.959960938 c 0,26,27
 721.416466639 656.842708933 721.416466639 656.842708933 720.939453125 657.798828125 c 0,0,1
861.137695312 767.25 m 0,28,29
 850.967662013 785.165697729 850.967662013 785.165697729 859.283203125 807.615234375 c 0,30,31
 866.863250804 828.081967337 866.863250804 828.081967337 886.19921875 840.456054688 c 0,32,33
 912.561180558 856.679910616 912.561180558 856.679910616 937.15625 856.111328125 c 0,34,35
 968.744376366 854.931275504 968.744376366 854.931275504 981.270507812 832.459960938 c 0,36,37
 999.340637002 797.130374057 999.340637002 797.130374057 1038.23730469 733.428710938 c 0,38,39
 1052.43887823 710.118673512 1052.43887823 710.118673512 1035.43359375 683.404296875 c 0,40,41
 1023.42916308 663.951515685 1023.42916308 663.951515685 1004.14453125 652.646484375 c 0,42,43
 983.424151597 640.5 983.424151597 640.5 962 640.5 c 0,44,45
 933.044859871 640.5 933.044859871 640.5 917.98046875 667.50390625 c 0,46,47
 881.662643735 730.896489658 881.662643735 730.896489658 861.137695312 767.25 c 0,28,29
557.266601562 384.58984375 m 0,48,49
 530.3816877 382.797816583 530.3816877 382.797816583 511.775390625 399.6328125 c 0,50,51
 494 415.715522962 494 415.715522962 494 439 c 2,52,-1
 494 445 l 2,53,54
 494 468.337778501 494 468.337778501 510.536132812 485.661132812 c 0,55,56
 527.801784941 503.749257825 527.801784941 503.749257825 553.241210938 505.444335938 c 0,57,58
 637.160257751 510.5 637.160257751 510.5 705 510.5 c 0,59,60
 783.902369024 510.5 783.902369024 510.5 845.817382812 506.440429688 c 0,61,62
 846.739920427 506.379233162 846.739920427 506.379233162 847.663085938 506.256835938 c 0,63,64
 872.226274768 502.982640724 872.226274768 502.982640724 888.348632812 485.248046875 c 0,65,66
 904 468.031542969 904 468.031542969 904 445 c 2,67,-1
 904 438 l 2,68,69
 904 437.277109375 904 437.277109375 903.948242188 436.556640625 c 0,70,71
 902.347000999 414.125367002 902.347000999 414.125367002 885.224609375 398.631835938 c 0,72,73
 866.617402524 381.797768369 866.617402524 381.797768369 840.153320312 383.561523438 c 0,74,75
 839.543730473 383.602905515 839.543730473 383.602905515 838.978515625 383.665039062 c 0,76,77
 767.48723427 391.5 767.48723427 391.5 707 391.5 c 0,78,79
 628.342284116 391.5 628.342284116 391.5 557.266601562 384.58984375 c 0,48,49
543.764648438 682.7890625 m 0,80,81
 553.809908349 685.106606741 553.809908349 685.106606741 563.607421875 683.916015625 c 0,82,83
 577.759036147 682.194588966 577.759036147 682.194588966 589.712890625 673.5 c 0,84,85
 610 658.746680215 610 658.746680215 610 634 c 2,86,-1
 610 623 l 2,87,88
 610 600.500675991 610 600.500675991 595 582.500976562 c 0,89,90
 579.449740718 563.840041103 579.449740718 563.840041103 555.452148438 559.041992188 c 0,91,92
 473.101308667 542.386634471 473.101308667 542.386634471 396.123046875 533.272460938 c 1,93,94
 385.272908241 482.905020614 385.272908241 482.905020614 367.361328125 413.947265625 c 0,95,96
 341.202537417 310.31561823 341.202537417 310.31561823 300.469726562 186.607421875 c 0,97,98
 259.64044192 62.6054666628 259.64044192 62.6054666628 222.264648438 -21.23828125 c 0,99,100
 212.741507114 -43.4594734896 212.741507114 -43.4594734896 189.749023438 -53.314453125 c 0,101,102
 189.166152784 -53.5635704455 189.166152784 -53.5635704455 188.614257812 -53.76953125 c 0,103,104
 176.00069277 -58.5 176.00069277 -58.5 163 -58.5 c 0,105,106
 152.516598662 -58.5 152.516598662 -58.5 142.151367188 -55.0439453125 c 2,107,-1
 120.9609375 -47.6728515625 l 2,108,109
 95.0290687023 -38.8599871372 95.0290687023 -38.8599871372 86.375 -16.3603515625 c 0,110,111
 78.1268581924 5.08481713734 78.1268581924 5.08481713734 88.2265625 25.28125 c 0,112,113
 127.661319998 103.167288498 127.661319998 103.167288498 170.215820312 221.431640625 c 0,114,115
 212.895298904 340.040191945 212.895298904 340.040191945 239.66796875 443.166992188 c 0,116,117
 246.910612136 470.525826653 246.910612136 470.525826653 259.018554688 521.994140625 c 1,118,119
 226.921434059 520.5 226.921434059 520.5 198 520.5 c 0,120,121
 149.569224904 520.5 149.569224904 520.5 113.678710938 521.526367188 c 0,122,123
 87.80122425 523.251912938 87.80122425 523.251912938 70.5361328125 541.337890625 c 0,124,125
 54.5108791018 558.126951112 54.5108791018 558.126951112 54.01171875 580.771484375 c 2,126,-1
 53.1240234375 588.76171875 l 2,127,128
 53 589.876398534 53 589.876398534 53 591 c 0,129,130
 53 613.967535754 53 613.967535754 69.8515625 629.973632812 c 0,131,132
 88.0662054281 647.278568395 88.0662054281 647.278568395 114.081054688 645.422851562 c 0,133,134
 151.095530646 642.5 151.095530646 642.5 199 642.5 c 0,135,136
 225.889168858 642.5 225.889168858 642.5 285.764648438 644.83203125 c 1,137,138
 292.329907459 680.7032898 292.329907459 680.7032898 298.133789062 715.479492188 c 0,139,140
 300.054990499 739.675160434 300.054990499 739.675160434 301.033203125 761.181640625 c 0,141,142
 302.608769641 783.242558703 302.608769641 783.242558703 318.41796875 799.051757812 c 0,143,144
 334.866210938 815.5 334.866210938 815.5 358 815.5 c 2,145,-1
 361 815.5 l 2,146,147
 362.445499786 815.5 362.445499786 815.5 363.85546875 815.352539062 c 2,148,-1
 392.4921875 812.389648438 l 2,149,150
 417.25281337 810.486961183 417.25281337 810.486961183 431.916992188 790.322265625 c 0,151,152
 445.465899559 771.693256591 445.465899559 771.693256591 440.577148438 748.876953125 c 0,153,154
 438.563967983 738.812584121 438.563967983 738.812584121 435.08203125 721.901367188 c 0,155,156
 432.521203842 709.466197782 432.521203842 709.466197782 431.8828125 705.817382812 c 0,157,158
 431.756401109 704.718099443 431.756401109 704.718099443 431.559570312 703.797851562 c 2,159,-1
 422.21484375 659.565429688 l 1,160,161
 485.709146967 669.269508279 485.709146967 669.269508279 543.764648438 682.7890625 c 0,80,81
436.331054688 209.662109375 m 0,162,163
 441.006643691 233.043073823 441.006643691 233.043073823 459.995117188 247.28515625 c 0,164,165
 479.197203028 261.687092735 479.197203028 261.687092735 504.744140625 259.5 c 2,166,-1
 509 259.5 l 2,167,168
 510.971728867 259.5 510.971728867 259.5 512.91796875 259.221679688 c 0,169,170
 537.853779944 255.660939385 537.853779944 255.660939385 551.916992188 236.322265625 c 0,171,172
 564.97292 218.373125043 564.97292 218.373125043 561.795898438 196.130859375 c 0,173,174
 561.691474873 195.399894426 561.691474873 195.399894426 561.529296875 194.654296875 c 0,175,176
 555 164.809380006 555 164.809380006 555 141 c 0,177,178
 555 125.365432245 555 125.365432245 559.684570312 114.91796875 c 0,179,180
 564.221775268 104.797536551 564.221775268 104.797536551 576.965820312 93.5986328125 c 0,181,182
 588.51600017 83.4473201667 588.51600017 83.4473201667 616.791015625 77.388671875 c 0,183,184
 648.935622161 70.5 648.935622161 70.5 697 70.5 c 0,185,186
 775.813580966 70.5 775.813580966 70.5 855.87109375 83.19140625 c 0,187,188
 882.226351532 86.9566654382 882.226351532 86.9566654382 901.165039062 70.8583984375 c 0,189,190
 919 55.6986816406 919 55.6986816406 919 32 c 0,191,192
 919 31.1590647978 919 31.1590647978 918.9296875 30.3173828125 c 2,193,-1
 917.995117188 19.103515625 l 2,194,195
 917.494784174 -3.61189157569 917.494784174 -3.61189157569 901.815429688 -20.78515625 c 0,196,197
 885.19594311 -38.9856656154 885.19594311 -38.9856656154 860.416015625 -42.2900390625 c 0,198,199
 771.595628198 -52.5 771.595628198 -52.5 696 -52.5 c 0,200,201
 611.667163931 -52.5 611.667163931 -52.5 552.372194629 -33.8670853729 c 128,-1,202
 493.077225326 -15.2341707459 493.077225326 -15.2341707459 460.538612663 23.9295853729 c 128,-1,203
 428 63.0933414918 428 63.0933414918 428 121 c 0,204,205
 428 159.683185316 428 159.683185316 436.331054688 209.662109375 c 0,162,163
EndSplineSet
Ligature2: "'ccmp' Glyph Composition/Decomposition lookup 5 subtable" cid01483 cid01539
EndChar

StartChar: cid01486
Encoding: 12386 12386 11
Width: 1024
GlyphClass: 3
Flags: W
LayerCount: 2
Fore
SplineSet
717.939453125 701.799804688 m 0,0,1
 676.768920074 784.616482919 676.768920074 784.616482919 665.51953125 795.950195312 c 0,2,3
 665.068298476 796.406032503 665.068298476 796.406032503 664.641601562 796.884765625 c 0,4,5
 649.140721552 814.325838734 649.140721552 814.325838734 659.489257812 843.798828125 c 0,6,7
 668.544219696 866.212441001 668.544219696 866.212441001 691.163085938 878.369140625 c 0,8,9
 712.498926027 890.293102781 712.498926027 890.293102781 734.1640625 890.923828125 c 0,10,11
 734.939575457 890.946682141 734.939575457 890.946682141 735.727539062 890.92578125 c 0,12,13
 764.855383105 890.132958322 764.855383105 890.132958322 779.641601562 869.59375 c 0,14,15
 782.729681613 865.165915973 782.729681613 865.165915973 838.62890625 767.848632812 c 0,16,17
 850.395329661 747.252397606 850.395329661 747.252397606 838.51171875 722.17578125 c 0,18,19
 828.59183835 700.461397383 828.59183835 700.461397383 806.00390625 687.848632812 c 0,20,21
 782.125968365 673.686721325 782.125968365 673.686721325 758.162109375 676.249023438 c 0,22,23
 757.314030209 676.338534476 757.314030209 676.338534476 756.454101562 676.485351562 c 0,24,25
 730.910410947 680.845426498 730.910410947 680.845426498 718.967773438 699.9609375 c 0,26,27
 718.409212346 700.856165551 718.409212346 700.856165551 717.939453125 701.799804688 c 0,0,1
859.137695312 811.25 m 0,28,29
 848.968050149 829.165013982 848.968050149 829.165013982 857.283203125 851.615234375 c 0,30,31
 864.862763361 872.080651202 864.862763361 872.080651202 884.19921875 884.45703125 c 0,32,33
 910.56274214 900.679874516 910.56274214 900.679874516 935.15625 900.111328125 c 0,34,35
 966.744376366 898.931275504 966.744376366 898.931275504 979.270507812 876.459960938 c 0,36,37
 997.336061241 841.137867849 997.336061241 841.137867849 1036.23730469 777.428710938 c 0,38,39
 1050.43862294 754.119092531 1050.43862294 754.119092531 1033.43359375 727.403320312 c 0,40,41
 1021.42871803 707.95125479 1021.42871803 707.95125479 1002.14453125 696.646484375 c 0,42,43
 981.424151597 684.5 981.424151597 684.5 960 684.5 c 0,44,45
 931.04389575 684.5 931.04389575 684.5 915.98046875 711.50390625 c 0,46,47
 879.518385516 775.150868985 879.518385516 775.150868985 859.137695312 811.25 c 0,28,29
721.080078125 697.221679688 m 0,48,49
 746.854967868 700.904917809 746.854967868 700.904917809 766.21875 685.228515625 c 0,50,51
 785 670.024296238 785 670.024296238 785 646 c 2,52,-1
 785 639.661132812 l 2,53,54
 786.024317947 615.271016699 786.024317947 615.271016699 770.6875 597.6328125 c 0,55,56
 755.167324708 579.784992246 755.167324708 579.784992246 730.940429688 574.938476562 c 0,57,58
 557.659245693 546.708229951 557.659245693 546.708229951 375.473632812 538.1640625 c 1,59,60
 354.528281785 446.396599851 354.528281785 446.396599851 337.134765625 386.388671875 c 1,61,62
 378.553049066 408.756884465 378.553049066 408.756884465 420.022460938 421.323242188 c 0,63,64
 489.900544341 442.5 489.900544341 442.5 579 442.5 c 0,65,66
 707.59646079 442.5 707.59646079 442.5 783.2265625 381.221679688 c 0,67,68
 860 319.018030221 860 319.018030221 860 218 c 0,69,70
 860 110.415940957 860 110.415940957 790.647460938 40.5146484375 c 0,71,72
 722.408685206 -28.26547389 722.408685206 -28.26547389 606.956054688 -52.8525390625 c 0,73,74
 534.12926251 -69.5 534.12926251 -69.5 443 -69.5 c 0,75,76
 396.102764697 -69.5 396.102764697 -69.5 345.0234375 -64.4404296875 c 0,77,78
 319.816311922 -62.3831391094 319.816311922 -62.3831391094 301.442382812 -46.94921875 c 0,79,80
 283.972934793 -32.274074978 283.972934793 -32.274074978 277.7265625 -10.41796875 c 2,81,-1
 273.907226562 1.9951171875 l 2,82,83
 273.745872516 2.51875673491 273.745872516 2.51875673491 273.609375 3.060546875 c 0,84,85
 268.060237109 25.2602486729 268.060237109 25.2602486729 283.075195312 43.08984375 c 0,86,87
 299.398129744 62.4730285984 299.398129744 62.4730285984 326.127929688 60.4189453125 c 0,88,89
 326.933085173 60.3561651577 326.933085173 60.3561651577 327.698242188 60.2529296875 c 0,90,91
 377.853681026 53.5 377.853681026 53.5 425 53.5 c 0,92,93
 453.559188417 53.5 453.559188417 53.5 481.791992188 55.4140625 c 0,94,95
 555.85584379 62.2406942573 555.85584379 62.2406942573 611.577148438 80.1845703125 c 0,96,97
 663.905482524 97.0369213127 663.905482524 97.0369213127 695.478515625 132.555664062 c 0,98,99
 726 166.892885179 726 166.892885179 726 216 c 0,100,101
 726 264.716286146 726 264.716286146 687.139648438 294.987304688 c 0,102,103
 646.683560347 326.5 646.683560347 326.5 570 326.5 c 0,104,105
 482.216112587 326.5 482.216112587 326.5 407.991210938 297.375 c 0,106,107
 335.496294064 268.927224987 335.496294064 268.927224987 290.266601562 214.821289062 c 0,108,109
 283.534947141 206.196395328 283.534947141 206.196395328 277.500976562 199.083007812 c 0,110,111
 264.356623133 180.787447951 264.356623133 180.787447951 243.209960938 172.766601562 c 0,112,113
 219.211138564 163.662732631 219.211138564 163.662732631 194.602539062 173.524414062 c 2,114,-1
 187.280273438 176.26953125 l 2,115,116
 164.412762058 185.06551352 164.412762058 185.06551352 155.13671875 206.993164062 c 0,117,118
 146.096303281 228.360176916 146.096303281 228.360176916 155.873046875 249.544921875 c 0,119,120
 206.530194266 361.91366775 206.530194266 361.91366775 248.1796875 536.69140625 c 1,121,122
 187.459638097 537.58824096 187.459638097 537.58824096 120.923828125 542.577148438 c 0,123,124
 120.154050116 542.635104697 120.154050116 542.635104697 119.3359375 542.7421875 c 0,125,126
 94.7715669976 546.018034683 94.7715669976 546.018034683 78.6513671875 563.751953125 c 0,127,128
 63.4799831366 580.439748634 63.4799831366 580.439748634 63.0087890625 602.90234375 c 2,129,-1
 62.1005859375 611.983398438 l 2,130,131
 62 612.983161695 62 612.983161695 62 614 c 0,132,133
 62 637.6430026 62 637.6430026 80.2587890625 653.29296875 c 0,134,135
 99.709252158 669.96479426 99.709252158 669.96479426 125.874023438 666.228515625 c 0,136,137
 205.668647064 655.094756412 205.668647064 655.094756412 272.017578125 654.530273438 c 1,138,139
 277.728076365 687.297320814 277.728076365 687.297320814 280.100585938 711.016601562 c 0,140,141
 280.156640625 711.573945312 280.156640625 711.573945312 280.236328125 712.0859375 c 0,142,143
 284.071299339 737.010362612 284.071299339 737.010362612 285.030273438 758.133789062 c 0,144,145
 286.611184607 781.838147994 286.611184607 781.838147994 303.775390625 797.3671875 c 0,146,147
 321.606559446 813.5 321.606559446 813.5 346 813.5 c 0,148,149
 347.318407403 813.5 347.318407403 813.5 348.629882812 813.375 c 2,150,-1
 368.502929688 811.482421875 l 2,151,152
 379.478582431 811.156397977 379.478582431 811.156397977 388.701171875 807.178710938 c 0,153,154
 401.769062852 801.543717223 401.769062852 801.543717223 410.189453125 789.440429688 c 0,155,156
 423.055931922 770.944027299 423.055931922 770.944027299 418.6875 749.361328125 c 0,157,158
 417.99730366 744.995005823 417.99730366 744.995005823 408.735351562 698.666992188 c 0,159,160
 408.195449875 695.071808695 408.195449875 695.071808695 401.125 657.784179688 c 1,161,162
 570.917616935 666.867890115 570.917616935 666.867890115 719.513671875 696.951171875 c 0,163,164
 720.293356863 697.109882455 720.293356863 697.109882455 721.080078125 697.221679688 c 0,48,49
EndSplineSet
Ligature2: "'ccmp' Glyph Composition/Decomposition lookup 5 subtable" cid01485 cid01539
EndChar

StartChar: cid01489
Encoding: 12389 12389 12
Width: 1024
GlyphClass: 3
Flags: W
LayerCount: 2
Fore
SplineSet
699.939453125 687.798828125 m 0,0,1
 658.76937422 770.616025369 658.76937422 770.616025369 647.51953125 781.950195312 c 0,2,3
 647.068298476 782.406032503 647.068298476 782.406032503 646.641601562 782.884765625 c 0,4,5
 631.140721552 800.325838734 631.140721552 800.325838734 641.489257812 829.798828125 c 0,6,7
 650.544508531 852.21315595 650.544508531 852.21315595 673.163085938 864.368164062 c 0,8,9
 694.497735733 876.293068129 694.497735733 876.293068129 716.1640625 876.923828125 c 0,10,11
 716.939575457 876.946682141 716.939575457 876.946682141 717.727539062 876.92578125 c 0,12,13
 746.855383105 876.132958322 746.855383105 876.132958322 761.641601562 855.59375 c 0,14,15
 764.729681613 851.165915973 764.729681613 851.165915973 820.62890625 753.848632812 c 0,16,17
 832.395329661 733.252397606 832.395329661 733.252397606 820.51171875 708.17578125 c 0,18,19
 810.59183835 686.461397383 810.59183835 686.461397383 788.00390625 673.848632812 c 0,20,21
 764.125968365 659.686721325 764.125968365 659.686721325 740.162109375 662.249023438 c 0,22,23
 739.314030209 662.338534476 739.314030209 662.338534476 738.454101562 662.485351562 c 0,24,25
 712.911561093 666.843585562 712.911561093 666.843585562 700.967773438 685.9609375 c 0,26,27
 700.411910703 686.851840787 700.411910703 686.851840787 699.939453125 687.798828125 c 0,0,1
860.137695312 797.25 m 0,28,29
 849.967192652 815.16518581 849.967192652 815.16518581 858.283203125 837.614257812 c 0,30,31
 865.861797267 858.078576389 865.861797267 858.078576389 885.19921875 870.45703125 c 0,32,33
 911.560718148 886.678629049 911.560718148 886.678629049 936.15625 886.111328125 c 0,34,35
 967.744376366 884.931275504 967.744376366 884.931275504 980.270507812 862.459960938 c 0,36,37
 998.346690807 827.118538035 998.346690807 827.118538035 1037.23730469 763.4296875 c 0,38,39
 1051.43863966 740.120915427 1051.43863966 740.120915427 1034.43359375 713.403320312 c 0,40,41
 1022.42871803 693.95125479 1022.42871803 693.95125479 1003.14453125 682.646484375 c 0,42,43
 982.424151597 670.5 982.424151597 670.5 961 670.5 c 0,44,45
 932.04389575 670.5 932.04389575 670.5 916.98046875 697.50390625 c 0,46,47
 880.518385516 761.150868985 880.518385516 761.150868985 860.137695312 797.25 c 0,28,29
146.2265625 419.876953125 m 0,48,49
 121.985428864 409.456011574 121.985428864 409.456011574 97.998046875 418.87890625 c 0,50,51
 74.4207882285 428.14170965 74.4207882285 428.14170965 65.4541015625 451.401367188 c 2,52,-1
 54.755859375 475.715820312 l 2,53,54
 54.3584437537 476.620872294 54.3584437537 476.620872294 54.0546875 477.534179688 c 0,55,56
 51 486.696745525 51 486.696745525 51 496 c 0,57,58
 51 507.830550225 51 507.830550225 56.2021484375 518.233398438 c 0,59,60
 56.5162627551 518.861627073 56.5162627551 518.861627073 56.865234375 519.458984375 c 0,61,62
 68.492227091 539.391651326 68.492227091 539.391651326 90.9130859375 546.290039062 c 0,63,64
 91.9356008684 546.604542169 91.9356008684 546.604542169 93.0068359375 546.84375 c 0,65,66
 127.533194548 554.516274136 127.533194548 554.516274136 167.609375 568.19921875 c 0,67,68
 177.707767042 571.229302733 177.707767042 571.229302733 228.891601562 588.124023438 c 0,69,70
 280.830615421 605.269140223 280.830615421 605.269140223 317.29296875 615.904296875 c 128,-1,71
 353.67271232 626.516026786 353.67271232 626.516026786 408.080078125 640.620117188 c 0,72,73
 463.561209669 655.004767419 463.561209669 655.004767419 514.081054688 662.221679688 c 0,74,75
 565.032244757 669.5 565.032244757 669.5 609 669.5 c 0,76,77
 749.872558594 669.5 749.872558594 669.5 842.581054688 591.4296875 c 0,78,79
 936 512.760181931 936 512.760181931 936 379 c 0,80,81
 936 288.534959758 936 288.534959758 894.21484375 215.6796875 c 128,-1,82
 852.435271252 142.833516695 852.435271252 142.833516695 776.500976562 94.171875 c 0,83,84
 702.352580754 46.6539431582 702.352580754 46.6539431582 605.674804688 18.5869140625 c 0,85,86
 510.120730248 -9.15548563024 510.120730248 -9.15548563024 394.446289062 -19.392578125 c 0,87,88
 393.226283482 -19.5 393.226283482 -19.5 392 -19.5 c 2,89,-1
 388 -19.5 l 2,90,91
 366.525242008 -19.5 366.525242008 -19.5 347.920898438 -7.609375 c 0,92,93
 328.504366745 4.85939613979 328.504366745 4.85939613979 319.71875 25.7763671875 c 2,94,-1
 310.786132812 44.6337890625 l 2,95,96
 301.464759116 67.0032942226 301.464759116 67.0032942226 314.305664062 87.181640625 c 0,97,98
 327.936712821 108.602310084 327.936712821 108.602310084 355.26953125 109.5078125 c 0,99,100
 450.498890091 115.410224015 450.498890091 115.410224015 529.385742188 133.31640625 c 0,101,102
 607.517438697 151.052412117 607.517438697 151.052412117 670.009765625 183.491210938 c 0,103,104
 729.943559481 214.601727556 729.943559481 214.601727556 763.614257812 264.653320312 c 0,105,106
 797 314.280695206 797 314.280695206 797 380 c 0,107,108
 797 453.898220164 797 453.898220164 746.53125 500.856445312 c 0,109,110
 696.400465659 547.5 696.400465659 547.5 607 547.5 c 0,111,112
 458.715432335 547.5 458.715432335 547.5 146.2265625 419.876953125 c 0,48,49
EndSplineSet
Ligature2: "'ccmp' Glyph Composition/Decomposition lookup 5 subtable" cid01488 cid01539
EndChar

StartChar: cid01491
Encoding: 12391 12391 13
Width: 1024
GlyphClass: 3
Flags: W
LayerCount: 2
Fore
SplineSet
674.439453125 356.798828125 m 0,0,1
 633.266264584 439.622280672 633.266264584 439.622280672 622.01953125 450.950195312 c 0,2,3
 621.568298476 451.406032503 621.568298476 451.406032503 621.141601562 451.884765625 c 0,4,5
 605.640965613 469.325564125 605.640965613 469.325564125 615.989257812 498.799804688 c 0,6,7
 625.044456063 521.212568038 625.044456063 521.212568038 647.663085938 533.369140625 c 0,8,9
 669.003224721 545.294606853 669.003224721 545.294606853 690.666015625 545.923828125 c 0,10,11
 691.448643363 545.945439147 691.448643363 545.945439147 692.2265625 545.924804688 c 0,12,13
 721.353242503 545.135372728 721.353242503 545.135372728 736.141601562 524.59375 c 0,14,15
 739.229681613 520.165915973 739.229681613 520.165915973 795.12890625 422.848632812 c 0,16,17
 806.894649609 402.253587986 806.894649609 402.253587986 795.01171875 377.174804688 c 0,18,19
 785.089175327 355.459040107 785.089175327 355.459040107 762.50390625 342.848632812 c 0,20,21
 738.625308308 328.686646245 738.625308308 328.686646245 714.662109375 331.249023438 c 0,22,23
 713.790099552 331.342620199 713.790099552 331.342620199 712.954101562 331.485351562 c 0,24,25
 687.411644599 335.845496663 687.411644599 335.845496663 675.46875 354.959960938 c 0,26,27
 674.916466639 355.842708933 674.916466639 355.842708933 674.439453125 356.798828125 c 0,0,1
811.637695312 466.25 m 0,28,29
 801.467662013 484.165697729 801.467662013 484.165697729 809.783203125 506.615234375 c 0,30,31
 817.363250804 527.081967337 817.363250804 527.081967337 836.69921875 539.456054688 c 0,32,33
 863.061180558 555.679910616 863.061180558 555.679910616 887.65625 555.111328125 c 0,34,35
 919.244376366 553.931275504 919.244376366 553.931275504 931.770507812 531.459960938 c 0,36,37
 949.84212617 496.127462528 949.84212617 496.127462528 988.737304688 432.4296875 c 0,38,39
 1002.93875808 409.118484768 1002.93875808 409.118484768 985.93359375 382.404296875 c 0,40,41
 973.9277737 362.950701203 973.9277737 362.950701203 954.64453125 351.646484375 c 0,42,43
 933.92143417 339.5 933.92143417 339.5 912.5 339.5 c 0,44,45
 883.544373051 339.5 883.544373051 339.5 868.479492188 366.505859375 c 0,46,47
 832.008668234 430.166952145 832.008668234 430.166952145 811.637695312 466.25 c 0,28,29
133.196289062 567.818359375 m 0,48,49
 107.820216545 564.191521216 107.820216545 564.191521216 87.6328125 579.112304688 c 0,50,51
 67.7476924175 593.810659608 67.7476924175 593.810659608 66.076171875 617.216796875 c 2,52,-1
 64.140625 635.59765625 l 2,53,54
 60.9133997061 659.801024777 60.9133997061 659.801024777 77.1142578125 677.708007812 c 128,-1,55
 93.364618037 695.667188323 93.364618037 695.667188323 118.170898438 697.440429688 c 0,56,57
 150.90595384 699.42402246 150.90595384 699.42402246 172.461914062 701.383789062 c 0,58,59
 603.761978122 741.410732812 603.761978122 741.410732812 617.80859375 742.4140625 c 0,60,61
 733.100398956 752.439756675 733.100398956 752.439756675 855.635742188 758.465820312 c 0,62,63
 856.325550426 758.5 856.325550426 758.5 857 758.5 c 2,64,-1
 859 758.5 l 2,65,66
 883.967161655 758.5 883.967161655 758.5 900.6328125 741.029296875 c 0,67,68
 918 724.478591204 918 724.478591204 918 702 c 2,69,-1
 918 691 l 2,70,71
 918 667.366715723 918 667.366715723 901.083007812 650.448242188 c 0,72,73
 883.134765625 632.5 883.134765625 632.5 857.123046875 632.5 c 0,74,75
 748.811099349 631.540928978 748.811099349 631.540928978 702.107421875 617.715820312 c 0,76,77
 639.070555599 597.394013002 639.070555599 597.394013002 589.659179688 547.525390625 c 0,78,79
 538.73353609 496.129251822 538.73353609 496.129251822 513.372070312 436.012695312 c 128,-1,80
 488 375.873913532 488 375.873913532 488 318 c 0,81,82
 488 269.097413103 488 269.097413103 504.39453125 229.932617188 c 0,83,84
 520.697034022 190.990385772 520.697034022 190.990385772 546.939453125 165.193359375 c 0,85,86
 573.652030693 138.934786547 573.652030693 138.934786547 611.529296875 120.224609375 c 0,87,88
 650.386978795 101.029147886 650.386978795 101.029147886 690.9765625 91.232421875 c 0,89,90
 732.668261389 81.1684485 732.668261389 81.1684485 779.473632812 76.3916015625 c 0,91,92
 804.705486485 74.4509248326 804.705486485 74.4509248326 818.80859375 53.767578125 c 0,93,94
 832.199129041 34.1273262724 832.199129041 34.1273262724 823.791015625 12.0361328125 c 2,95,-1
 817.998046875 -6.30859375 l 2,96,97
 810.630334532 -28.411730779 810.630334532 -28.411730779 790.84375 -42.1103515625 c 0,98,99
 772.944279561 -53.5 772.944279561 -53.5 752 -53.5 c 2,100,-1
 747 -53.5 l 2,101,102
 745.483977141 -53.5 745.483977141 -53.5 743.991210938 -53.3359375 c 0,103,104
 686.598166616 -47.0757848469 686.598166616 -47.0757848469 632.802734375 -31.4072265625 c 0,105,106
 578.107445544 -15.4758785325 578.107445544 -15.4758785325 527.802734375 14.177734375 c 128,-1,107
 477.370643158 43.9054131656 477.370643158 43.9054131656 439.578125 83.294921875 c 0,108,109
 401.049370154 123.451550013 401.049370154 123.451550013 378.477539062 179.87890625 c 0,110,111
 356 236.072753906 356 236.072753906 356 301 c 0,112,113
 356 416.64932069 356 416.64932069 413.465820312 513.129882812 c 0,114,115
 447.543770621 570.343659642 447.543770621 570.343659642 490.353515625 611.623046875 c 1,116,117
 473.633536141 609.856471577 473.633536141 609.856471577 457.397460938 608.151367188 c 0,118,119
 348.164993545 596.679176797 348.164993545 596.679176797 267.91796875 586.711914062 c 0,120,121
 187.928583753 576.774472598 187.928583753 576.774472598 133.196289062 567.818359375 c 0,48,49
EndSplineSet
Ligature2: "'ccmp' Glyph Composition/Decomposition lookup 5 subtable" cid01490 cid01539
EndChar

StartChar: cid01493
Encoding: 12393 12393 14
Width: 1024
GlyphClass: 3
Flags: W
LayerCount: 2
Fore
SplineSet
699.939453125 693.798828125 m 0,0,1
 658.766264584 776.622280672 658.766264584 776.622280672 647.51953125 787.950195312 c 0,2,3
 647.068298476 788.406032503 647.068298476 788.406032503 646.641601562 788.884765625 c 0,4,5
 631.140965613 806.325564125 631.140965613 806.325564125 641.489257812 835.799804688 c 0,6,7
 650.544456063 858.212568038 650.544456063 858.212568038 673.163085938 870.369140625 c 0,8,9
 694.500590922 882.293135012 694.500590922 882.293135012 716.166015625 882.923828125 c 0,10,11
 716.948643363 882.945439147 716.948643363 882.945439147 717.7265625 882.924804688 c 0,12,13
 746.85447583 882.133659588 746.85447583 882.133659588 761.641601562 861.59375 c 0,14,15
 764.729681613 857.165915973 764.729681613 857.165915973 820.62890625 759.848632812 c 0,16,17
 832.394649609 739.253587986 832.394649609 739.253587986 820.51171875 714.174804688 c 0,18,19
 810.590243165 692.4613771 810.590243165 692.4613771 788.00390625 679.848632812 c 0,20,21
 764.125968365 665.686721325 764.125968365 665.686721325 740.162109375 668.249023438 c 0,22,23
 739.290099552 668.342620199 739.290099552 668.342620199 738.454101562 668.485351562 c 0,24,25
 712.911644599 672.845496663 712.911644599 672.845496663 700.96875 691.959960938 c 0,26,27
 700.416466639 692.842708933 700.416466639 692.842708933 699.939453125 693.798828125 c 0,0,1
860.137695312 803.25 m 0,28,29
 849.967662013 821.165697729 849.967662013 821.165697729 858.283203125 843.615234375 c 0,30,31
 865.863250804 864.081967337 865.863250804 864.081967337 885.19921875 876.456054688 c 0,32,33
 911.561180558 892.679910616 911.561180558 892.679910616 936.15625 892.111328125 c 0,34,35
 967.744376366 890.931275504 967.744376366 890.931275504 980.270507812 868.459960938 c 0,36,37
 998.340637002 833.130374057 998.340637002 833.130374057 1037.23730469 769.428710938 c 0,38,39
 1051.43887823 746.118673512 1051.43887823 746.118673512 1034.43359375 719.404296875 c 0,40,41
 1022.42916308 699.951515685 1022.42916308 699.951515685 1003.14453125 688.646484375 c 0,42,43
 982.424151597 676.5 982.424151597 676.5 961 676.5 c 0,44,45
 932.044859871 676.5 932.044859871 676.5 916.98046875 703.50390625 c 0,46,47
 880.662643735 766.896489658 880.662643735 766.896489658 860.137695312 803.25 c 0,28,29
681.006835938 654.0234375 m 0,48,49
 701.88362834 668.31224113 701.88362834 668.31224113 726.494140625 662.84375 c 128,-1,50
 750.908498566 657.417842285 750.908498566 657.417842285 763.134765625 636.458984375 c 2,51,-1
 770.322265625 624.138671875 l 2,52,53
 781.443992713 603.482385348 781.443992713 603.482385348 775.263671875 581.079101562 c 128,-1,54
 769.098918506 558.731478042 769.098918506 558.731478042 749.880859375 545.919921875 c 0,55,56
 748.789918499 545.192627958 748.789918499 545.192627958 747.620117188 544.578125 c 0,57,58
 728.694278216 534.616446581 728.694278216 534.616446581 701.022460938 520.772460938 c 0,59,60
 693.630156145 516.562939355 693.630156145 516.562939355 628.708984375 483.865234375 c 0,61,62
 560.650078099 449.587946047 560.650078099 449.587946047 513.072265625 423.321289062 c 0,63,64
 466.125014583 397.402889752 466.125014583 397.402889752 422.95703125 367.970703125 c 0,65,66
 282 274.621054043 282 274.621054043 282 181 c 0,67,68
 282 129.152457279 282 129.152457279 331.708984375 99.8154296875 c 0,69,70
 386.466416963 67.5 386.466416963 67.5 497 67.5 c 0,71,72
 650.233338439 67.5 650.233338439 67.5 781.163085938 93.880859375 c 0,73,74
 806.761743169 99.7884846304 806.761743169 99.7884846304 827.21875 83.228515625 c 0,75,76
 846 68.0242962384 846 68.0242962384 846 44 c 2,77,-1
 846 23 l 2,78,79
 846 22.315962358 846 22.315962358 845.955078125 21.65234375 c 0,80,81
 844.505588441 -0.0944890994385 844.505588441 -0.0944890994385 830 -17.5 c 0,82,83
 813.832845042 -36.9002681994 813.832845042 -36.9002681994 788.806640625 -40.23828125 c 0,84,85
 654.990312548 -59.5 654.990312548 -59.5 500 -59.5 c 0,86,87
 423.275507426 -59.5 423.275507426 -59.5 362.62109375 -47.47265625 c 0,88,89
 300.592826552 -35.1746235319 300.592826552 -35.1746235319 252.060546875 -8.7509765625 c 0,90,91
 201.215814804 18.930137667 201.215814804 18.930137667 173.482421875 65.3427734375 c 0,92,93
 146 111.333647219 146 111.333647219 146 172 c 0,94,95
 146 318.667110925 146 318.667110925 314.545898438 443.021484375 c 1,96,97
 265.509356142 534.716172844 265.509356142 534.716172844 190.822265625 705.564453125 c 0,98,99
 181.22825321 726.350470234 181.22825321 726.350470234 189.9296875 748.5 c 0,100,101
 198.762069477 770.98058556 198.762069477 770.98058556 221.909179688 780.602539062 c 2,102,-1
 237.069335938 787.236328125 l 2,103,104
 237.642169977 787.485736204 237.642169977 787.485736204 238.176757812 787.690429688 c 0,105,106
 261.29015653 796.579040526 261.29015653 796.579040526 284.809570312 786.998046875 c 128,-1,107
 308.409621714 777.382555767 308.409621714 777.382555767 316.739257812 754.055664062 c 0,108,109
 364.067381321 628.456591976 364.067381321 628.456591976 425.881835938 513.307617188 c 1,110,111
 474.484598539 541.405069598 474.484598539 541.405069598 547.342773438 579.90234375 c 0,112,113
 629.602653236 623.370653965 629.602653236 623.370653965 638.813476562 628.134765625 c 0,114,115
 665.636028641 644.425631347 665.636028641 644.425631347 681.006835938 654.0234375 c 0,48,49
EndSplineSet
Ligature2: "'ccmp' Glyph Composition/Decomposition lookup 5 subtable" cid01492 cid01539
EndChar

StartChar: cid01500
Encoding: 12400 12400 15
Width: 1024
GlyphClass: 3
Flags: W
LayerCount: 2
Fore
SplineSet
743.551757812 891.563476562 m 0,0,1
 772.510093289 867.13756421 772.510093289 867.13756421 813.971679688 823.65234375 c 0,2,3
 814.410537588 823.192815006 814.410537588 823.192815006 814.793945312 822.743164062 c 0,4,5
 828.63453678 806.596502683 828.63453678 806.596502683 818.875 777.32421875 c 0,6,7
 812.244437037 758.756962413 812.244437037 758.756962413 796.91796875 742.791015625 c 0,8,9
 779.433711595 724.576623568 779.433711595 724.576623568 753.374023438 720.526367188 c 0,10,11
 725.362378544 716.224012494 725.362378544 716.224012494 709.286132812 733.604492188 c 0,12,13
 708.854757875 734.07194029 708.854757875 734.07194029 708.432617188 734.581054688 c 0,14,15
 674.312044513 775.90952996 674.312044513 775.90952996 652.014648438 794.491210938 c 0,16,17
 651.179827009 795.186383929 651.179827009 795.186383929 650.41796875 795.948242188 c 0,18,19
 634.205337257 812.159726371 634.205337257 812.159726371 642.9921875 840.279296875 c 0,20,21
 647.575217528 854.027399876 647.575217528 854.027399876 670.955078125 878.576171875 c 0,22,23
 695.650624978 904.917450637 695.650624978 904.917450637 720.1875 900.01171875 c 0,24,25
 737.07762108 896.93850883 737.07762108 896.93850883 743.551757812 891.563476562 c 0,0,1
123.086914062 742.998046875 m 0,26,27
 125.272126457 765.690420234 125.272126457 765.690420234 142.690429688 780.734375 c 0,28,29
 161.789945562 797.228833819 161.789945562 797.228833819 187.44140625 795.396484375 c 2,30,-1
 204.173828125 793.635742188 l 2,31,32
 218.046521863 792.250000854 218.046521863 792.250000854 226.76953125 787.970703125 c 0,33,34
 239.26513972 781.842283684 239.26513972 781.842283684 247.060546875 769.889648438 c 0,35,36
 259.436521715 750.912751065 259.436521715 750.912751065 254.38671875 729.029296875 c 0,37,38
 251.416823062 718.138738766 251.416823062 718.138738766 246.544921875 695.7265625 c 0,39,40
 229.722731234 616.566000687 229.722731234 616.566000687 213.32421875 492.834960938 c 0,41,42
 197 369.661310369 197 369.661310369 197 292 c 0,43,44
 197 278.444778859 197 278.444778859 197.315429688 264.97265625 c 1,45,46
 200.925893121 273.956767512 200.925893121 273.956767512 204.662109375 283.073242188 c 0,47,48
 213.094365163 302.04581771 213.094365163 302.04581771 234.092773438 308.344726562 c 0,49,50
 257.387283296 315.335147255 257.387283296 315.335147255 276.20703125 300.166992188 c 0,51,52
 300 280.429262659 300 280.429262659 300 255 c 0,53,54
 300 244.308245959 300 244.308245959 295.747070312 232.963867188 c 0,55,56
 245.310032078 91.5419098271 245.310032078 91.5419098271 234.571289062 37.8466796875 c 0,57,58
 230 16.8229246932 230 16.8229246932 230 3 c 2,59,-1
 230 -1.3203125 l 2,60,61
 231.041263003 -24.3975730951 231.041263003 -24.3975730951 216.5625 -41.9248046875 c 0,62,63
 200.243147039 -61.6788121671 200.243147039 -61.6788121671 173.846679688 -63.4384765625 c 0,64,65
 172.923828125 -63.5 172.923828125 -63.5 172 -63.5 c 2,66,-1
 171 -63.5 l 1,67,-1
 167 -63.5 l 2,68,69
 145.005561532 -63.5 145.005561532 -63.5 126.791015625 -50.87109375 c 0,70,71
 107.605705501 -37.4304935863 107.605705501 -37.4304935863 101.600585938 -14.9150390625 c 0,72,73
 71 117.69088668 71 117.69088668 71 278 c 0,74,75
 71 305.635370264 71 305.635370264 73.041015625 337.783203125 c 0,76,77
 75.0448317099 369.361236883 75.0448317099 369.361236883 77.0576171875 396.024414062 c 0,78,79
 79.0847963304 422.889642114 79.0847963304 422.889642114 83.1240234375 459.23828125 c 0,80,81
 87.1154379985 495.16247275 87.1154379985 495.16247275 89.6357421875 516.841796875 c 128,-1,82
 92.176753248 538.692751577 92.176753248 538.692751577 97.7265625 575.5234375 c 0,83,84
 103.233703864 612.065233365 103.233703864 612.065233365 105.236328125 625.0859375 c 128,-1,85
 107.23928572 638.106602841 107.23928572 638.106602841 112.768554688 671.788085938 c 0,86,87
 117.359475242 699.750707733 117.359475242 699.750707733 118.088867188 704.900390625 c 0,88,89
 118.139926215 705.413984375 118.139926215 705.413984375 118.170898438 705.623046875 c 0,90,91
 121.063382205 727.8074812 121.063382205 727.8074812 123.086914062 742.998046875 c 0,26,27
642 146 m 0,92,93
 642 156.23554145 642 156.23554145 641.682617188 164.806640625 c 1,94,95
 603.344565398 174.5 603.344565398 174.5 562 174.5 c 0,96,97
 513.971761081 174.5 513.971761081 174.5 484.471679688 155.65234375 c 0,98,99
 459 139.378514352 459 139.378514352 459 116 c 0,100,101
 459 90.7484584677 459 90.7484584677 481.788085938 76.462890625 c 0,102,103
 508.848790076 59.5 508.848790076 59.5 556 59.5 c 0,104,105
 605.152827813 59.5 605.152827813 59.5 622.651367188 78.748046875 c 0,106,107
 642 100.03236807 642 100.03236807 642 146 c 0,92,93
865.107421875 629.225585938 m 0,108,109
 890.853007803 632.904194813 890.853007803 632.904194813 910.219726562 617.228515625 c 0,110,111
 929 602.022424134 929 602.022424134 929 578 c 2,112,-1
 929 569 l 2,113,114
 929 546.500675991 929 546.500675991 914 528.500976562 c 0,115,116
 897.831602988 509.097317339 897.831602988 509.097317339 872.586914062 505.733398438 c 0,117,118
 800.861218202 496.575781037 800.861218202 496.575781037 759.513671875 494.23828125 c 1,119,120
 767.772779216 430.812074677 767.772779216 430.812074677 767.994140625 243.21875 c 1,121,122
 825.67049597 216.27073838 825.67049597 216.27073838 932.018554688 136.275390625 c 0,123,124
 951.720966208 121.498220578 951.720966208 121.498220578 954.821289062 96.6923828125 c 0,125,126
 957.840658438 75.5523018482 957.840658438 75.5523018482 945.830078125 56.033203125 c 2,127,-1
 940.7421875 47.8935546875 l 2,128,129
 927.664638315 27.3424818365 927.664638315 27.3424818365 900.791015625 23.759765625 c 0,130,131
 889.471749319 22.142958323 889.471749319 22.142958323 878.899414062 24.8466796875 c 0,132,133
 865.762191952 28.2082552226 865.762191952 28.2082552226 854.787109375 38.56640625 c 0,134,135
 807.234201009 80.8272375814 807.234201009 80.8272375814 770.158203125 105.372070312 c 1,136,137
 768.172410807 80.6671213516 768.172410807 80.6671213516 761.616210938 59.0703125 c 0,138,139
 751.942264253 27.2052651866 751.942264253 27.2052651866 730.360351562 -0.056640625 c 0,140,141
 707.353639308 -29.1169205414 707.353639308 -29.1169205414 665.533203125 -45.6083984375 c 0,142,143
 625.234049042 -61.5 625.234049042 -61.5 570 -61.5 c 0,144,145
 460.336019135 -61.5 460.336019135 -61.5 398.528320312 -17.673828125 c 0,146,147
 334 28.082964119 334 28.082964119 334 109 c 0,148,149
 334 185.362447985 334 185.362447985 399.249023438 235.596679688 c 0,150,151
 462.765809901 284.5 462.765809901 284.5 568 284.5 c 0,152,153
 603.506711074 284.5 603.506711074 284.5 636.06640625 280.374023438 c 1,154,155
 629.373184961 443.877383849 629.373184961 443.877383849 627.637695312 488.852539062 c 1,156,157
 581.534768992 487.5 581.534768992 487.5 555 487.5 c 0,158,159
 496.091508268 487.5 496.091508268 487.5 419.154296875 492.561523438 c 0,160,161
 393.802000808 494.250786642 393.802000808 494.250786642 376.537109375 512.337890625 c 0,162,163
 360 529.66212578 360 529.66212578 360 553 c 2,164,-1
 360 558 l 2,165,166
 360 582.285206891 360 582.285206891 377.776367188 598.369140625 c 0,167,168
 396.57772098 615.377846391 396.57772098 615.377846391 422.912109375 612.362304688 c 0,169,170
 504.140813224 606.525511597 504.140813224 606.525511597 556.30859375 607.4921875 c 0,171,172
 582.267721508 608.303410242 582.267721508 608.303410242 627 609.133789062 c 1,173,-1
 627 640 l 2,174,175
 627 650.375504032 627 650.375504032 626.044921875 665.646484375 c 0,176,177
 624.39851197 688.693128286 624.39851197 688.693128286 641.018554688 706.142578125 c 0,178,179
 658.501736807 724.5 658.501736807 724.5 684 724.5 c 2,180,-1
 705 724.5 l 2,181,182
 731.287857735 724.5 731.287857735 724.5 747.793945312 705.243164062 c 0,183,184
 762.553673377 688.024962329 762.553673377 688.024962329 760.944335938 665.501953125 c 2,185,-1
 758.952148438 639.604492188 l 1,186,-1
 757.537109375 616.481445312 l 1,187,188
 808.567420483 621.261283488 808.567420483 621.261283488 865.107421875 629.225585938 c 0,108,109
870.458007812 796.375976562 m 0,189,190
 853.493290453 808.493983106 853.493290453 808.493983106 855.046875 824.9609375 c 0,191,192
 856.541407861 833.928134663 856.541407861 833.928134663 859.157226562 841.774414062 c 0,193,194
 868.461583558 867.029979204 868.461583558 867.029979204 886.572265625 880.961914062 c 0,195,196
 892.457058753 885.668473075 892.457058753 885.668473075 900.572265625 890.40234375 c 0,197,198
 911.525634 897.847806854 911.525634 897.847806854 925.452148438 900.943359375 c 0,199,200
 953.99760217 906.294868072 953.99760217 906.294868072 972.345703125 892.024414062 c 0,201,202
 973.930717244 890.792134299 973.930717244 890.792134299 975.26171875 889.34375 c 2,203,-1
 1031.9296875 827.704101562 l 2,204,205
 1040.6088477 819.024941366 1040.6088477 819.024941366 1042.72363281 806.337890625 c 0,206,207
 1043 804.6796875 1043 804.6796875 1043 803 c 0,208,209
 1043 790.769364921 1043 790.769364921 1039.22851562 780.32421875 c 0,210,211
 1029.46543786 750.444072863 1029.46543786 750.444072863 1015.17480469 740.619140625 c 0,212,213
 1008.35326959 735.930063546 1008.35326959 735.930063546 1002.55566406 731.35546875 c 0,214,215
 995.199722378 725.871236931 995.199722378 725.871236931 973.118164062 721.974609375 c 0,216,217
 959.106106534 719.172556647 959.106106534 719.172556647 946.7421875 722.935546875 c 0,218,219
 933.395912686 726.99665597 933.395912686 726.99665597 924.67578125 737.8984375 c 0,220,221
 888.689281311 783.35313115 888.689281311 783.35313115 870.458007812 796.375976562 c 0,189,190
EndSplineSet
Ligature2: "'ccmp' Glyph Composition/Decomposition lookup 5 subtable" cid01499 cid01539
EndChar

StartChar: cid01501
Encoding: 12401 12401 16
Width: 1024
GlyphClass: 3
Flags: W
LayerCount: 2
Fore
SplineSet
645.5 146 m 0,0,1
 645.5 156.614489294 645.5 156.614489294 645.169818178 165.107499502 c 1,2,3
 605.509834334 175.5 605.509834334 175.5 562 175.5 c 0,4,5
 512.281756636 175.5 512.281756636 175.5 481.575369458 155.882030414 c 0,6,7
 455.5 139.222766594 455.5 139.222766594 455.5 116 c 0,8,9
 455.5 102.827217216 455.5 102.827217216 460.911079017 93.4703361441 c 128,-1,10
 466.322158034 84.1134550718 466.322158034 84.1134550718 478.91940658 76.216672401 c 0,11,12
 492.621102065 67.6275498582 492.621102065 67.6275498582 511.847359108 63.0637749291 c 128,-1,13
 531.073616152 58.5 531.073616152 58.5 556 58.5 c 0,14,15
 607.489047448 58.5 607.489047448 58.5 626.091288422 78.9624650709 c 0,16,17
 645.5 100.312047807 645.5 100.312047807 645.5 146 c 0,0,1
126.588691458 743.091898953 m 0,18,19
 128.834428443 765.99250637 128.834428443 765.99250637 145.947172788 780.771694667 c 0,20,21
 154.516260122 788.172270092 154.516260122 788.172270092 164.939535999 791.707708916 c 128,-1,22
 175.362811875 795.243147739 175.362811875 795.243147739 186.891800143 794.419648577 c 2,23,-1
 205.891800143 792.419648577 l 2,24,25
 230.178091165 790.684913504 230.178091165 790.684913504 243.508627832 770.244757282 c 0,26,27
 249.547460029 760.98521458 249.547460029 760.98521458 251.455165751 750.546450281 c 128,-1,28
 253.362871474 740.107685982 253.362871474 740.107685982 250.854030491 728.752206336 c 0,29,30
 247.890079585 717.884386347 247.890079585 717.884386347 243.019968425 695.481875009 c 0,31,32
 241.349486396 687.62078311 241.349486396 687.62078311 239.680145727 679.301040854 c 128,-1,33
 238.010805059 670.981298597 238.010805059 670.981298597 236.342096516 662.200630747 c 128,-1,34
 234.673387973 653.419962897 234.673387973 653.419962897 233.006282804 644.180643914 c 128,-1,35
 231.339177634 634.94132493 231.339177634 634.94132493 229.674354982 625.2491099 c 128,-1,36
 228.009532329 615.55689487 228.009532329 615.55689487 226.346695839 605.405492575 c 128,-1,37
 224.683859349 595.254090281 224.683859349 595.254090281 223.024955767 584.657821486 c 128,-1,38
 221.366052184 574.061552692 221.366052184 574.061552692 219.709517553 563.005560502 c 128,-1,39
 218.052982922 551.949568312 218.052982922 551.949568312 216.402031589 540.45673917 c 128,-1,40
 214.751080255 528.963910028 214.751080255 528.963910028 213.102880663 517.010821359 c 128,-1,41
 211.45468107 505.05773269 211.45468107 505.05773269 209.813635941 492.675301261 c 0,42,43
 193.5 369.581502796 193.5 369.581502796 193.5 292 c 0,44,45
 193.5 281.371155273 193.5 281.371155273 193.724812931 269.89651737 c 128,-1,46
 193.949625861 258.421879467 193.949625861 258.421879467 194.322441908 248.867079055 c 1,47,48
 197.975550324 258.133081109 197.975550324 258.133081109 201.195902622 266.141777081 c 128,-1,49
 204.416254919 274.150473053 204.416254919 274.150473053 208.225261235 283.444448463 c 0,50,51
 216.363614518 301.755743349 216.363614518 301.755743349 235.82202046 307.593265132 c 0,52,53
 257.210091811 314.009686537 257.210091811 314.009686537 273.80110201 299.492552613 c 0,54,55
 284.007477443 291.327452267 284.007477443 291.327452267 290.253738721 279.641162574 c 128,-1,56
 296.5 267.954872881 296.5 267.954872881 296.5 255 c 0,57,58
 296.5 244.101306492 296.5 244.101306492 292.192188284 232.613808581 c 0,59,60
 267.128365878 162.336816347 267.128365878 162.336816347 251.702869578 113.047381594 c 128,-1,61
 236.277373277 63.7579468414 236.277373277 63.7579468414 231.047349493 37.6078279223 c 0,62,63
 226.5 16.6900202549 226.5 16.6900202549 226.5 3 c 2,64,-1
 226.5 -1.25227370053 l 2,65,66
 227.506331048 -24.7242654308 227.506331048 -24.7242654308 213.07567766 -42.1929511104 c 0,67,68
 197.674841376 -60.8360687173 197.674841376 -60.8360687173 173.430158726 -62.4523808939 c 0,69,70
 172.715872135 -62.5 172.715872135 -62.5 172 -62.5 c 2,71,-1
 171 -62.5 l 1,72,-1
 167 -62.5 l 2,73,74
 146.794246662 -62.5 146.794246662 -62.5 129.569545818 -50.5575407481 c 0,75,76
 111.102329292 -37.5761738369 111.102329292 -37.5761738369 105.132308342 -15.1885952748 c 0,77,78
 74.5 117.55140754 74.5 117.55140754 74.5 278 c 0,79,80
 74.5 282.630145885 74.5 282.630145885 74.5570231654 287.382585501 c 128,-1,81
 74.6140463309 292.135025117 74.6140463309 292.135025117 74.7279730137 297.003391284 c 128,-1,82
 74.8418996965 301.871757451 74.8418996965 301.871757451 75.0123444345 306.859051375 c 128,-1,83
 75.1827891726 311.846345298 75.1827891726 311.846345298 75.4099691848 316.955235208 c 128,-1,84
 75.6371491969 322.064125118 75.6371491969 322.064125118 75.9203196964 327.28797445 c 128,-1,85
 76.2034901959 332.511823781 76.2034901959 332.511823781 76.5432052685 337.862336173 c 0,86,87
 77.5470121943 353.672295255 77.5470121943 353.672295255 78.5513230132 368.234806123 c 128,-1,88
 79.555633832 382.797316991 79.555633832 382.797316991 80.5609714095 396.118039894 c 128,-1,89
 81.5783889526 409.598822339 81.5783889526 409.598822339 83.0952419963 425.399229084 c 128,-1,90
 84.6120950399 441.199635829 84.6120950399 441.199635829 86.6314997045 459.374277811 c 0,91,92
 90.6375564963 495.428788936 90.6375564963 495.428788936 93.1438913235 516.983268451 c 0,93,94
 94.4241635839 527.99360989 94.4241635839 527.99360989 96.4436396593 542.634347109 c 128,-1,95
 98.4631157346 557.275084327 98.4631157346 557.275084327 101.240009364 575.703560233 c 128,-1,96
 103.994118916 593.980832714 103.994118916 593.980832714 105.869464893 606.358138789 c 128,-1,97
 107.74481087 618.735444864 107.74481087 618.735444864 108.750008501 625.269229461 c 0,98,99
 110.766482363 638.376309566 110.766482363 638.376309566 116.284034528 671.983218212 c 0,100,101
 120.933965424 700.305524575 120.933965424 700.305524575 121.597886552 705.049542814 c 0,102,103
 121.635124666 705.432216004 121.635124666 705.432216004 121.680591159 705.780792457 c 0,104,105
 124.605447456 728.204690728 124.605447456 728.204690728 126.588691458 743.091898953 c 0,18,19
734 697 m 128,-1,107
 734 656 734 656 762 627 c 128,-1,108
 790 598 790 598 830 598 c 0,109,110
 872 598 872 598 901 627 c 128,-1,111
 930 656 930 656 930 697 c 128,-1,112
 930 738 930 738 901 767 c 128,-1,113
 872 796 872 796 830 796 c 0,114,115
 791 796 791 796 762.5 767 c 128,-1,106
 734 738 734 738 734 697 c 128,-1,107
926.790219289 560.07367256 m 1,116,117
 924.217077796 543.659843464 924.217077796 543.659843464 912.516757511 530.236035407 c 0,118,119
 905 521 905 521 895.154894117 515.783332364 c 0,120,121
 885 510 885 510 873.815419103 508.685120018 c 0,122,123
 847 505 847 505 824.328653215 502.461197075 c 0,124,125
 802 500 802 500 784.641346761 497.993452624 c 0,126,127
 768 496 768 496 755.873495408 495.38627545 c 1,128,129
 760 462 760 462 762.295024522 400.414481032 c 0,130,131
 764 338 764 338 764.494289069 243.228645045 c 1,132,133
 833 212 833 212 928.9 136.2 c 0,134,135
 938 129 938 129 944.057278596 118.836176826 c 0,136,137
 950 108 950 108 951.310583633 96.8538725219 c 0,138,139
 954.058207475 74.5270130917 954.058207475 74.5270130917 942.231963536 55.6050227899 c 2,140,-1
 937.185643256 47.5309103417 l 2,141,142
 931 38 931 38 921.193974183 32.0443665832 c 0,143,144
 911 26 911 26 899.941103788 24.7018779762 c 0,145,146
 876 21 876 21 858.062390621 38.5125289854 c 0,147,148
 848 48 848 48 837.502524046 56.370949088 c 0,149,150
 827 65 827 65 818.180419577 72.3256570919 c 0,151,152
 809 80 809 80 800.025862534 86.4517933129 c 128,-1,153
 791 93 791 93 782.976418405 98.8367437245 c 0,154,155
 775 105 775 105 766.961872509 109.555648643 c 1,156,157
 766 100 766 100 765.158669981 91.2177079049 c 0,158,159
 764 83 764 83 762.280900661 74.8131572492 c 0,160,161
 761 67 761 67 758.072932398 58.7546455221 c 0,162,163
 748 27 748 27 726.856985226 -0.34511330386 c 0,164,165
 704 -29 704 -29 663.387666256 -45.0008680069 c 0,166,167
 624 -60 624 -60 570 -60.5 c 0,168,169
 462 -60 462 -60 401.563781288 -17.5382571581 c 0,170,171
 336 29 336 29 337.5 109 c 0,172,173
 338 134 338 134 344.962238903 157.108866865 c 0,174,175
 352 180 352 180 366.865851663 199.646486538 c 0,176,177
 381 219 381 219 402.383934071 235.53580977 c 0,178,179
 463 282 463 282 568 283.5 c 0,180,181
 606 284 606 284 639.628216372 278.841457445 c 1,182,183
 633 445 633 445 631.093798224 489.957565613 c 1,184,185
 583 489 583 489 555 488.5 c 0,186,187
 535 488 535 488 513.768889075 489.062392792 c 0,188,189
 492 490 492 490 468.650678011 490.745348906 c 0,190,191
 445 492 445 492 419.569841274 493.547619106 c 0,192,193
 408 494 408 494 398.02965653 499.11716844 c 0,194,195
 388 504 388 504 379.947855801 512.154771446 c 0,196,197
 370 522 370 522 367.768712876 531.012257864 c 0,198,199
 364 551 364 551 363.5 553 c 2,200,-1
 363.5 558 l 2,201,202
 364 583 364 583 381.075363535 598.443019251 c 0,203,204
 389 606 389 606 400.462248532 609.316456494 c 0,205,206
 411 613 411 613 422.355655371 611.385903282 c 0,207,208
 516 605 516 605 556.465164819 606.493781886 c 0,209,210
 572 607 572 607 585.89886706 607.356642124 c 0,211,212
 600 608 600 608 611.239771607 607.988851266 c 0,213,214
 623 608 623 608 630.955285145 608.359808666 c 1,215,-1
 632.4931124 666.028330709 l 2,216,217
 632 666 632 666 632.413555718 668.352898248 c 0,218,219
 632 670 632 670 632.273755504 672.193206307 c 0,220,221
 632 674 632 674 632.078123236 677.430436403 c 0,222,223
 632 680 632 680 631.828555671 684.012513701 c 0,224,225
 632 688 632 688 631.52946429 691.820619717 c 0,226,227
 630 714 630 714 646.431034483 732.327586207 c 0,228,229
 657 744 657 744 664.501884579 744.996478475 c 0,230,231
 666.47131438 744.998461084 666.47131438 744.998461084 673.037349177 746.425674691 c 1,232,233
 684.569601764 784.569601764 684.569601764 784.569601764 715 815 c 0,234,235
 764 864 764 864 830 864 c 0,236,237
 900 864 900 864 949 815 c 128,-1,238
 998 766 998 766 998 697 c 128,-1,239
 998 628 998 628 949 579 c 0,240,241
 938.387627635 568.387627635 938.387627635 568.387627635 926.790219289 560.07367256 c 1,116,117
EndSplineSet
Ligature2: "'ccmp' Glyph Composition/Decomposition lookup 5 subtable" cid01499 cid01540
EndChar

StartChar: cid01503
Encoding: 12403 12403 17
Width: 1024
GlyphClass: 3
Flags: W
LayerCount: 2
Fore
SplineSet
636.911132812 674.963867188 m 0,0,1
 630.604044668 697.038675695 630.604044668 697.038675695 640.702148438 717.233398438 c 0,2,3
 651.404946808 738.638995179 651.404946808 738.638995179 675.45703125 746.161132812 c 2,4,-1
 685.634765625 749.861328125 l 2,5,6
 686.517935602 750.183731006 686.517935602 750.183731006 687.435546875 750.4453125 c 0,7,8
 712.422260155 757.584152932 712.422260155 757.584152932 734.708007812 745.103515625 c 0,9,10
 756.479485846 732.911487926 756.479485846 732.911487926 761.479492188 709.578125 c 0,11,12
 813.117784679 501.076561015 813.117784679 501.076561015 940.373046875 360.221679688 c 0,13,14
 956 343.030828251 956 343.030828251 956 320.5 c 128,-1,15
 956 297.968581846 956 297.968581846 940.349609375 280.751953125 c 0,16,17
 939.973876953 280.339111328 939.973876953 280.339111328 939.58203125 279.947265625 c 2,18,-1
 928.307617188 268.673828125 l 2,19,20
 919.83070111 258.907402376 919.83070111 258.907402376 908.470703125 254.310546875 c 128,-1,21
 896.943835687 249.645449248 896.943835687 249.645449248 883.58984375 250.565429688 c 0,22,23
 856.819458642 252.412255299 856.819458642 252.412255299 842.295898438 272.384765625 c 0,24,25
 813.618164045 309.256564236 813.618164045 309.256564236 787.313476562 350.22265625 c 1,26,27
 785.93947385 319.508704592 785.93947385 319.508704592 781.831054688 289.388671875 c 0,28,29
 772.510501992 213.779781916 772.510501992 213.779781916 744.948242188 146.697265625 c 0,30,31
 717.108686886 78.9335554309 717.108686886 78.9335554309 673.23046875 28.1826171875 c 0,32,33
 628.261243411 -23.8302811651 628.261243411 -23.8302811651 561.212890625 -54.109375 c 0,34,35
 493.921656528 -84.5 493.921656528 -84.5 412 -84.5 c 0,36,37
 278.710445851 -84.5 278.710445851 -84.5 200.245117188 -4.376953125 c 0,38,39
 123 74.5008255746 123 74.5008255746 123 206 c 0,40,41
 123 328.632993497 123 328.632993497 179.034179688 445.889648438 c 0,42,43
 219.816588068 531.23341117 219.816588068 531.23341117 271.22265625 596.244140625 c 1,44,45
 200.287609375 584.49539693 200.287609375 584.49539693 169.829101562 578.120117188 c 0,46,47
 160.54143114 576.055848094 160.54143114 576.055848094 147.091796875 573.958007812 c 0,48,49
 120.955906031 569.091722373 120.955906031 569.091722373 100.633789062 584.111328125 c 0,50,51
 82.1605742718 597.765571709 82.1605742718 597.765571709 77.4521484375 619.739257812 c 0,52,53
 77.2697921647 620.590756111 77.2697921647 620.590756111 77.15625 621.484375 c 2,54,-1
 75.1787109375 637.307617188 l 2,55,56
 71.8349390352 660.714020503 71.8349390352 660.714020503 88.1142578125 678.70703125 c 128,-1,57
 104.364734454 696.668252051 104.364734454 696.668252051 128.629882812 698.401367188 c 0,58,59
 138.113015829 699.35015096 138.113015829 699.35015096 147.296875 700.370117188 c 0,60,61
 205.667092648 705.316992406 205.667092648 705.316992406 293.171875 719.16015625 c 0,62,63
 380.189228759 732.925851731 380.189228759 732.925851731 433.82421875 747.553710938 c 0,64,65
 459.418517073 754.378753958 459.418517073 754.378753958 481.834960938 742.30859375 c 0,66,67
 503.422001437 730.684098993 503.422001437 730.684098993 510.155273438 708.8046875 c 2,68,-1
 512.020507812 702.2734375 l 2,69,70
 519.407728008 679.984878129 519.407728008 679.984878129 509.297851562 659.766601562 c 0,71,72
 498.595489991 638.36187842 498.595489991 638.36187842 473.926757812 630.646484375 c 0,73,74
 467.183451159 628.351655236 467.183451159 628.351655236 463.138671875 626.330078125 c 0,75,76
 461.195082486 625.35913216 461.195082486 625.35913216 459.004882812 623.715820312 c 0,77,78
 433.316024021 604.449176219 433.316024021 604.449176219 400.602539062 564.625 c 0,79,80
 367.057184361 523.786984565 367.057184361 523.786984565 332.8359375 468.54296875 c 0,81,82
 299.1271167 414.128078979 299.1271167 414.128078979 275.903320312 345.909179688 c 0,83,84
 253 278.628129839 253 278.628129839 253 217 c 0,85,86
 253 128.279231698 253 128.279231698 298.733398438 86.859375 c 128,-1,87
 344.401923294 45.5 344.401923294 45.5 415 45.5 c 0,88,89
 508.311843926 45.5 508.311843926 45.5 572.317382812 114.428710938 c 0,90,91
 639.317665296 186.584702711 639.317665296 186.584702711 661.271484375 318.307617188 c 0,92,93
 670 371.648218581 670 371.648218581 670 434 c 0,94,95
 670 525.414488505 670 525.414488505 650.627929688 635.666992188 c 0,96,97
 643.694831688 654.61419451 643.694831688 654.61419451 636.911132812 674.963867188 c 0,0,1
734.551757812 886.563476562 m 0,98,99
 763.510093289 862.13756421 763.510093289 862.13756421 804.971679688 818.65234375 c 0,100,101
 805.410537588 818.192815006 805.410537588 818.192815006 805.793945312 817.743164062 c 0,102,103
 819.63453678 801.596502683 819.63453678 801.596502683 809.875 772.32421875 c 0,104,105
 803.244331631 753.755267192 803.244331631 753.755267192 787.916992188 737.790039062 c 0,106,107
 770.433385364 719.57857393 770.433385364 719.57857393 744.427734375 715.534179688 c 0,108,109
 716.363300311 711.223662817 716.363300311 711.223662817 700.286132812 728.604492188 c 0,110,111
 699.838111217 729.089979004 699.838111217 729.089979004 699.432617188 729.581054688 c 0,112,113
 665.310520068 770.911376441 665.310520068 770.911376441 643.014648438 789.490234375 c 0,114,115
 642.176453993 790.189756944 642.176453993 790.189756944 641.41796875 790.948242188 c 0,116,117
 625.205337257 807.159726371 625.205337257 807.159726371 633.9921875 835.279296875 c 0,118,119
 638.575723836 849.027931498 638.575723836 849.027931498 661.955078125 873.576171875 c 0,120,121
 686.650462148 899.919988333 686.650462148 899.919988333 711.188476562 895.010742188 c 0,122,123
 728.067989243 891.94356233 728.067989243 891.94356233 734.551757812 886.563476562 c 0,98,99
860.521484375 792.046875 m 0,124,125
 844.574221022 804.344783331 844.574221022 804.344783331 846.046875 819.9609375 c 0,126,127
 847.540602056 828.924340037 847.540602056 828.924340037 850.157226562 836.775390625 c 0,128,129
 859.463235132 862.031249704 859.463235132 862.031249704 877.572265625 875.961914062 c 0,130,131
 883.457058753 880.668473075 883.457058753 880.668473075 891.572265625 885.40234375 c 0,132,133
 902.525634 892.847806854 902.525634 892.847806854 916.452148438 895.943359375 c 0,134,135
 944.99760217 901.294868072 944.99760217 901.294868072 963.345703125 887.024414062 c 0,136,137
 964.930717244 885.792134299 964.930717244 885.792134299 966.26171875 884.34375 c 2,138,-1
 1022.9296875 822.704101562 l 2,139,140
 1031.6088477 814.024941366 1031.6088477 814.024941366 1033.72363281 801.337890625 c 0,141,142
 1034 799.6796875 1034 799.6796875 1034 798 c 0,143,144
 1034 785.769364921 1034 785.769364921 1030.22851562 775.32421875 c 0,145,146
 1020.46679168 745.444088577 1020.46679168 745.444088577 1006.17675781 735.620117188 c 0,147,148
 999.346307127 730.924911592 999.346307127 730.924911592 993.556640625 726.35546875 c 0,149,150
 986.201288606 720.871513315 986.201288606 720.871513315 964.118164062 716.974609375 c 0,151,152
 948.946513548 713.940279272 948.946513548 713.940279272 935.823242188 718.564453125 c 0,153,154
 923.73290604 722.82493756 923.73290604 722.82493756 915.666015625 732.91015625 c 0,155,156
 887.615237451 768.441046278 887.615237451 768.441046278 860.521484375 792.046875 c 0,124,125
EndSplineSet
Ligature2: "'ccmp' Glyph Composition/Decomposition lookup 5 subtable" cid01502 cid01539
EndChar

StartChar: cid01504
Encoding: 12404 12404 18
Width: 1024
GlyphClass: 3
Flags: W
LayerCount: 2
Fore
SplineSet
640.455576768 674.644300003 m 0,0,1
 634 692 634 692 644.269815394 717.615092303 c 0,2,3
 646 722 646 722 649.069613404 725.382518026 c 0,4,5
 652 729 652 729 655.060401084 732.162680099 c 0,6,7
 658 735 658 735 661.943156356 737.80623098 c 0,8,9
 665 741 665 741 669.486714847 742.293279704 c 0,10,11
 672 743 672 743 677.392054478 745.474478727 c 2,12,-1
 687.652524144 749.205558605 l 2,13,14
 688 749 688 749 689.09349575 749.672764874 c 0,15,16
 700 753 700 753 708.626469085 751.87480838 c 0,17,18
 710.783228698 751.60953949 710.783228698 751.60953949 712.749532358 751.332636475 c 0,19,20
 723.88615821 770.886158225 723.88615821 770.886158225 741 788 c 0,21,22
 790 837 790 837 856 837 c 0,23,24
 926 837 926 837 975 788 c 128,-1,25
 1024 739 1024 739 1024 670 c 128,-1,26
 1024 601 1024 601 975 552 c 128,-1,27
 926 503 926 503 856 503 c 0,28,29
 842.770034151 503 842.770034151 503 830.297127116 504.854794083 c 1,30,31
 873.757184906 438.77647645 873.757184906 438.77647645 936.931114654 360.437821687 c 0,32,33
 960 332 960 332 952.5 320.5 c 0,34,35
 941.147646077 302.011880753 941.147646077 302.011880753 936.908711578 280.537534929 c 0,36,37
 936.913707712 280.508116121 936.913707712 280.508116121 936.202795796 279.797204204 c 2,38,-1
 924.88719897 268.481607379 l 2,39,40
 906 250 906 250 884.02075503 251.550947939 c 0,41,42
 860 253 860 253 845.816083921 272.073932616 c 0,43,44
 830 292 830 292 814.06638183 315.267014281 c 0,45,46
 798 338 798 338 784.193955632 360.400776484 c 1,47,48
 784 342 784 342 782.183203071 324.511275007 c 0,49,50
 781 307 781 307 778.321526228 289.232035274 c 0,51,52
 769 214 769 214 741.386958497 146.329389145 c 0,53,54
 714 79 714 79 669.764073504 27.9383531167 c 0,55,56
 655 11 655 11 637.522519659 -4.10726348199 c 0,57,58
 620 -19 620 -19 600.490440209 -31.3097709773 c 0,59,60
 581 -44 581 -44 558.849114532 -53.5944678927 c 0,61,62
 493 -84 493 -84 412 -83.5 c 0,63,64
 281 -84 281 -84 203.639129138 -4.54305974069 c 0,65,66
 127 73 127 73 126.5 206 c 0,67,68
 126 329 126 329 182.601209989 446.270218235 c 0,69,70
 224 533 224 533 275.984507593 598.115393784 c 1,71,72
 200 586 200 586 168.534454089 578.98318915 c 0,73,74
 159 577 159 577 146.049856873 574.870469621 c 0,75,76
 122 570 122 570 103.720592187 584.210212958 c 0,77,78
 95 591 95 591 89.1231141993 599.770891197 c 0,79,80
 81 613 81 613 80.9772480973 619.495124592 c 0,81,82
 81 620 81 620 80.6660256507 621.333253206 c 2,83,-1
 78.6894163667 637.146127478 l 2,84,85
 76 661 76 661 91.5569807488 678.924636465 c 0,86,87
 99 687 99 687 108.736972248 691.812664449 c 0,88,89
 119 697 119 697 129.16406007 697.423638592 c 0,90,91
 139 698 139 698 147.904740844 699.399502368 c 0,92,93
 206 704 206 704 294.14064383 718.235930074 c 0,94,95
 382 732 382 732 436.264940538 746.721749099 c 0,96,97
 458 753 458 753 479.396819036 742.086722426 c 0,98,99
 499.995519583 731.002410945 499.995519583 731.002410945 507.701265626 707.885172815 c 2,100,-1
 509.544423232 702.355699997 l 2,101,102
 511 698 511 698 511.702337572 691.16057848 c 0,103,104
 512 686 512 686 511.750727528 680.204992249 c 0,105,106
 511 675 511 675 509.741765482 669.605429983 c 0,107,108
 508 664 508 664 505.730184606 659.384907697 c 0,109,110
 495 639 495 639 471.974015002 631.326026883 c 0,111,112
 468 630 468 630 465.469797968 628.934309733 c 128,-1,113
 463 628 463 628 460.615092303 626.769815394 c 0,114,115
 458 626 458 626 455.9 623.8 c 0,116,117
 443 614 443 614 428.437674558 599.378763435 c 0,118,119
 414 584 414 584 397.113614472 564.353102398 c 0,120,121
 364 523 364 523 329.277252768 468.17780802 c 0,122,123
 293 409 293 409 272.35297298 345.571328347 c 0,124,125
 248 271 248 271 249.5 217 c 0,126,127
 250 202 250 202 250.846283119 187.820893629 c 0,128,129
 252 174 252 174 254.853600107 161.794785575 c 0,130,131
 258 150 258 150 261.38913096 138.879908596 c 0,132,133
 265 128 265 128 270.408526139 118.819282926 c 0,134,135
 276 109 276 109 281.773067609 101.585488826 c 0,136,137
 288 94 288 94 295.432507801 86.9358940308 c 0,138,139
 319 66 319 66 348.464013187 55.0832346568 c 128,-1,140
 378 44 378 44 415 44.5 c 0,141,142
 511 44 511 44 575.74493993 114.629698636 c 0,143,144
 643 187 643 187 664.787317407 318.503298842 c 0,145,146
 674 372 674 372 673.5 434 c 0,147,148
 674 565 674 565 654.159362353 635.38020428 c 0,149,150
 652 643 652 643 640.455576768 674.644300003 c 0,0,1
760 670 m 128,-1,152
 760 629 760 629 788 600 c 128,-1,153
 816 571 816 571 856 571 c 0,154,155
 898 571 898 571 927 600 c 128,-1,156
 956 629 956 629 956 670 c 128,-1,157
 956 711 956 711 927 740 c 128,-1,158
 898 769 898 769 856 769 c 0,159,160
 817 769 817 769 788.5 740 c 128,-1,151
 760 711 760 711 760 670 c 128,-1,152
EndSplineSet
Ligature2: "'ccmp' Glyph Composition/Decomposition lookup 5 subtable" cid01502 cid01540
EndChar

StartChar: cid01506
Encoding: 12406 12406 19
Width: 1024
GlyphClass: 3
Flags: W
LayerCount: 2
Fore
SplineSet
730.8984375 546.209960938 m 0,0,1
 689.709918085 628.746034333 689.709918085 628.746034333 678.134765625 640.728515625 c 0,2,3
 660.427637574 659.551817558 660.427637574 659.551817558 672.721679688 688.94921875 c 0,4,5
 681.581580505 710.0052453 681.581580505 710.0052453 704.125 722.821289062 c 0,6,7
 728.354999389 735.56593995 728.354999389 735.56593995 748.185546875 735.374023438 c 0,8,9
 748.814162675 735.367799519 748.814162675 735.367799519 749.42578125 735.334960938 c 0,10,11
 777.859808194 733.787346198 777.859808194 733.787346198 792.263671875 714.4765625 c 0,12,13
 792.685146462 713.910538867 792.685146462 713.910538867 793.076171875 713.3125 c 0,14,15
 813.021748323 682.682151093 813.021748323 682.682151093 851.747070312 611.979492188 c 0,16,17
 863.399300653 590.982731684 863.399300653 590.982731684 852.684570312 567.08203125 c 0,18,19
 843.364143072 546.289988874 843.364143072 546.289988874 819.20703125 532.432617188 c 0,20,21
 794.402708225 517.510555993 794.402708225 517.510555993 770.266601562 520.791992188 c 0,22,23
 743.937325834 524.478090789 743.937325834 524.478090789 731.737304688 544.685546875 c 0,24,25
 731.291005956 545.424824025 731.291005956 545.424824025 730.8984375 546.209960938 c 0,0,1
861.145507812 657.576171875 m 0,26,27
 850.985028412 674.82477966 850.985028412 674.82477966 859.228515625 698.064453125 c 0,28,29
 866.88952276 717.856111233 866.88952276 717.856111233 885.3984375 730.409179688 c 0,30,31
 886.111600829 730.892836891 886.111600829 730.892836891 886.858398438 731.328125 c 0,32,33
 915.455008412 747.99035246 915.455008412 747.99035246 938.051757812 746.505859375 c 0,34,35
 968.735964567 744.555122618 968.735964567 744.555122618 980.678710938 723.845703125 c 0,36,37
 1002.12374194 689.494435681 1002.12374194 689.494435681 1038.62988281 623.098632812 c 0,38,39
 1051.11049418 600.780138246 1051.11049418 600.780138246 1035.92578125 574.758789062 c 0,40,41
 1024.34220212 554.706985696 1024.34220212 554.706985696 1004.13183594 543.1015625 c 0,42,43
 983.442274238 530.718264219 983.442274238 530.718264219 962.731445312 530.921875 c 0,44,45
 932.605879341 531.016640446 932.605879341 531.016640446 918.193359375 557.471679688 c 0,46,47
 881.568904349 621.063799162 881.568904349 621.063799162 861.145507812 657.576171875 c 0,26,27
588.875976562 507.618164062 m 0,48,49
 569.264897409 492.908693179 569.264897409 492.908693179 543.711914062 494.557617188 c 0,50,51
 518.842134968 496.162265425 518.842134968 496.162265425 501.233398438 512.170898438 c 0,52,53
 500.845996852 512.522429505 500.845996852 512.522429505 500.422851562 512.943359375 c 2,54,-1
 499.41796875 513.948242188 l 2,55,56
 483.353389778 530.011364715 483.353389778 530.011364715 485.055664062 552.99609375 c 0,57,58
 486.782310296 576.315218886 486.782310296 576.315218886 506.696289062 590.797851562 c 0,59,60
 515.669629247 596.780078352 515.669629247 596.780078352 524.009765625 602.778320312 c 1,61,62
 466.235708373 643.042351491 466.235708373 643.042351491 368.202148438 686.705078125 c 0,63,64
 345.544593967 696.145725821 345.544593967 696.145725821 339.203125 719.701171875 c 0,65,66
 333.153890465 742.169976345 333.153890465 742.169976345 347.387695312 761.7421875 c 2,67,-1
 351.854492188 767.325195312 l 2,68,69
 366.964217543 785.456865739 366.964217543 785.456865739 389.8984375 791.573242188 c 0,70,71
 391.156498373 791.909236494 391.156498373 791.909236494 392.447265625 792.124023438 c 0,72,73
 400.703125 793.5 400.703125 793.5 409 793.5 c 0,74,75
 423.835652967 793.5 423.835652967 793.5 438.087890625 787.166015625 c 0,76,77
 559.089200509 733.274032044 559.089200509 733.274032044 635.775390625 682.150390625 c 0,78,79
 665.175455586 662.976435216 665.175455586 662.976435216 677.836914062 628.791992188 c 0,80,81
 682 616.301256006 682 616.301256006 682 606 c 0,82,83
 682 578.895864828 682 578.895864828 658.499023438 560.095703125 c 0,84,85
 626.091183526 534.775719048 626.091183526 534.775719048 588.875976562 507.618164062 c 0,48,49
340.091796875 -45.224609375 m 0,86,87
 316.436850383 -42.0700290643 316.436850383 -42.0700290643 298.916992188 -24.5517578125 c 0,88,89
 282.053080675 -7.68636414911 282.053080675 -7.68636414911 279.166992188 15.40234375 c 2,90,-1
 277.205078125 30.1171875 l 2,91,92
 273.459589248 54.4637145198 273.459589248 54.4637145198 292.419921875 70.4296875 c 0,93,94
 312.167040206 87.060046589 312.167040206 87.060046589 337.434570312 80.7431640625 c 0,95,96
 395.136396885 67.5 395.136396885 67.5 461 67.5 c 0,97,98
 494.915034563 67.5 494.915034563 67.5 518.36328125 82.7412109375 c 0,99,100
 538 95.5047516082 538 95.5047516082 538 129 c 0,101,102
 538 200.659834869 538 200.659834869 414.055664062 336.310546875 c 0,103,104
 389.622704879 360.717903935 389.622704879 360.717903935 360.577148438 387.846679688 c 0,105,106
 341.672180653 404.169533032 341.672180653 404.169533032 342.512695312 427.72265625 c 0,107,108
 343.330169454 450.616684972 343.330169454 450.616684972 360.322265625 465.91015625 c 0,109,110
 360.963610309 466.4872134 360.963610309 466.4872134 361.654296875 467.024414062 c 2,111,-1
 369.990234375 473.5078125 l 2,112,113
 387.546573255 488.5 387.546573255 488.5 411 488.5 c 2,114,-1
 413 488.5 l 2,115,116
 413.899515086 488.5 413.899515086 488.5 414.845703125 488.438476562 c 0,117,118
 439.863460922 486.771849255 439.863460922 486.771849255 456.58203125 470.051757812 c 0,119,120
 456.979600694 469.654188368 456.979600694 469.654188368 457.348632812 469.248046875 c 0,121,122
 477.192089093 447.421268051 477.192089093 447.421268051 506.083984375 415.540039062 c 0,123,124
 587.787940867 331.668996095 587.787940867 331.668996095 629.8984375 262.854492188 c 0,125,126
 674 190.78488747 674 190.78488747 674 121 c 0,127,128
 674 81.139923462 674 81.139923462 661.5703125 49.4990234375 c 0,129,130
 648.720892274 16.7947339523 648.720892274 16.7947339523 626.838867188 -3.263671875 c 0,131,132
 605.813095665 -22.5363210013 605.813095665 -22.5363210013 577.9296875 -34.736328125 c 0,133,134
 551.020409714 -46.50792647 551.020409714 -46.50792647 525.344726562 -51.07421875 c 0,135,136
 500.44386827 -55.5 500.44386827 -55.5 474 -55.5 c 0,137,138
 407.910252114 -55.5 407.910252114 -55.5 340.091796875 -45.224609375 c 0,86,87
968.545898438 111.572265625 m 0,139,140
 973 99.696104316 973 99.696104316 973 89 c 128,-1,141
 973 78.4940745418 973 78.4940745418 968.578125 67.4892578125 c 0,142,143
 960.340938534 45.9952858201 960.340938534 45.9952858201 937.791992188 34.1298828125 c 2,144,-1
 926.220703125 27.8994140625 l 2,145,146
 915.837146052 21.8414659483 915.837146052 21.8414659483 903.916992188 20.6728515625 c 0,147,148
 890.935175349 19.402230622 890.935175349 19.402230622 878.17578125 24.310546875 c 0,149,150
 854.95678192 33.2398366215 854.95678192 33.2398366215 846.77734375 57.3046875 c 0,151,152
 824.466769309 120.148772501 824.466769309 120.148772501 787.920898438 189.340820312 c 128,-1,153
 751.414018635 258.460336993 751.414018635 258.460336993 713.858398438 309.62109375 c 0,154,155
 699.830114425 328.240520341 699.830114425 328.240520341 703.81640625 350.5703125 c 0,156,157
 708.244302161 375.361882633 708.244302161 375.361882633 730.857421875 386.666992188 c 2,158,-1
 736.02734375 389.252929688 l 2,159,160
 752.211951828 398.5 752.211951828 398.5 769 398.5 c 0,161,162
 775.744754262 398.5 775.744754262 398.5 783.423828125 396.963867188 c 0,163,164
 807.884556601 392.071158465 807.884556601 392.071158465 822.997070312 371.231445312 c 0,165,166
 863.868602089 317.966610352 863.868602089 317.966610352 902.936523438 246.423828125 c 128,-1,167
 941.964299021 174.959269262 941.964299021 174.959269262 968.545898438 111.572265625 c 0,139,140
240.108398438 277.758789062 m 0,168,169
 256.999382051 295.5 256.999382051 295.5 281 295.5 c 2,170,-1
 283 295.5 l 2,171,172
 283.988051471 295.5 283.988051471 295.5 284.9765625 295.4296875 c 0,173,174
 310.360255193 293.617843739 310.360255193 293.617843739 326.06640625 274.420898438 c 2,175,-1
 331 268.499023438 l 2,176,177
 331.487222965 267.914980525 331.487222965 267.914980525 331.916992188 267.322265625 c 0,178,179
 344 250.710875023 344 250.710875023 344 230 c 0,180,181
 344 205.91624012 344 205.91624012 327.284179688 187.680664062 c 0,182,183
 326.790364641 187.142092366 326.790364641 187.142092366 326.227539062 186.600585938 c 0,184,185
 227.549536232 91.9920667638 227.549536232 91.9920667638 118.721679688 21.814453125 c 0,186,187
 103.252340293 11.5 103.252340293 11.5 84 11.5 c 0,188,189
 76.8613592505 11.5 76.8613592505 11.5 70.0712890625 13.353515625 c 0,190,191
 46.3742771432 18.6193540601 46.3742771432 18.6193540601 32.1796875 37.5439453125 c 2,192,-1
 23.814453125 49.0458984375 l 2,193,194
 14 63.7683256081 14 63.7683256081 14 79 c 0,195,196
 14 85.4984068705 14 85.4984068705 15.564453125 91.7578125 c 0,197,198
 20.459742714 112.973812851 20.459742714 112.973812851 40.119140625 126.080078125 c 0,199,200
 40.6298076923 126.420522837 40.6298076923 126.420522837 41.1328125 126.720703125 c 0,201,202
 153.284375963 194.013399225 153.284375963 194.013399225 240.108398438 277.758789062 c 0,168,169
EndSplineSet
Ligature2: "'ccmp' Glyph Composition/Decomposition lookup 5 subtable" cid01505 cid01539
EndChar

StartChar: cid01507
Encoding: 12407 12407 20
Width: 1024
GlyphClass: 3
Flags: W
LayerCount: 2
Fore
SplineSet
748 591.5 m 128,-1,1
 748 551 748 551 776 522 c 128,-1,2
 804 493 804 493 843 493 c 0,3,4
 885 493 885 493 914 522 c 128,-1,5
 943 551 943 551 943 591.5 c 128,-1,6
 943 632 943 632 914 661 c 128,-1,7
 885 690 885 690 843 690 c 0,8,9
 804 690 804 690 776 661 c 128,-1,0
 748 632 748 632 748 591.5 c 128,-1,1
679 591 m 128,-1,11
 679 660 679 660 728 709 c 128,-1,12
 777 758 777 758 843 758 c 0,13,14
 913 758 913 758 962.5 709 c 128,-1,15
 1012 660 1012 660 1012 591 c 128,-1,16
 1012 522 1012 522 962.5 473.5 c 128,-1,17
 913 425 913 425 843 425 c 0,18,19
 775 425 775 425 727 473.5 c 128,-1,10
 679 522 679 522 679 591 c 128,-1,11
585.787341078 507.715505809 m 0,20,21
 567.544132421 494.033099315 567.544132421 494.033099315 544.115781023 495.544605857 c 0,22,23
 533.000374623 496.261728851 533.000374623 496.261728851 522.832065091 500.482771987 c 128,-1,24
 512.663755559 504.703815122 512.663755559 504.703815122 504.537534929 512.091288422 c 0,25,26
 504.158970566 512.435437843 504.158970566 512.435437843 503.797204204 512.797204204 c 2,27,-1
 502.797204204 513.797204204 l 2,28,29
 486.83097941 529.763428999 486.83097941 529.763428999 488.558743279 553.088241239 c 128,-1,30
 490.294906329 576.526442416 490.294906329 576.526442416 509.709014417 590.645793752 c 0,31,32
 519.073910054 596.88905751 519.073910054 596.88905751 527.234991157 602.780488839 c 1,33,34
 498.644194015 622.781163636 498.644194015 622.781163636 459.29605534 644.003934494 c 128,-1,35
 419.947916665 665.226705351 419.947916665 665.226705351 370.490493673 687.25396097 c 0,36,37
 366.493418212 688.919409078 366.493418212 688.919409078 362.819070814 691.370034517 c 128,-1,38
 359.144723417 693.820659956 359.144723417 693.820659956 356.015628251 696.886191496 c 128,-1,39
 352.886533085 699.951723036 352.886533085 699.951723036 350.305036851 703.525885191 c 128,-1,40
 347.723540617 707.100047346 347.723540617 707.100047346 345.804624209 711.126193704 c 128,-1,41
 343.8857078 715.152340062 343.8857078 715.152340062 342.739261192 719.410570321 c 0,42,43
 336.567498085 742.334261859 336.567498085 742.334261859 350.612174187 761.6456915 c 0,44,-1
 355.345616604 767.598813531 l 2,45,46
 369.857760848 785.013386624 369.857760848 785.013386624 391.460253013 790.774051201 c 0,47,48
 392.452486689 791.038646848 392.452486689 791.038646848 393.465421773 791.207469362 c 0,49,50
 397.331276226 791.851778438 397.331276226 791.851778438 401.220613544 792.175889219 c 128,-1,51
 405.109950862 792.5 405.109950862 792.5 409 792.5 c 0,52,53
 422.562594605 792.5 422.562594605 792.5 435.747287651 786.640136424 c 0,54,55
 475.83914518 768.784099037 475.83914518 768.784099037 511.037265093 751.244035742 c 128,-1,56
 546.235385005 733.703972447 546.235385005 733.703972447 576.749147437 716.350908338 c 128,-1,57
 607.262909869 698.997844228 607.262909869 698.997844228 632.835707628 681.949312389 c 0,58,59
 647.175776935 672.597093275 647.175776935 672.597093275 657.601200873 659.314390248 c 128,-1,60
 668.026624811 646.03168722 668.026624811 646.03168722 674.284651611 629.13501486 c 0,61,62
 678.5 616.488969694 678.5 616.488969694 678.5 606 c 0,63,64
 678.5 599.23390697 678.5 599.23390697 676.884575834 592.734239047 c 128,-1,65
 675.269151668 586.234571125 675.269151668 586.234571125 672.241460722 580.449919298 c 128,-1,66
 669.213769776 574.665267472 669.213769776 574.665267472 664.955466006 569.54478152 c 128,-1,67
 660.697162236 564.424295568 660.697162236 564.424295568 655.33408898 560.133836963 c 0,68,69
 622.958451281 534.840370011 622.958451281 534.840370011 585.787341078 507.715505809 c 0,20,21
340.968591532 -44.2860813998 m 0,70,71
 318.943858775 -41.3494503655 318.943858775 -41.3494503655 302.297204204 -24.7027957955 c 128,-1,72
 285.581007143 -7.98659873425 285.581007143 -7.98659873425 282.676954757 15.2458203538 c 2,73,-1
 280.717155241 29.9443167247 l 2,74,75
 276.913704438 54.6667469465 276.913704438 54.6667469465 295.651081466 70.4455907595 c 0,76,77
 303.969692902 77.4507372326 303.969692902 77.4507372326 314.831518096 79.9821890777 c 128,-1,78
 325.693343289 82.5136409229 325.693343289 82.5136409229 336.012421891 79.9085872649 c 0,79,80
 394.435552117 66.5 394.435552117 66.5 461 66.5 c 0,81,82
 496.626538538 66.5 496.626538538 66.5 521.282750462 82.5265377505 c 0,83,84
 531.371300568 89.0840953193 531.371300568 89.0840953193 536.435650284 99.9784230114 c 128,-1,85
 541.5 110.872750703 541.5 110.872750703 541.5 129 c 0,86,87
 541.5 162.154441198 541.5 162.154441198 510.460478841 215.233345504 c 128,-1,88
 479.420957683 268.312249811 479.420957683 268.312249811 417.465858725 336.128542975 c 0,89,90
 392.995470914 360.57324009 392.995470914 360.57324009 363.926368732 387.725698172 c 0,91,92
 345.165657558 404.022217861 345.165657558 404.022217861 346.013698632 427.767367906 c 0,93,94
 346.4057029 438.743487428 346.4057029 438.743487428 350.957562992 448.713629952 c 128,-1,95
 355.509423084 458.683772477 355.509423084 458.683772477 363.61725827 465.980824144 c 0,96,97
 364.190991896 466.497184407 364.190991896 466.497184407 364.800276809 466.971072674 c 2,98,-1
 373.188362613 473.495139409 l 2,99,100
 381.690645771 480.756213347 381.690645771 480.756213347 391.039928381 484.128106674 c 128,-1,101
 400.389210991 487.5 400.389210991 487.5 411 487.5 c 2,102,-1
 413 487.5 l 1,103,-1
 414.430158726 487.452380894 l 2,104,105
 437.490571552 485.915020039 437.490571552 485.915020039 453.202795796 470.202795796 c 2,106,-1
 453.908711578 469.462465071 l 2,107,108
 473.642089224 447.75574966 473.642089224 447.75574966 502.662519395 415.734168702 c 0,109,110
 584.295238405 331.927560954 584.295238405 331.927560954 626.338790136 263.22224471 c 0,111,112
 670.5 191.056365177 670.5 191.056365177 670.5 121 c 0,113,114
 670.148274323 80.5938747436 670.148274323 80.5938747436 658.011157109 49.1384739929 c 0,115,116
 651.713998005 33.1093417283 651.713998005 33.1093417283 643.118726727 19.9198111608 c 128,-1,117
 634.523455449 6.7302805933 634.523455449 6.7302805933 623.528079513 -3.34881401432 c 0,118,119
 618.350063085 -8.09532907315 618.350063085 -8.09532907315 612.735178708 -12.4127684388 c 128,-1,120
 607.12029433 -16.7302078045 607.12029433 -16.7302078045 601.120359163 -20.5842864074 c 128,-1,121
 595.120423995 -24.4383650104 595.120423995 -24.4383650104 588.746599555 -27.8401803776 c 128,-1,122
 582.372775116 -31.2419957448 582.372775116 -31.2419957448 575.617604931 -34.1973827004 c 0,123,124
 569.09379317 -37.0515503459 569.09379317 -37.0515503459 562.648056427 -39.4727413468 c 128,-1,125
 556.202319683 -41.8939323476 556.202319683 -41.8939323476 549.782033986 -43.8986651287 c 128,-1,126
 543.361748289 -45.9033979097 543.361748289 -45.9033979097 536.970939179 -47.4742425026 c 128,-1,127
 530.58013007 -49.0450870955 530.58013007 -49.0450870955 524.263216696 -50.1680939174 c 0,128,129
 499.896244982 -54.5 499.896244982 -54.5 474 -54.5 c 0,130,131
 441.153521381 -54.5 441.153521381 -54.5 407.939367524 -51.9503605586 c 128,-1,132
 374.725213667 -49.4007211172 374.725213667 -49.4007211172 340.968591532 -44.2860813998 c 0,70,71
964.98646021 111.934799614 m 0,133,134
 966.146902979 108.840285565 966.146902979 108.840285565 966.975394837 106.046640708 c 128,-1,135
 967.803886696 103.252995851 967.803886696 103.252995851 968.377128777 100.433974398 c 128,-1,136
 968.950370857 97.614952945 968.950370857 97.614952945 969.225185429 94.7955611673 c 128,-1,137
 969.5 91.9761693896 969.5 91.9761693896 969.5 89 c 0,138,139
 969.5 78.3791029668 969.5 78.3791029668 964.965364672 66.9843782973 c 0,140,141
 956.60323919 45.2638888369 956.60323919 45.2638888369 935.906391879 34.9154651813 c 2,142,-1
 923.516249359 28.2438499782 l 2,143,144
 902.916648474 16.2274161286 902.916648474 16.2274161286 880.281949795 24.9330694666 c 0,145,146
 858.378855173 33.357336629 858.378855173 33.357336629 850.273428285 57.1194000702 c 0,147,148
 827.634199234 120.362030646 827.634199234 120.362030646 791.488799014 188.958872719 c 0,149,150
 754.98611523 258.070620683 754.98611523 258.070620683 717.796644227 308.741070767 c 0,151,152
 709.409685503 319.951992808 709.409685503 319.951992808 707.170379454 330.276161769 c 128,-1,153
 704.931073405 340.600330731 704.931073405 340.600330731 707.334807127 350.779498727 c 0,154,155
 709.378334552 362.223252312 709.378334552 362.223252312 716.204490234 371.638153014 c 128,-1,156
 723.030645916 381.053053716 723.030645916 381.053053716 733.384907697 386.230184606 c 2,157,-1
 738.660671246 388.868066381 l 2,158,159
 753.766555079 397.5 753.766555079 397.5 769 397.5 c 0,160,161
 772.225561026 397.5 772.225561026 397.5 775.493797038 397.136688649 c 128,-1,162
 778.762033051 396.773377298 778.762033051 396.773377298 782.216496905 396.082484527 c 0,163,164
 793.503026799 393.825178549 793.503026799 393.825178549 803.091365722 387.363493038 c 128,-1,165
 812.679704644 380.901807528 812.679704644 380.901807528 819.493697424 371.520223266 c 0,166,167
 860.337305877 318.279486094 860.337305877 318.279486094 899.369638073 246.804695969 c 0,168,169
 907.158610904 232.541771692 907.158610904 232.541771692 914.461553942 218.580232692 c 128,-1,170
 921.764496979 204.618693692 921.764496979 204.618693692 928.57871931 190.962982412 c 128,-1,171
 935.392941641 177.307271132 935.392941641 177.307271132 941.710412059 163.973757304 c 128,-1,172
 948.027882477 150.640243477 948.027882477 150.640243477 953.849899732 137.624092313 c 128,-1,173
 959.671916986 124.607941148 959.671916986 124.607941148 964.98646021 111.934799614 c 0,133,134
243.492677746 277.91334656 m 0,174,175
 251.507239676 286.332004049 251.507239676 286.332004049 260.865223074 290.416002025 c 128,-1,176
 270.223206473 294.5 270.223206473 294.5 281 294.5 c 2,177,-1
 283 294.5 l 2,178,179
 283.345072839 294.5 283.345072839 294.5 283.791532268 294.48317459 c 128,-1,180
 284.237991697 294.46634918 284.237991697 294.46634918 284.531811575 294.445362046 c 0,181,182
 295.646843288 293.65143121 295.646843288 293.65143121 305.604051267 288.458969047 c 128,-1,183
 315.561259246 283.266506885 315.561259246 283.266506885 322.578756094 274.689566294 c 2,184,-1
 327.516757511 268.763964593 l 1,185,-1
 328.387825813 267.6456915 l 2,186,187
 340.5 250.991451992 340.5 250.991451992 340.5 230 c 0,188,189
 340.5 222.133661869 340.5 222.133661869 338.563930031 214.557976616 c 128,-1,190
 336.627860063 206.982291363 336.627860063 206.982291363 332.904041802 200.135147485 c 128,-1,191
 329.180223542 193.288003608 329.180223542 193.288003608 323.848814014 187.471920487 c 0,192,193
 323.380117913 186.960615649 323.380117913 186.960615649 322.879439919 186.48058417 c 0,194,195
 224.38815083 92.0507915382 224.38815083 92.0507915382 115.789653033 22.0199845475 c 0,196,197
 108.920313189 17.440424652 108.920313189 17.440424652 100.676514028 14.970212326 c 128,-1,198
 92.4327148662 12.5 92.4327148662 12.5 84 12.5 c 0,199,200
 81.4135649372 12.5 81.4135649372 12.5 77.3657190869 13.0964977095 c 128,-1,201
 73.3178732366 13.6929954189 73.3178732366 13.6929954189 71.5418207996 14.1773733563 c 0,202,203
 49.2508235996 19.1655685339 49.2508235996 19.1655685339 35.7051521866 37.2264637512 c 2,204,-1
 27.3542062479 48.7090144169 l 2,205,206
 17.5 63.4903237888 17.5 63.4903237888 17.5 79 c 0,207,208
 17.5 82.2125271569 17.5 82.2125271569 17.9258716295 85.6331355718 c 128,-1,209
 18.351743259 89.0537439867 18.351743259 89.0537439867 19.0945354736 92.0249128453 c 0,210,211
 23.970325004 113.153334143 23.970325004 113.153334143 43.0739457812 125.889081328 c 0,212,213
 43.4996351051 126.172874211 43.4996351051 126.172874211 43.9383412583 126.436097903 c 0,214,215
 156.39041233 193.907340546 156.39041233 193.907340546 243.492677746 277.91334656 c 0,174,175
EndSplineSet
Ligature2: "'ccmp' Glyph Composition/Decomposition lookup 5 subtable" cid01505 cid01540
EndChar

StartChar: cid01509
Encoding: 12409 12409 21
Width: 1024
GlyphClass: 3
Flags: W
LayerCount: 2
Fore
SplineSet
644.939453125 544.799804688 m 0,0,1
 603.768920074 627.616482919 603.768920074 627.616482919 592.51953125 638.950195312 c 0,2,3
 592.068298476 639.406032503 592.068298476 639.406032503 591.641601562 639.884765625 c 0,4,5
 576.140965613 657.325564125 576.140965613 657.325564125 586.489257812 686.799804688 c 0,6,7
 595.544456063 709.212568038 595.544456063 709.212568038 618.163085938 721.369140625 c 0,8,9
 639.498926027 733.293102781 639.498926027 733.293102781 661.1640625 733.923828125 c 0,10,11
 661.939575457 733.946682141 661.939575457 733.946682141 662.727539062 733.92578125 c 0,12,13
 691.855383105 733.132958322 691.855383105 733.132958322 706.641601562 712.59375 c 0,14,15
 709.729681613 708.165915973 709.729681613 708.165915973 765.62890625 610.848632812 c 0,16,17
 777.395329661 590.252397606 777.395329661 590.252397606 765.51171875 565.17578125 c 0,18,19
 755.59183835 543.461397383 755.59183835 543.461397383 733.00390625 530.848632812 c 0,20,21
 709.125968365 516.686721325 709.125968365 516.686721325 685.162109375 519.249023438 c 0,22,23
 684.314030209 519.338534476 684.314030209 519.338534476 683.454101562 519.485351562 c 0,24,25
 657.911093896 523.845309925 657.911093896 523.845309925 645.967773438 542.961914062 c 0,26,27
 645.40680721 543.86099692 645.40680721 543.86099692 644.939453125 544.799804688 c 0,0,1
805.137695312 654.25 m 0,28,29
 794.968050149 672.165013982 794.968050149 672.165013982 803.283203125 694.615234375 c 0,30,31
 810.863250804 715.081967337 810.863250804 715.081967337 830.19921875 727.456054688 c 0,32,33
 856.561180558 743.679910616 856.561180558 743.679910616 881.15625 743.111328125 c 0,34,35
 912.744376366 741.931275504 912.744376366 741.931275504 925.270507812 719.459960938 c 0,36,37
 943.336061241 684.137867849 943.336061241 684.137867849 982.237304688 620.428710938 c 0,38,39
 996.438878226 597.118673512 996.438878226 597.118673512 979.43359375 570.404296875 c 0,40,41
 967.42916308 550.951515685 967.42916308 550.951515685 948.14453125 539.646484375 c 0,42,43
 927.424151597 527.5 927.424151597 527.5 906 527.5 c 0,44,45
 877.045279296 527.5 877.045279296 527.5 861.98046875 554.502929688 c 0,46,47
 825.643381551 617.930606577 825.643381551 617.930606577 805.137695312 654.25 c 0,28,29
169.138671875 203.962890625 m 0,48,49
 153.581327434 181.968545638 153.581327434 181.968545638 126.991210938 181.017578125 c 0,50,51
 101.264646269 180.099464236 101.264646269 180.099464236 83.099609375 198.267578125 c 2,52,-1
 58.642578125 224.680664062 l 2,53,54
 43 241.191786907 43 241.191786907 43 262 c 0,55,56
 43 286.199010244 43 286.199010244 62.2412109375 303.836914062 c 0,57,58
 81.5055709702 321.17353164 81.5055709702 321.17353164 106.099609375 347.733398438 c 0,59,60
 129.664616959 371.298406022 129.664616959 371.298406022 164 412.5 c 0,61,62
 198.792714732 454.251257679 198.792714732 454.251257679 241.553710938 508.948242188 c 0,63,64
 284.487183229 563.861514589 284.487183229 563.861514589 304.01171875 586.518554688 c 0,65,66
 354.827640885 648.394622481 354.827640885 648.394622481 408.4296875 653.380859375 c 0,67,68
 409.706630609 653.5 409.706630609 653.5 411 653.5 c 2,69,-1
 417 653.5 l 2,70,71
 466.818401834 653.5 466.818401834 653.5 522.223632812 600.403320312 c 0,72,73
 522.666219821 599.978676021 522.666219821 599.978676021 523.107421875 599.509765625 c 0,74,75
 553.471132696 567.120941366 553.471132696 567.120941366 625.301757812 483.234375 c 0,76,77
 696.451986408 400.143848914 696.451986408 400.143848914 728.219726562 366.390625 c 0,78,79
 855.715309395 225.944504619 855.715309395 225.944504619 951.940429688 135.669921875 c 0,80,81
 971 118.200543979 971 118.200543979 971 93 c 0,82,83
 971 72.0302057633 971 72.0302057633 956.645507812 56.080078125 c 2,84,-1
 939.607421875 36.037109375 l 2,85,86
 921.848089578 16.5 921.848089578 16.5 895 16.5 c 2,87,-1
 894 16.5 l 2,88,89
 869.644314236 16.5 869.644314236 16.5 852.322265625 32.08984375 c 0,90,91
 851.912291981 32.4580464947 851.912291981 32.4580464947 851.526367188 32.83984375 c 0,92,93
 773.934999482 109.424118118 773.934999482 109.424118118 636.493164062 265.927734375 c 0,94,95
 608.256099771 297.189730735 608.256099771 297.189730735 539.921875 380.094726562 c 0,96,97
 472.351211272 462.073077412 472.351211272 462.073077412 446.934570312 489.4453125 c 0,98,99
 428.818462293 508.384276708 428.818462293 508.384276708 418.623046875 512.331054688 c 0,100,101
 415.581626814 513.507973261 415.581626814 513.507973261 414.3671875 512.778320312 c 0,102,103
 405.751783482 507.610521421 405.751783482 507.610521421 390.364257812 487.948242188 c 0,104,105
 370.384042977 462.972973643 370.384042977 462.972973643 302.997070312 376.119140625 c 0,106,107
 235.400834839 288.994451752 235.400834839 288.994451752 207.350585938 253.931640625 c 0,108,109
 196.691962879 240.36527986 196.691962879 240.36527986 169.138671875 203.962890625 c 0,48,49
EndSplineSet
Ligature2: "'ccmp' Glyph Composition/Decomposition lookup 5 subtable" cid01508 cid01539
EndChar

StartChar: cid01510
Encoding: 12410 12410 22
Width: 1024
GlyphClass: 3
Flags: W
LayerCount: 2
Fore
SplineSet
691 611.5 m 132,-1,1
 691 571 691 571 719 542 c 132,-1,2
 747 513 747 513 786 513 c 4,3,4
 828 513 828 513 857 542 c 132,-1,5
 886 571 886 571 886 611.5 c 132,-1,6
 886 652 886 652 857 681 c 132,-1,7
 828 710 828 710 786 710 c 4,8,9
 747 710 747 710 719 681 c 132,-1,0
 691 652 691 652 691 611.5 c 132,-1,1
622 611 m 132,-1,11
 622 680 622 680 671 729 c 132,-1,12
 720 778 720 778 786 778 c 4,13,14
 856 778 856 778 905.5 729 c 132,-1,15
 955 680 955 680 955 611 c 132,-1,16
 955 542 955 542 905.5 493.5 c 132,-1,17
 856 445 856 445 786 445 c 4,18,19
 718 445 718 445 670 493.5 c 132,-1,10
 622 542 622 542 622 611 c 132,-1,11
165.656805371 203.703281826 m 0,20,21
 158.129563438 193.107502078 158.129563438 193.107502078 148.373972783 187.772225609 c 128,-1,22
 138.618382128 182.436949139 138.618382128 182.436949139 126.767367906 182.013698632 c 0,23,24
 103.414732472 181.179675937 103.414732472 181.179675937 86.5049507888 198.08945762 c 2,25,-1
 62.3850706387 224.138928182 l 2,26,27
 46.5 240.980044739 46.5 240.980044739 46.5 262 c 0,28,29
 46.5 286.457886901 46.5 286.457886901 65.5442879918 303.915150894 c 0,30,31
 84.889423185 321.325772568 84.889423185 321.325772568 109.504950789 347.91054238 c 0,32,33
 133.107589923 371.513181514 133.107589923 371.513181514 167.483242489 412.763964593 c 0,34,35
 184.858446306 433.614209173 184.858446306 433.614209173 204.258120415 457.739436341 c 128,-1,36
 223.657794523 481.864663509 223.657794523 481.864663509 245.062145924 509.242322278 c 0,37,38
 288.385335126 564.655703815 288.385335126 564.655703815 307.526996855 586.819733185 c 0,39,40
 357.029064493 647.572270742 357.029064493 647.572270742 409.008597568 652.407576144 c 0,41,42
 409.456523312 652.449243655 409.456523312 652.449243655 410.035749705 652.474621827 c 128,-1,43
 410.614976098 652.5 410.614976098 652.5 411 652.5 c 2,44,-1
 417 652.5 l 2,45,46
 464.638831129 652.5 464.638831129 652.5 518.87596531 600.52274641 c 0,47,48
 519.29145527 600.124568531 519.29145527 600.124568531 519.685049889 599.704734271 c 0,49,50
 550.016097228 567.351617109 550.016097228 567.351617109 621.830917783 483.483959538 c 0,51,52
 693.002433809 400.36757369 693.002433809 400.36757369 724.788890601 366.594463348 c 0,53,54
 852.339166073 226.089863024 852.339166073 226.089863024 948.619582318 135.764936444 c 0,55,56
 967.5 118.457886901 967.5 118.457886901 967.5 93 c 0,57,58
 967.5 82.8046546486 967.5 82.8046546486 963.686169834 73.0395761945 c 128,-1,59
 959.872339668 63.2744977403 959.872339668 63.2744977403 953.184504843 55.8435701573 c 2,60,-1
 936.149685744 35.8026065115 l 2,61,62
 919.510952552 17.5 919.510952552 17.5 895 17.5 c 2,63,-1
 894 17.5 l 2,64,65
 871.749675888 17.5 871.749675888 17.5 855.61725827 32.0191758557 c 2,66,-1
 854.896891471 32.6981663591 l 2,67,68
 816.019620709 71.0705375012 816.019620709 71.0705375012 762.288904025 129.320480017 c 128,-1,69
 708.558187341 187.570422532 708.558187341 187.570422532 639.944259 265.700151154 c 0,70,71
 636.395873032 269.628721332 636.395873032 269.628721332 632.221747801 274.36398379 c 128,-1,72
 628.04762257 279.099246247 628.04762257 279.099246247 623.252993909 284.635232096 c 128,-1,73
 618.458365248 290.171217945 618.458365248 290.171217945 613.043754293 296.506567669 c 128,-1,74
 607.629143338 302.841917392 607.629143338 302.841917392 601.591124945 309.98097157 c 128,-1,75
 595.553106551 317.120025747 595.553106551 317.120025747 588.901440233 325.050428095 c 128,-1,76
 582.249773914 332.980830444 582.249773914 332.980830444 574.971796149 341.717918309 c 128,-1,77
 567.693818383 350.455006174 567.693818383 350.455006174 559.808527061 359.975426507 c 128,-1,78
 551.923235738 369.495846841 551.923235738 369.495846841 543.40930636 379.825246454 c 0,79,80
 475.813026702 461.835438686 475.813026702 461.835438686 450.353213019 489.253699576 c 0,81,82
 431.773079163 508.678384971 431.773079163 508.678384971 420.738626795 512.949785887 c 0,83,84
 415.044861818 515.153823943 415.044861818 515.153823943 411.561658742 513.063902097 c 0,85,86
 402.476790459 507.612981128 402.476790459 507.612981128 386.860500577 487.658832945 c 0,87,88
 366.888691522 462.694071626 366.888691522 462.694071626 299.486830829 375.820562288 c 0,89,90
 231.888691522 288.694071626 231.888691522 288.694071626 203.847585917 253.64268962 c 0,91,92
 193.197589088 240.088148202 193.197589088 240.088148202 165.656805371 203.703281826 c 0,20,21
EndSplineSet
Ligature2: "'ccmp' Glyph Composition/Decomposition lookup 5 subtable" cid01508 cid01540
EndChar

StartChar: cid01512
Encoding: 12412 12412 23
Width: 1024
GlyphClass: 3
Flags: W
LayerCount: 2
Fore
SplineSet
117.204101562 734.869140625 m 0,0,1
 120.329232281 756.740477825 120.329232281 756.740477825 137.690429688 771.734375 c 0,2,3
 156.790008181 788.229031797 156.790008181 788.229031797 182.370117188 786.401367188 c 2,4,-1
 202.370117188 784.401367188 l 2,5,6
 213.287216409 783.622184648 213.287216409 783.622184648 222.76953125 778.970703125 c 0,7,8
 235.26513972 772.842283684 235.26513972 772.842283684 243.060546875 760.889648438 c 0,9,10
 255.475320067 741.852892431 255.475320067 741.852892431 249.081054688 718.875 c 0,11,12
 244.578101847 701.606283239 244.578101847 701.606283239 242.795898438 689.130859375 c 0,13,14
 242.686856178 688.366049085 242.686856178 688.366049085 242.514648438 687.586914062 c 0,15,16
 224.711592244 607.47610628 224.711592244 607.47610628 208.829101562 485.873046875 c 0,17,18
 193 364.685865554 193 364.685865554 193 288 c 0,19,20
 193 274.488225126 193 274.488225126 193.30859375 261.247070312 c 1,21,22
 196.802393491 270.243251023 196.802393491 270.243251023 200.595703125 279.923828125 c 0,23,24
 209.384206221 299.698728585 209.384206221 299.698728585 231.309570312 305.1796875 c 0,25,26
 253.935530037 310.83538929 253.935530037 310.83538929 272.310546875 297.055664062 c 0,27,28
 296 278.103478033 296 278.103478033 296 252 c 0,29,30
 296 241.306916969 296 241.306916969 291.734375 229.928710938 c 0,31,32
 269.919472333 169.443874272 269.919472333 169.443874272 253.036132812 116.313476562 c 0,33,34
 236.381488051 63.8981655597 236.381488051 63.8981655597 230.53125 34.6484375 c 0,35,36
 226 15.6177306525 226 15.6177306525 226 2 c 0,37,38
 226 0.498206172429 226 0.498206172429 226.390625 -1.0615234375 c 128,-1,39
 226.821777344 -2.7861328125 226.821777344 -2.7861328125 226.948242188 -4.556640625 c 0,40,41
 228.560540229 -27.1138845173 228.560540229 -27.1138845173 212.6875 -45.3671875 c 0,42,43
 195.874096005 -64.7029195677 195.874096005 -64.7029195677 169.846679688 -66.4384765625 c 0,44,45
 168.923828125 -66.5 168.923828125 -66.5 168 -66.5 c 2,46,-1
 165 -66.5 l 1,47,-1
 162 -66.5 l 2,48,49
 140.054976178 -66.5 140.054976178 -66.5 122.567382812 -55.3720703125 c 0,50,51
 121.755692955 -54.8545602705 121.755692955 -54.8545602705 120.995117188 -54.28515625 c 0,52,53
 102.625564388 -40.5079916502 102.625564388 -40.5079916502 96.5947265625 -17.8916015625 c 0,54,55
 67 111.710341605 67 111.710341605 67 274 c 0,56,57
 67 409.614041013 67 409.614041013 113.21875 697.977539062 c 0,58,59
 116.089791713 719.029858421 116.089791713 719.029858421 117.044921875 733.34765625 c 0,60,61
 117.094848196 734.098063978 117.094848196 734.098063978 117.204101562 734.869140625 c 0,0,1
624 130 m 0,62,63
 624 143.670606269 624 143.670606269 623.614257812 154.748046875 c 1,64,65
 589.32682804 162.5 589.32682804 162.5 554 162.5 c 0,66,67
 507.728597801 162.5 507.728597801 162.5 481.610351562 146.42578125 c 0,68,69
 460 133.128006372 460 133.128006372 460 113 c 0,70,71
 460 86.7911144032 460 86.7911144032 479.728515625 74.5009765625 c 0,72,73
 503.808945573 59.5 503.808945573 59.5 550 59.5 c 0,74,75
 593.060845153 59.5 593.060845153 59.5 607.555664062 75.642578125 c 0,76,77
 624 93.955146311 624 93.955146311 624 130 c 0,62,63
862.97265625 516.42578125 m 0,78,79
 888.560411645 518.254440854 888.560411645 518.254440854 907.224609375 501.368164062 c 0,80,81
 925 485.285310843 925 485.285310843 925 462 c 2,82,-1
 925 458 l 2,83,84
 925 434.968507313 925 434.968507313 909.349609375 417.752929688 c 0,85,86
 893.225805065 400.016592099 893.225805065 400.016592099 868.131835938 396.671875 c 0,87,88
 778.460827599 388.241132186 778.460827599 388.241132186 738.147460938 386.1640625 c 1,89,90
 738.668323562 353.877854379 738.668323562 353.877854379 740.978515625 303.426757812 c 0,91,92
 743.162385949 255.756400303 743.162385949 255.756400303 744.309570312 236.600585938 c 1,93,94
 801.796509028 212.494877853 801.796509028 212.494877853 922.862304688 132.092773438 c 0,95,96
 943.021924272 118.651204586 943.021924272 118.651204586 946.776367188 93.078125 c 0,97,98
 950.849613317 68.9190528489 950.849613317 68.9190528489 938.693359375 49.8173828125 c 2,99,-1
 931.567382812 38.619140625 l 2,100,101
 917.20144017 17.0710533357 917.20144017 17.0710533357 892.1796875 14.1826171875 c 0,102,103
 866.181655305 11.1829042073 866.181655305 11.1829042073 848.69140625 28.6748046875 c 0,104,105
 803.223952143 71.255483308 803.223952143 71.255483308 749.987304688 102.755859375 c 1,106,107
 750 100.002246094 750 100.002246094 750 97 c 0,108,109
 750 24.9333504491 750 24.9333504491 698.162109375 -16.7744140625 c 0,110,111
 647.54658857 -57.5 647.54658857 -57.5 557 -57.5 c 0,112,113
 460.505060805 -57.5 460.505060805 -57.5 400.267578125 -15.8408203125 c 0,114,115
 337 27.9126632725 337 27.9126632725 337 109 c 0,116,117
 337 175.939354899 337 175.939354899 395.104492188 223.583984375 c 0,118,119
 462.355402376 279.436935691 462.355402376 279.436935691 558.579101562 270.379882812 c 0,120,121
 597.326968703 266.764057507 597.326968703 266.764057507 618.6953125 265.01953125 c 1,122,123
 614.674124273 331.090025916 614.674124273 331.090025916 613.380859375 382.139648438 c 1,124,125
 573.624032042 381.5 573.624032042 381.5 537 381.5 c 0,126,127
 458.073353661 381.5 458.073353661 381.5 427.153320312 383.561523438 c 0,128,129
 402.137650399 385.229134968 402.137650399 385.229134968 384.916992188 402.448242188 c 0,130,131
 368 419.366715723 368 419.366715723 368 443 c 2,132,-1
 368 448 l 2,133,134
 368 470.949506726 368 470.949506726 385.329101562 487.453125 c 0,135,136
 403.994144021 505.229355913 403.994144021 505.229355913 430.776367188 503.443359375 c 0,137,138
 494.852281267 499.5 494.852281267 499.5 564 499.5 c 0,139,140
 587.674786491 499.5 587.674786491 499.5 612 500.00390625 c 1,141,-1
 612 621.106445312 l 1,142,143
 574.207174328 620.5 574.207174328 620.5 537 620.5 c 0,144,145
 490.671456473 620.5 490.671456473 620.5 444.698242188 621.5 c 0,146,147
 418.15361274 621.5 418.15361274 621.5 400.650390625 640.751953125 c 0,148,149
 385 657.969010134 385 657.969010134 385 681 c 2,150,-1
 385 682 l 2,151,152
 385 706.283936665 385 706.283936665 402.775390625 722.368164062 c 0,153,154
 420.754556414 738.634182976 420.754556414 738.634182976 447.9296875 737.409179688 c 0,155,156
 551.078205754 733.530566557 551.078205754 733.530566557 572.766601562 734.47265625 c 0,157,158
 672.215596684 738.992933283 672.215596684 738.992933283 701.037109375 741.239257812 c 1,159,160
 695.040242502 752.192636351 695.040242502 752.192636351 687.403150142 764.879769236 c 128,-1,161
 679.766057782 777.56690212 679.766057782 777.56690212 676.625368535 783.035010427 c 128,-1,162
 673.484679287 788.503118735 673.484679287 788.503118735 671.150006832 795.420998484 c 128,-1,163
 668.815334376 802.338878233 668.815334376 802.338878233 668.990234375 809.078125 c 0,164,165
 669.390532457 816.330720997 669.390532457 816.330720997 673.885742188 830.935546875 c 0,166,167
 678.789234412 847.27970207 678.789234412 847.27970207 698.428710938 862.139648438 c 0,168,169
 709.122782384 870.180183472 709.122782384 870.180183472 730.1015625 870.985351562 c 0,170,171
 765.350591128 871.913553344 765.350591128 871.913553344 775.193359375 849.655273438 c 2,172,-1
 855.10546875 713.509765625 l 2,173,174
 856.659233384 710.861268863 856.659233384 710.861268863 857.390625 707.939453125 c 0,175,176
 863.814892278 682.240576907 863.814892278 682.240576907 850.48046875 665.096679688 c 0,177,178
 848.148529571 662.098043152 848.148529571 662.098043152 844.879882812 659.918945312 c 2,179,-1
 829.70703125 649.8046875 l 1,180,-1
 815.53125 640.69140625 l 2,181,182
 808.349226372 636.075036346 808.349226372 636.075036346 799.541015625 636.5390625 c 2,183,-1
 780.541015625 637.538085938 l 2,184,185
 779.953629717 637.568839126 779.953629717 637.568839126 779.369140625 637.625 c 2,186,-1
 762.114257812 639.268554688 l 1,187,-1
 749.514648438 637.044921875 l 1,188,-1
 740.533203125 634.971679688 l 2,189,190
 739.422731678 634.404423397 739.422731678 634.404423397 737 633.185546875 c 2,191,-1
 737 506.404296875 l 1,192,193
 796.281122682 511.424610433 796.281122682 511.424610433 862.97265625 516.42578125 c 0,78,79
908.432617188 874.377929688 m 0,194,195
 920.780732442 875.103625004 920.780732442 875.103625004 925.206054688 875.443359375 c 0,196,197
 960.991207575 877.327585476 960.991207575 877.327585476 973.353515625 855.075195312 c 2,198,-1
 1042.35351562 731.075195312 l 2,199,200
 1044.253949 727.6610098 1044.253949 727.6610098 1044.79589844 723.869140625 c 2,201,-1
 1046.79589844 709.869140625 l 2,202,203
 1047.42784324 705.444033015 1047.42784324 705.444033015 1046.13574219 701.134765625 c 2,204,-1
 1043.13574219 691.134765625 l 2,205,206
 1042.72875027 689.780675967 1042.72875027 689.780675967 1042.13867188 688.48046875 c 0,207,208
 1034.33732605 671.317842686 1034.33732605 671.317842686 1020.25976562 662.51953125 c 0,209,210
 1019.68125243 662.157960501 1019.68125243 662.157960501 1019.13183594 661.854492188 c 0,211,212
 1006.54203455 654.859774098 1006.54203455 654.859774098 997.423828125 653.036132812 c 0,213,214
 994.741645273 652.5 994.741645273 652.5 992 652.5 c 2,215,-1
 978 652.5 l 2,216,217
 950.087046658 652.5 950.087046658 652.5 936.858398438 674.549804688 c 2,218,-1
 868.413085938 795.568359375 l 2,219,220
 860.663645572 806.450706814 860.663645572 806.450706814 862.015625 819.482421875 c 0,221,222
 862.256793822 829.229087551 862.256793822 829.229087551 865.409179688 836.534179688 c 0,223,224
 874.097716242 856.012904706 874.097716242 856.012904706 893.400390625 866.89453125 c 0,225,226
 895.337426133 868.099417204 895.337426133 868.099417204 896.425803985 869.095146212 c 128,-1,227
 897.514181837 870.090875221 897.514181837 870.090875221 897.794188203 870.519845975 c 128,-1,228
 898.074194569 870.948816729 898.074194569 870.948816729 899.013585235 871.493708712 c 128,-1,229
 899.952975901 872.038600695 899.952975901 872.038600695 902.057047578 872.671377225 c 128,-1,230
 904.161119255 873.304153755 904.161119255 873.304153755 908.432617188 874.377929688 c 0,194,195
EndSplineSet
Ligature2: "'ccmp' Glyph Composition/Decomposition lookup 5 subtable" cid01511 cid01539
EndChar

StartChar: cid01513
Encoding: 12413 12413 24
Width: 1024
GlyphClass: 3
Flags: W
LayerCount: 2
Fore
SplineSet
627.5 130 m 0,0,1
 627.5 143.871027182 627.5 143.871027182 627.082402992 155.111346646 c 1,2,3
 590.964589939 163.5 590.964589939 163.5 554 163.5 c 0,4,5
 506.214288802 163.5 506.214288802 163.5 478.970321618 146.315343776 c 0,6,7
 456.5 132.141756294 456.5 132.141756294 456.5 112 c 0,8,9
 456.5 85.8325692965 456.5 85.8325692965 476.503619745 73.1636101244 c 0,10,11
 501.235635731 57.5 501.235635731 57.5 550 57.5 c 0,12,13
 573.95023239 57.5 573.95023239 57.5 588.986443142 62.2955904756 c 128,-1,14
 604.022653894 67.0911809513 604.022653894 67.0911809513 611.002952702 74.8646955328 c 0,15,16
 618.940137189 83.7038328027 618.940137189 83.7038328027 623.220068595 97.2189840019 c 128,-1,17
 627.5 110.734135201 627.5 110.734135201 627.5 130 c 0,0,1
120.547830037 733.436500737 m 0,18,19
 122.167949969 756.118179797 122.167949969 756.118179797 139.537534929 771.908711578 c 0,20,21
 140.365906484 772.626159408 140.365906484 772.626159408 140.569056478 772.788679403 c 0,22,23
 156.458207224 785.5 156.458207224 785.5 176 785.5 c 2,24,-1
 179 785.5 l 2,25,26
 180.02149843 785.5 180.02149843 785.5 181.038395492 785.403152661 c 2,27,-1
 201.843837454 783.421681998 l 2,28,29
 206.222069116 783.084894947 206.222069116 783.084894947 210.521008803 781.90044013 c 128,-1,30
 214.819948491 780.715985313 214.819948491 780.715985313 218.757550799 778.796685918 c 128,-1,31
 222.695153108 776.877386522 222.695153108 776.877386522 226.296337512 774.303632419 c 128,-1,32
 229.897521917 771.729878316 229.897521917 771.729878316 233.012683169 768.566294926 c 128,-1,33
 236.12784442 765.402711535 236.12784442 765.402711535 238.649461838 761.777886496 c 0,34,35
 252.628136933 741.683541048 252.628136933 741.683541048 245.636357978 718.960259444 c 0,36,37
 240.92735019 702.007831406 240.92735019 702.007831406 238.053605766 687.639109289 c 0,38,39
 220.212534401 604.380776249 220.212534401 604.380776249 204.827154746 483.779251864 c 0,40,41
 189.5 363.634135625 189.5 363.634135625 189.5 287 c 0,42,43
 189.5 276.721796511 189.5 276.721796511 189.730065163 265.693531204 c 128,-1,44
 189.960130325 254.665265897 189.960130325 254.665265897 190.384253917 243.986776363 c 1,45,46
 196.946238744 260.890763624 196.946238744 260.890763624 203.982273963 278.844784528 c 0,47,48
 204.157740774 279.292527426 204.157740774 279.292527426 204.353051705 279.73197702 c 0,49,50
 212.363614518 297.755743349 212.363614518 297.755743349 231.82202046 303.593265132 c 0,51,52
 253.210091811 310.009686537 253.210091811 310.009686537 269.80110201 295.492552613 c 0,53,54
 292.5 277.333434221 292.5 277.333434221 292.5 251 c 0,55,56
 292.5 240.379102967 292.5 240.379102967 288.053464061 229.205756248 c 0,57,58
 270.422943281 178.282595555 270.422943281 178.282595555 257.604324046 139.346571631 c 128,-1,59
 244.785704811 100.410547707 244.785704811 100.410547707 236.968844732 74.1498486822 c 128,-1,60
 229.151984653 47.8891496571 229.151984653 47.8891496571 225.964343055 33.2259983069 c 0,61,62
 221.5 14.4757574768 221.5 14.4757574768 221.5 -6 c 0,63,64
 221.5 -28.6747126307 221.5 -28.6747126307 207.640081933 -45.6146124905 c 0,65,66
 193.334636384 -63.0990459387 193.334636384 -63.0990459387 171.040559159 -66.2839141137 c 0,67,68
 169.527957955 -66.5 169.527957955 -66.5 168 -66.5 c 2,69,-1
 165 -66.5 l 1,70,-1
 161 -66.5 l 2,71,72
 141.008548008 -66.5 141.008548008 -66.5 124.556465192 -54.5348488609 c 0,73,74
 104.620873115 -40.7332851154 104.620873115 -40.7332851154 99.9782869441 -17.5203542627 c 0,75,76
 70.5 110.557720046 70.5 110.557720046 70.5 274 c 0,77,78
 70.5 409.712070775 70.5 409.712070775 116.741976848 698.221795894 c 0,79,80
 119.595193089 718.194309581 119.595193089 718.194309581 120.547830037 733.436500737 c 0,18,19
754 715.5 m 128,-1,82
 754 675 754 675 782 646 c 128,-1,83
 810 617 810 617 849 617 c 0,84,85
 891 617 891 617 920 646 c 128,-1,86
 949 675 949 675 949 715.5 c 128,-1,87
 949 756 949 756 920 785 c 128,-1,88
 891 814 891 814 849 814 c 0,89,90
 810 814 810 814 782 785 c 128,-1,81
 754 756 754 756 754 715.5 c 128,-1,82
732.5 598.007089891 m 2,91,-1
 732.5 503.697613188 l 1,92,-1
 786.26908822 507.431577647 l 1,93,-1
 862.028083436 514.409379838 l 2,94,95
 862.799758457 514.640508698 862.799758457 514.640508698 865.531811575 514.445362046 c 2,96,-1
 879.531811575 513.445362046 l 1,97,-1
 887.615092303 511.230184606 l 1,98,-1
 899.615092303 505.230184606 l 2,99,100
 904.546434509 503.187846261 904.546434509 503.187846261 908.138721986 497.542823082 c 2,101,-1
 915.138721986 486.542823082 l 1,102,-1
 918.022751903 479.504875408 l 1,103,-1
 921.022751903 465.504875408 l 1,104,-1
 921.5 461 l 1,105,-1
 921.5 458 l 2,106,107
 921.638905269 457.444378925 921.638905269 457.444378925 921.283914114 454.959440841 c 2,108,-1
 919.283914114 440.959440841 l 2,109,110
 919.046362665 436.809867786 919.046362665 436.809867786 915.889081328 432.073945781 c 2,111,-1
 907.889081328 420.073945781 l 1,112,-1
 903.763964593 415.483242489 l 1,113,-1
 891.763964593 405.483242489 l 1,114,-1
 883.90650425 401.327235126 l 1,115,-1
 869.90650425 397.327235126 l 2,116,117
 868 397 868 397 865.810448305 396.576361725 c 2,118,-1
 794.470601578 390.547642283 l 1,119,-1
 734.109013829 387.370716612 l 1,120,-1
 736.483357017 324.846345994 l 1,121,-1
 740.09836719 236.278596751 l 1,122,-1
 826.943750024 196.55145354 l 2,123,124
 827.944213445 196.283145162 827.944213445 196.283145162 830.329440404 194.613486291 c 2,125,-1
 920.329440404 131.613486291 l 1,126,-1
 924.640081933 127.614612491 l 1,127,-1
 933.640081933 116.614612491 l 2,128,129
 935.836943159 114.180654769 935.836943159 114.180654769 937.247451099 110.231232535 c 2,130,-1
 942.247451099 96.2312325355 l 2,131,132
 943.5 93.9218665836 943.5 93.9218665836 943.5 89 c 2,133,-1
 943.5 82 l 2,134,135
 944 80 944 80 943.411485321 80.1742485551 c 0,136,137
 943 79 943 79 943.207469362 78.4654217729 c 2,138,-1
 941.207469362 66.4654217729 l 2,139,140
 941 65 941 65 940.671303635 64.149303607 c 0,141,142
 940 63 940 63 939.962248854 62.0151004584 c 2,143,-1
 935.962248854 52.0151004584 l 2,144,145
 935 51 935 51 934.874754818 49.7046791904 c 2,146,-1
 928.874754818 38.7046791904 l 1,147,-1
 925.202795796 33.7972042045 l 1,148,-1
 916.202795796 24.7972042045 l 2,149,150
 913.591600366 21.7013957623 913.591600366 21.7013957623 908.347475856 19.794441395 c 2,151,-1
 897.347475856 15.794441395 l 2,152,153
 893.420102977 14.1733995076 893.420102977 14.1733995076 888.351025274 14.5633285617 c 2,154,-1
 875.351025274 15.5633285617 l 2,155,156
 875 16 875 16 870.17914909 16.6281263631 c 0,157,158
 867.774893581 17.3863674099 867.774893581 17.3863674099 865.457176918 18.8612780138 c 2,159,-1
 854.457176918 25.8612780138 l 2,160,161
 853 27 853 27 852.358392365 27.3820416078 c 2,162,-1
 786.633575374 81.3352495856 l 1,163,-1
 746.5 105.076237835 l 1,164,-1
 746.5 97 l 2,165,166
 746 95 746 95 746.096849641 92.8559759633 c 2,167,-1
 735.096849641 36.8559759633 l 2,168,169
 734 33 734 33 733.522710832 32.0430614365 c 0,170,171
 732 30 732 30 730.948789345 27.7716766088 c 2,172,-1
 698.948789345 -13.2283233912 l 2,173,174
 695.898813364 -17.1294237143 695.898813364 -17.1294237143 691.469137364 -19.3024723181 c 2,175,-1
 638.469137364 -45.3024723181 l 1,176,-1
 631.666746794 -47.3339743493 l 1,177,-1
 559.666746794 -56.3339743493 l 2,178,179
 557.99244578 -56.7521345679 557.99244578 -56.7521345679 554.566374633 -56.3618226651 c 2,180,-1
 475.566374633 -47.3618226651 l 2,181,182
 474 -47 474 -47 472.226836586 -46.6832582313 c 0,183,184
 470.152372195 -46.0467522212 470.152372195 -46.0467522212 469.150885468 -45.5944678927 c 2,185,-1
 407.150885468 -17.5944678927 l 2,186,187
 407 -17 407 -17 404.472302901 -16.1223924101 c 0,188,189
 403 -15 403 -15 401.983442611 -14.2783807911 c 0,190,191
 401 -13 401 -13 399.930699648 -12.2838225348 c 2,192,-1
 359.930699648 32.7161774652 l 2,193,194
 358 35 358 35 356.893279021 37.1725747958 c 0,195,196
 356 40 356 40 355.044814524 42.1906131695 c 2,197,-1
 341.044814524 103.19061317 l 2,198,199
 339.9879049 108.055674967 339.9879049 108.055674967 341.011978206 112.664004843 c 2,200,-1
 353.011978206 166.664004843 l 2,201,202
 353.91456865 171.538612132 353.91456865 171.538612132 357.573356809 175.871387583 c 2,203,-1
 395.573356809 220.871387583 l 2,204,205
 398.002949764 224.003803059 398.002949764 224.003803059 402.259428265 226.166931478 c 2,206,-1
 463.259428265 257.166931478 l 2,207,208
 466.817603714 258.910616635 466.817603714 258.910616635 470.428237025 259.345632696 c 2,209,-1
 553.428237025 269.345632696 l 2,210,211
 554.092607096 269.622227869 554.092607096 269.622227869 557.073658764 269.473175286 c 2,212,-1
 597.510714232 267.451322512 l 1,213,-1
 622.31932683 265.195994095 l 1,214,-1
 618.518254668 329.054006404 l 1,215,-1
 616.974916452 383.070843965 l 1,216,-1
 595.282845776 382.5 l 1,217,-1
 556 382.5 l 1,218,-1
 491.664144476 382.5 l 1,219,-1
 427.328452824 384.510490364 l 2,220,221
 425 385 425 385 423.165520606 385.050589293 c 2,222,-1
 410.165520606 388.050589293 l 2,223,224
 405.63448599 388.883382947 405.63448599 388.883382947 401.385387509 392.359918067 c 2,225,-1
 390.385387509 401.359918067 l 2,226,227
 389 403 389 403 388.338100266 403.301680593 c 0,228,229
 388 403 388 403 386.612174187 405.3543085 c 2,230,-1
 378.612174187 416.3543085 l 2,231,232
 375.915097356 420.11849472 375.915097356 420.11849472 374.977248097 424.495124592 c 2,233,-1
 371.977248097 438.495124592 l 1,234,-1
 371.5 443 l 1,235,-1
 371.5 447 l 2,236,237
 372 448 372 448 371.642512144 449.326508956 c 0,238,239
 372 451 372 451 371.977248097 451.504875408 c 2,240,-1
 374.977248097 465.504875408 l 2,241,242
 376.017864146 470.078515193 376.017864146 470.078515193 378.612174187 473.6456915 c 2,243,-1
 386.612174187 484.6456915 l 2,244,245
 388.459010373 488.013480917 388.459010373 488.013480917 393.70467919 490.874754818 c 2,246,-1
 404.70467919 496.874754818 l 2,247,248
 407 498 407 498 408.190438008 498.363638359 c 0,249,250
 409.917698443 498.971057331 409.917698443 498.971057331 411.730770539 499.249991499 c 2,251,-1
 424.730770539 501.249991499 l 2,252,253
 425.725587266 501.578790775 425.725587266 501.578790775 428.651216223 501.490135352 c 2,254,-1
 494.479194574 499.495348129 l 1,255,-1
 564.153563594 498.5 l 1,256,-1
 615.5 498.5 l 1,257,-1
 615.5 621.874147715 l 1,258,-1
 578.398011703 620.5 l 1,259,-1
 523 620.5 l 1,260,-1
 482.724404265 620.5 l 1,261,-1
 443.448899083 621.507064235 l 2,262,263
 441 622 441 622 439.495124592 621.977248097 c 2,264,-1
 425.495124592 624.977248097 l 2,265,266
 423 626 423 626 422.849026158 625.748912068 c 0,267,268
 421 626 421 626 420.267060731 626.851525382 c 0,269,270
 418.436275359 627.86936562 418.436275359 627.86936562 418.073945781 628.110918672 c 2,271,-1
 406.073945781 636.110918672 l 2,272,273
 405 637 405 637 403.492325346 638.157856373 c 0,274,275
 402 639 402 639 401.218328704 640.585828036 c 0,276,277
 400.338718171 641.606833739 400.338718171 641.606833739 399.428753631 643.166772951 c 2,278,-1
 392.428753631 655.166772951 l 2,279,280
 390.523890019 658.944128958 390.523890019 658.944128958 389.977248097 661.495124592 c 2,281,-1
 386.977248097 675.495124592 l 2,282,283
 387 677 387 677 386.629125514 677.799851105 c 0,284,285
 386.5 677.840930871 386.5 677.840930871 386.5 680 c 2,286,-1
 386.5 682 l 1,287,-1
 387.050589293 686.834479394 l 1,288,-1
 390.050589293 699.834479394 l 2,289,290
 391.350561231 704.168839566 391.350561231 704.168839566 392.861278014 706.542823082 c 2,291,-1
 399.861278014 717.542823082 l 2,292,293
 403.16806998 722.238669636 403.16806998 722.238669636 407.166772951 724.571246369 c 2,294,-1
 419.166772951 731.571246369 l 2,295,296
 422.425937337 733.636270756 422.425937337 733.636270756 426.959440841 734.283914114 c 2,297,-1
 440.959440841 736.283914114 l 2,298,299
 443 736 443 736 443.046282826 736.465196932 c 128,-1,300
 443 737 443 737 445.022650712 736.475664961 c 2,301,-1
 507.682110256 733.491881173 l 1,302,-1
 569.854499074 732.505017859 l 1,303,-1
 686.179165683 735.926331583 l 1,304,305
 692.60125769 791.60125769 692.60125769 791.60125769 734 833 c 0,306,307
 783 882 783 882 849 882 c 0,308,309
 919 882 919 882 968.5 833 c 128,-1,310
 1018 784 1018 784 1018 715 c 128,-1,311
 1018 646 1018 646 968.5 597.5 c 128,-1,312
 919 549 919 549 849 549 c 0,313,314
 781 549 781 549 733 597.5 c 0,315,316
 732.749345545 597.753265439 732.749345545 597.753265439 732.5 598.007089891 c 2,91,-1
EndSplineSet
Ligature2: "'ccmp' Glyph Composition/Decomposition lookup 5 subtable" cid01511 cid01540
EndChar

